<svg width="12" height="13" viewBox="0 0 12 13" fill="none" xmlns="http://www.w3.org/2000/svg">
<g clip-path="url(#clip0_139_1103)">
<path d="M1.92029 10.9017C2.97099 11.8793 4.33812 12.4465 5.77219 12.5V10.9601C4.74628 10.9084 3.76996 10.5031 3.0089 9.81323L1.92029 10.9017Z" fill="#0066FF"/>
<path d="M2.69958 3.49477L1.61118 2.40649C0.625861 3.45886 0.0537025 4.83167 0 6.2724H1.53991C1.59195 5.23994 2.002 4.25784 2.69958 3.49477Z" fill="#0066FF"/>
<path d="M0 6.72778C0.0534801 8.16185 0.620747 9.52898 1.59829 10.5797L2.68679 9.49107C1.99689 8.73001 1.59173 7.75369 1.54003 6.72778H0Z" fill="#0066FF"/>
<path d="M10.4017 2.42041L9.31308 3.50891C10.003 4.26998 10.4083 5.2464 10.46 6.27242H11.9999C11.9464 4.83824 11.3792 3.47111 10.4017 2.42041Z" fill="#0066FF"/>
<path d="M10.0796 2.0984C9.02891 1.12075 7.66178 0.55348 6.2276 0.5V2.03991C7.25362 2.09162 8.23004 2.497 8.99111 3.1869L10.0796 2.0984Z" fill="#0066FF"/>
<path d="M5.77218 2.04003V0.5C4.34456 0.553258 2.98321 1.11563 1.93417 2.08539L3.02312 3.17434C3.78218 2.49199 4.75283 2.0915 5.77218 2.04003Z" fill="#0066FF"/>
<path d="M4.02112 7.10809C4.13119 7.70615 4.49421 8.07762 4.96852 8.07762C5.2426 8.07762 5.55013 7.94787 5.85812 7.7027C5.94195 7.63577 6.06125 7.63655 6.1442 7.70459C6.45207 7.95665 6.76072 8.08985 7.03701 8.08985C7.51333 8.08985 7.87413 7.71438 7.97853 7.10975C8.14664 6.14822 7.59894 4.86615 6.00032 4.15479C4.84233 4.6828 3.78907 5.79377 4.02112 7.10809Z" fill="#0066FF"/>
<path d="M10.46 6.72778C10.4085 7.74713 10.008 8.71778 9.32578 9.47695L10.4146 10.5658C11.3844 9.51675 11.9469 8.1554 12 6.72778H10.46Z" fill="#0066FF"/>
<path d="M5.9979 8.16846C5.97922 8.18147 5.96054 8.19603 5.94197 8.20826L5.75696 8.86259H6.24284L6.05927 8.21449C6.03881 8.20048 6.01835 8.18324 5.9979 8.16846Z" fill="#0066FF"/>
<path d="M6.2276 12.5C7.66834 12.4463 9.04114 11.8741 10.0935 10.8888L9.00523 9.80042C8.24216 10.498 7.26007 10.9079 6.2276 10.96V12.5Z" fill="#0066FF"/>
<path d="M1.98965 6.50006C1.98965 8.71131 3.78863 10.5104 6.0001 10.5104C8.21158 10.5104 10.0104 8.71131 10.0104 6.50006C10.0104 4.28881 8.21124 2.4895 5.99988 2.4895C3.78852 2.4895 1.98965 4.2887 1.98965 6.50006ZM6.14698 3.72199C7.99966 4.52886 8.62719 6.04431 8.42728 7.18808C8.28496 8.01263 7.73904 8.54587 7.03702 8.54587C6.89214 8.54531 6.74816 8.52341 6.60973 8.48083L6.76339 9.02185C6.78263 9.09123 6.76884 9.1655 6.72603 9.22332C6.68323 9.28114 6.61618 9.31605 6.54424 9.31794H5.45541C5.38347 9.31627 5.31631 9.28136 5.27373 9.22332C5.23059 9.16484 5.2168 9.08968 5.23637 9.01974L5.39348 8.46737C5.25583 8.50973 5.11262 8.53186 4.96853 8.53286C4.27073 8.53286 3.72303 8.00551 3.57304 7.18952L3.57271 7.18797C3.37258 6.05632 3.99966 4.54576 5.85134 3.72232C5.85612 3.72021 5.8609 3.71821 5.86579 3.71654C5.95185 3.68174 6.04802 3.68174 6.13419 3.71654C6.13842 3.71821 6.14275 3.71999 6.14698 3.72177V3.72199Z" fill="#0066FF"/>
</g>
<defs>
<clipPath id="clip0_139_1103">
<rect width="12" height="12" fill="white" transform="translate(0 0.5)"/>
</clipPath>
</defs>
</svg>
