<svg width="12" height="13" viewBox="0 0 12 13" fill="none" xmlns="http://www.w3.org/2000/svg">
<g clip-path="url(#clip0_139_1096)">
<path d="M11.4263 3.58576L7.34046 1.81991C6.96978 1.6607 6.53958 1.81384 6.35119 2.16263V9.34149C6.35119 9.90296 5.89423 10.3599 5.33276 10.3599H3.56206C3.58514 10.3733 3.60945 10.3854 3.63497 10.3964L7.71964 12.1622C8.12576 12.3335 8.57473 12.1417 8.7405 11.7575L11.831 4.60665C12 4.21285 11.8189 3.75589 11.4263 3.58576ZM7.38785 2.92098L7.47049 3.60034L6.91875 4.00503L6.83611 3.32567L7.38785 2.92098ZM7.67346 11.0611L7.5896 10.383L8.14135 9.97831L8.22399 10.6565L7.67346 11.0611ZM6.81059 8.65604L6.55416 6.57055L8.25073 5.32606L8.50472 7.41275L6.81059 8.65604Z" fill="#0066FF"/>
<path d="M5.33276 0.77478H0.881087C0.453306 0.77478 0.105728 1.12236 0.105728 1.55014V9.34151C0.105728 9.76929 0.453306 10.1169 0.881087 10.1169H5.33278C5.76056 10.1169 6.10814 9.76929 6.10814 9.34151V1.55014C6.10814 1.12236 5.76056 0.77478 5.33276 0.77478ZM1.36149 2.82322C1.36149 2.82322 0.857087 2.55369 0.857087 2.16228C0.857087 2.01216 0.979244 1.88956 1.12981 1.88956C1.22808 1.88956 1.31372 1.94141 1.36149 2.01894C1.40927 1.94141 1.49536 1.88956 1.59274 1.88956C1.74375 1.88956 1.86546 2.01216 1.86546 2.16228C1.86544 2.55369 1.36149 2.82322 1.36149 2.82322ZM3.10751 6.61707C3.10751 6.61707 1.84186 5.9408 1.84186 4.95868C1.84186 4.58204 2.14838 4.27437 2.52614 4.27437C2.7727 4.27437 2.9876 4.40445 3.10749 4.59898C3.22737 4.40445 3.44342 4.27437 3.68773 4.27437C4.06664 4.27437 4.37201 4.58201 4.37201 4.95868C4.37203 5.94078 3.10751 6.61707 3.10751 6.61707ZM4.85288 9.00188C4.85288 9.00188 4.34848 8.73235 4.34848 8.34094C4.34848 8.19085 4.47063 8.06823 4.6212 8.06823C4.71947 8.06823 4.80511 8.12007 4.85288 8.1976C4.90067 8.12007 4.98675 8.06823 5.08413 8.06823C5.23514 8.06823 5.35685 8.19083 5.35685 8.34094C5.35683 8.73235 4.85288 9.00188 4.85288 9.00188Z" fill="#0066FF"/>
</g>
<defs>
<clipPath id="clip0_139_1096">
<rect width="12" height="12" fill="white" transform="translate(0 0.5)"/>
</clipPath>
</defs>
</svg>
