<svg width="12" height="12" viewBox="0 0 12 12" fill="none" xmlns="http://www.w3.org/2000/svg">
<g clip-path="url(#clip0_542_1510)">
<path d="M2.73284 6.24097H1.37354C1.42722 7.31452 1.85316 8.33581 2.5782 9.12931L3.53877 8.16883C3.06658 7.63155 2.78347 6.95439 2.73284 6.24097Z" fill="#0066FF"/>
<path d="M3.52663 3.85742L2.56606 2.89685C1.83643 3.70176 1.41355 4.73792 1.37158 5.8236H2.72957C2.7695 5.09784 3.04996 4.40612 3.52663 3.85742Z" fill="#0066FF"/>
<path d="M2.87292 9.42474C3.66816 10.1572 4.69495 10.5879 5.77481 10.642V9.28273C5.05507 9.23149 4.37241 8.9439 3.83309 8.46448L2.87292 9.42474Z" fill="#0066FF"/>
<path d="M6.0374 5.52942C6.01978 5.53421 6.00164 5.53665 5.98341 5.53675C5.97026 5.53675 5.95722 5.53543 5.94439 5.53298C5.71853 5.56426 5.54626 5.75069 5.53271 5.97828C5.5375 5.9959 5.53995 6.01403 5.54005 6.03227C5.53995 6.04531 5.53873 6.05835 5.53628 6.07119C5.56562 6.28329 5.73239 6.44995 5.94439 6.4794C5.95722 6.47695 5.97026 6.47563 5.98341 6.47563C6.00164 6.47573 6.01978 6.47817 6.0374 6.48296C6.26499 6.46941 6.45131 6.29704 6.48259 6.07119C6.48015 6.05835 6.47892 6.04531 6.47892 6.03227C6.47892 6.01403 6.48137 5.9959 6.48616 5.97828C6.47179 5.73663 6.27905 5.54378 6.0374 5.52942Z" fill="#0066FF"/>
<path d="M9.13251 2.57509C8.32567 1.83803 7.2839 1.41046 6.19202 1.36829V2.72637C6.92398 2.76661 7.62131 3.05155 8.17194 3.53556L9.13251 2.57509Z" fill="#0066FF"/>
<path d="M8.46777 3.82992C8.95911 4.38258 9.24864 5.08531 9.28929 5.8237H10.6473C10.6049 4.72539 10.1726 3.67812 9.42804 2.86975L8.46777 3.82992Z" fill="#0066FF"/>
<path d="M5.77471 2.72967V1.37036C4.68853 1.42476 3.65624 1.86027 2.85938 2.60019L3.81923 3.56015C4.36049 3.07349 5.04865 2.78132 5.77471 2.72967Z" fill="#0066FF"/>
<path d="M6.00951 2.15355e-05C3.58021 2.15355e-05 1.39012 1.46344 0.460519 3.70773C-0.469084 5.95213 0.0447702 8.53545 1.76247 10.2533C4.11006 12.5871 7.90335 12.5816 10.2441 10.2408C12.5848 7.90016 12.5904 4.10678 10.2564 1.75919C9.13256 0.629197 7.60323 -0.00425717 6.00951 2.15355e-05ZM6.00951 11.0653C3.21988 11.0653 0.95033 8.79584 0.95033 6.00622C0.95033 3.2166 3.21988 0.947146 6.00951 0.947146C8.79903 0.947146 11.0686 3.2166 11.0686 6.00622C11.0686 8.79584 8.79903 11.0653 6.00951 11.0653Z" fill="#0066FF"/>
<path d="M6.19202 9.28608V10.6442C7.27759 10.6022 8.31375 10.1793 9.11876 9.44969L8.15809 8.48901C7.60949 8.96579 6.91767 9.24624 6.19202 9.28608Z" fill="#0066FF"/>
<path d="M8.45557 8.19644L9.41543 9.1563C10.1554 8.35934 10.591 7.32715 10.6454 6.24097H9.28594C9.23439 6.96702 8.94212 7.65508 8.45557 8.19644Z" fill="#0066FF"/>
<path d="M8.87714 6.00619C8.87714 4.42235 7.59322 3.13843 6.00948 3.13843C4.42564 3.13843 3.14172 4.42235 3.14172 6.00619C3.14172 7.59003 4.42564 8.87395 6.00948 8.87395C7.59251 8.87211 8.87541 7.58921 8.87714 6.00619ZM7.33955 6.24091H6.87348C6.78454 6.56568 6.5215 6.81354 6.19204 6.88281V7.33626C6.19204 7.45148 6.09862 7.5449 5.9834 7.5449C5.86818 7.5449 5.77477 7.45148 5.77477 7.33626V6.87018C5.46853 6.78634 5.22933 6.54714 5.14549 6.24091H4.67941C4.56419 6.24091 4.47077 6.14749 4.47077 6.03227C4.47077 5.91705 4.56419 5.82363 4.67941 5.82363H5.13275C5.20213 5.49417 5.44989 5.23103 5.77477 5.14219V4.67612C5.77477 4.5609 5.86818 4.46748 5.9834 4.46748C6.09862 4.46748 6.19204 4.5609 6.19204 4.67612V5.12956C6.54055 5.20281 6.81286 5.47512 6.88611 5.82363H7.33955C7.45477 5.82363 7.54819 5.91705 7.54819 6.03227C7.54819 6.14749 7.45477 6.24091 7.33955 6.24091Z" fill="#0066FF"/>
</g>
<defs>
<clipPath id="clip0_542_1510">
<rect width="12" height="12" fill="white"/>
</clipPath>
</defs>
</svg>
