<svg width="60" height="40" viewBox="0 0 60 40" fill="none" xmlns="http://www.w3.org/2000/svg">
<path d="M17.2955 14H17.7216H17.7438C18.6824 14.0296 19.5875 14.2251 20.4508 14.5253C21.5342 14.9051 22.5507 15.4418 23.4669 16.0467C23.7789 16.2536 24.0796 16.4674 24.3637 16.6993C24.2774 16.6993 24.1855 16.7061 24.0991 16.697C24.0156 16.6607 23.946 16.6038 23.868 16.5606C22.8125 15.9193 21.6317 15.3531 20.3812 15.0097C19.7128 14.8255 19.0221 14.7072 18.3203 14.6708C17.7633 14.6345 17.1868 14.6731 16.6354 14.7504C15.8556 14.8687 15.1093 15.0938 14.4158 15.4054C13.6917 15.726 13.0512 16.1262 12.4273 16.5629C12.2574 16.6834 12.0876 16.8039 11.9149 16.9222C11.8703 16.9563 11.8202 16.9495 11.7645 16.9517C11.0822 16.9495 10.4027 16.954 9.72034 16.9495C9.9487 16.7198 10.2244 16.5151 10.4834 16.3104C10.6366 16.1967 10.7898 16.083 10.9429 15.9739C11.7311 15.4145 12.6306 14.9756 13.597 14.6527C14.7695 14.2661 16.0283 14.0432 17.2955 14Z" fill="url(#paint0_linear)"/>
<path d="M20.5511 16.6674C20.5511 17.12 20.5511 17.5702 20.5511 18.0228C21.1526 18.0228 21.7542 18.0228 22.3557 18.0228C22.3557 18.2843 22.3557 18.5435 22.3557 18.8051C21.7542 18.8051 21.1526 18.8051 20.5511 18.8051C20.5511 19.8193 20.5511 20.8358 20.5511 21.85C20.5511 22.0206 20.565 22.1866 20.6096 22.3526C20.6458 22.5004 20.7238 22.6505 20.8519 22.7619C21.005 22.8938 21.2334 22.9507 21.4506 22.9552C21.7152 22.9575 21.9714 22.9507 22.2249 22.8847C22.2471 23.1485 22.2722 23.41 22.2806 23.6738C22.0327 23.7307 21.7876 23.7807 21.5314 23.7944C21.3559 23.7989 21.1888 23.8239 21.0134 23.8035C20.6179 23.7898 20.2085 23.6761 19.9105 23.4601C19.6766 23.2941 19.529 23.0462 19.4482 22.8051C19.348 22.5277 19.3313 22.248 19.3173 21.9592C19.3173 20.9063 19.3173 19.8557 19.3173 18.8028C18.9609 18.8028 18.6016 18.8051 18.2451 18.8005C18.2451 18.5413 18.2451 18.2797 18.2451 18.0205C18.6016 18.0182 18.9609 18.0205 19.3173 18.0205C19.3173 17.6703 19.3201 17.3201 19.3173 16.9699C19.7267 16.8653 20.1389 16.7629 20.5511 16.6674ZM8.99624 16.3013C8.92104 16.133 8.86256 15.9579 8.77623 15.7942C8.2805 15.7987 7.78756 15.7919 7.29184 15.7965C6.45913 17.7749 5.62642 19.7784 4.7965 21.7613C4.53193 22.3958 4.27014 23.0303 4 23.6625V23.6807C4.42889 23.6807 4.86056 23.6807 5.28944 23.6807C5.62364 22.8552 5.95783 22.0274 6.29203 21.1996C7.43108 21.1974 8.57014 21.1974 9.70919 21.1996C10.0517 22.0274 10.3971 22.8552 10.7424 23.6807C11.188 23.6807 11.6336 23.6807 12.0792 23.6807C11.0543 21.2201 10.0239 18.7596 8.99624 16.3013ZM6.55382 20.3992C6.82118 19.7556 7.08575 19.1121 7.35311 18.4685C7.5397 18.0364 7.7068 17.6021 7.83769 17.1586C7.89617 17.004 7.92402 16.8425 7.99643 16.6924C8.13568 17.0995 8.25544 17.5088 8.41418 17.9113C8.58128 18.3298 8.76509 18.7437 8.93775 19.1621C9.11321 19.576 9.28588 19.9876 9.46133 20.4014C8.49494 20.3992 7.52299 20.3992 6.55382 20.3992ZM15.8974 17.9227C16.3346 17.9591 16.7802 18.0614 17.1562 18.2479C17.0643 18.5003 16.9585 18.7482 16.8582 18.9983C16.5602 18.8528 16.2399 18.7437 15.8974 18.6959C15.5855 18.6504 15.2791 18.639 14.9756 18.7164C14.7528 18.7709 14.5495 18.8846 14.4269 19.0461C14.2877 19.228 14.2626 19.4668 14.3378 19.6692C14.4047 19.842 14.5578 19.9626 14.7361 20.0626C15.087 20.2536 15.5242 20.3719 15.9085 20.5061C16.3541 20.6652 16.8164 20.8904 17.1005 21.2224C17.3233 21.4771 17.4152 21.7818 17.4152 22.0911C17.418 22.4367 17.301 22.7778 17.0476 23.0553C16.7969 23.3373 16.4321 23.5283 16.0366 23.6488C15.7192 23.7398 15.3877 23.7921 15.0536 23.7989C14.8335 23.8239 14.6191 23.7944 14.3991 23.7875C13.8978 23.7421 13.3881 23.6306 12.9453 23.4305C12.8729 23.4078 12.9203 23.3555 12.9286 23.31C13.0205 23.0894 13.0985 22.8643 13.1932 22.6437C13.2851 22.6755 13.3714 22.7142 13.4605 22.7506C13.9061 22.9211 14.3963 23.0325 14.8892 23.0325C15.1984 23.0257 15.5047 22.9916 15.7693 22.8529C15.9559 22.7597 16.0896 22.6118 16.1564 22.4436C16.201 22.3344 16.1926 22.2048 16.1898 22.0911C16.1815 21.8614 16.0199 21.659 15.7999 21.5248C15.4991 21.3361 15.1065 21.2201 14.7556 21.111C14.3044 20.9631 13.856 20.7653 13.5246 20.4719C13.2712 20.2536 13.1096 19.9694 13.0818 19.6692C13.0512 19.3281 13.1626 18.9779 13.3965 18.6936C13.6304 18.4048 13.9925 18.1842 14.3852 18.0592C14.8558 17.9068 15.3961 17.875 15.8974 17.9227ZM27.1877 17.925C27.1877 18.2456 27.1877 18.5663 27.1877 18.8869C26.9899 18.871 26.7922 18.871 26.5945 18.8778C26.2241 18.9051 25.8704 19.0484 25.6142 19.269C25.3078 19.5282 25.1379 19.8761 25.0655 20.2286C25.0516 20.3605 25.0321 20.4924 25.0321 20.6243C25.0293 21.6431 25.0349 22.6596 25.0293 23.6784C24.6116 23.6784 24.1938 23.6784 23.7761 23.6784C23.7705 22.2912 23.7761 20.9017 23.7733 19.5146C23.7677 19.3213 23.7761 19.1302 23.7566 18.937C23.7594 18.63 23.7399 18.3275 23.7176 18.0228C24.0824 18.0228 24.45 18.0228 24.8177 18.0228C24.8344 18.3343 24.8539 18.6459 24.8678 18.9597C24.8734 19.0302 24.8594 19.1007 24.9012 19.1621C24.968 19.0438 25.0182 18.921 25.0989 18.8073C25.3301 18.4639 25.6838 18.182 26.1294 18.0273C26.4636 17.9045 26.8312 17.8772 27.1877 17.925ZM34.5846 20.6038C34.5456 20.0353 34.3618 19.485 33.9663 19.012C33.6767 18.6663 33.2784 18.3753 32.8189 18.1888C32.1839 17.9273 31.432 17.8522 30.7302 17.9295C30.0673 17.9978 29.424 18.2297 28.9311 18.6004C28.5077 18.9142 28.2014 19.319 28.0232 19.7602C27.8644 20.1513 27.8004 20.572 27.8087 20.9813C27.8282 21.634 28.0427 22.273 28.5328 22.7983C29.0815 23.3964 29.9587 23.758 30.8666 23.7989C31.0393 23.8126 31.212 23.8148 31.3846 23.7989C32.0976 23.7648 32.8133 23.5488 33.3647 23.1758C33.7602 22.9097 34.0693 22.5641 34.2699 22.1798C34.5261 21.6908 34.6152 21.1314 34.5846 20.6038ZM32.8829 22.1798C32.6657 22.4868 32.351 22.746 31.9555 22.8961C31.6019 23.0325 31.1952 23.0644 30.8137 23.0007C30.46 22.9439 30.137 22.796 29.8835 22.5891C29.4881 22.2753 29.2485 21.8227 29.1594 21.3816C29.0647 20.954 29.0926 20.5129 29.2207 20.0922C29.3265 19.7738 29.4853 19.4759 29.7498 19.2235C30.0116 18.9688 30.3709 18.7823 30.7719 18.7164C31.1841 18.6436 31.6408 18.6709 32.0252 18.8164C32.4067 18.9642 32.6991 19.2189 32.8996 19.5191C33.167 19.9216 33.2979 20.3901 33.2868 20.8472C33.2979 21.3065 33.1642 21.7795 32.8829 22.1798Z" fill="#221E1F"/>
<path d="M41.8393 16.9359C41.6193 16.597 41.2767 16.315 40.8646 16.1308C40.4607 15.9466 40.0068 15.8466 39.5528 15.7897C39.1462 15.7442 38.7368 15.7329 38.3274 15.742C37.6869 15.7488 37.0436 15.7852 36.4086 15.8648C36.3473 15.8739 36.2721 15.8739 36.2164 15.8966C36.2053 15.9898 36.2137 16.0854 36.2109 16.1786C36.2109 18.6528 36.2109 21.1292 36.2109 23.6034C36.2192 23.6398 36.1886 23.6853 36.2582 23.6784C36.6593 23.6784 37.0659 23.6784 37.4669 23.6784C37.4669 22.7188 37.4669 21.7614 37.4669 20.8017C37.4669 20.7085 37.4669 20.6153 37.4697 20.5243C37.8401 20.5971 38.1966 20.5925 38.5725 20.5903C38.9569 20.5925 39.344 20.5471 39.7171 20.4766C40.3243 20.3583 40.9008 20.1377 41.3519 19.7807C41.6833 19.5215 41.9201 19.1872 42.0398 18.8233C42.1234 18.5754 42.1651 18.323 42.1596 18.0661C42.1735 17.6795 42.0649 17.2815 41.8393 16.9359ZM40.7643 18.7687C40.6083 19.0962 40.2992 19.36 39.9177 19.5215C39.4665 19.7147 38.9123 19.7784 38.4082 19.7716C38.0935 19.7671 37.7705 19.7534 37.4641 19.6897C37.4641 18.671 37.4641 17.6499 37.4641 16.6311C37.751 16.572 38.0322 16.5675 38.3274 16.5538C38.5642 16.5538 38.7981 16.5447 39.0348 16.5675C39.4999 16.5993 40.0096 16.7266 40.3605 16.9882C40.6807 17.2201 40.8562 17.5476 40.8952 17.8932C40.9258 18.1911 40.9035 18.4868 40.7643 18.7687ZM49.2974 18.0229C49.7542 18.0183 50.2081 18.0229 50.6649 18.0206C51.0603 18.8915 51.4502 19.7648 51.8429 20.6357C52.0741 21.1565 52.3219 21.6704 52.5141 22.2026C52.5614 22.3117 52.5809 22.4322 52.645 22.5369C52.7202 22.3572 52.7787 22.173 52.8483 21.9934C52.982 21.6136 53.1407 21.2406 53.2967 20.8677C53.6866 19.9194 54.0848 18.9734 54.4691 18.0251C54.8228 18.0206 55.1793 18.0251 55.533 18.0229C55.6249 18.0229 55.714 18.0251 55.8059 18.0297V18.0388C55.7446 18.1388 55.7029 18.2434 55.6527 18.3458C55.015 19.7057 54.38 21.0678 53.7395 22.4277C53.4359 23.0622 53.1101 23.708 52.7174 24.3083C52.3915 24.7995 52.01 25.2703 51.4809 25.6341C51.052 25.9161 50.5368 26.1594 49.9937 26.2504C49.8823 25.9684 49.7792 25.6819 49.679 25.3953C50.2471 25.243 50.7623 24.9565 51.1606 24.5949C51.4447 24.3334 51.6758 24.0332 51.854 23.7171C51.8902 23.6489 51.9348 23.5693 51.932 23.4965C51.9292 23.3942 51.8596 23.2896 51.8151 23.1963C51.2163 21.9706 50.6175 20.7472 50.0187 19.5215C49.782 19.0189 49.5314 18.5231 49.2974 18.0229ZM48.3004 22.6028C48.3004 22.5209 48.2865 22.4391 48.2865 22.3572C48.2865 21.6159 48.2865 20.8745 48.2865 20.1332C48.2921 19.8216 48.2336 19.501 48.1222 19.2031C47.9802 18.8438 47.7379 18.5209 47.3647 18.2912C46.9219 18.0206 46.3899 17.9205 45.8441 17.9001C45.1256 17.8796 44.3848 17.9842 43.7275 18.2275C43.6077 18.2753 43.4824 18.3208 43.3766 18.3844C43.371 18.4231 43.3933 18.464 43.4072 18.5004C43.4908 18.6937 43.566 18.8915 43.6523 19.0848C44.1675 18.7983 44.8192 18.6732 45.4347 18.6596C45.7633 18.6573 46.1309 18.7005 46.415 18.8438C46.6629 18.9643 46.8355 19.1576 46.9302 19.3782C47.0333 19.6033 47.0416 19.8353 47.0333 20.0718C46.2284 20.0718 45.3957 20.1286 44.6326 20.3469C44.1842 20.4743 43.7498 20.6721 43.4267 20.9587C43.1065 21.2406 42.9143 21.6159 42.8864 22.0002C42.8558 22.2617 42.892 22.5323 43.009 22.7779C43.1427 23.069 43.385 23.3282 43.7024 23.5033C44.0227 23.6853 44.421 23.7808 44.8081 23.799C45.6547 23.8513 46.5403 23.5761 47.0639 23.0212C47.089 22.9939 47.1196 22.9757 47.1558 22.9576C47.1836 23.1963 47.2226 23.4374 47.2561 23.6762C47.6348 23.6784 48.0136 23.6762 48.3923 23.6762C48.3311 23.3237 48.3004 22.9644 48.3004 22.6028ZM47.0611 21.8251C47.0611 22.0661 46.9386 22.2799 46.7659 22.4686C46.5236 22.7324 46.1671 22.9234 45.7717 22.9985C45.4709 23.0531 45.1618 23.0644 44.8666 22.9871C44.6438 22.9257 44.4432 22.8097 44.3207 22.6437C44.162 22.4436 44.123 22.1912 44.1425 21.9592C44.1647 21.7318 44.2678 21.5135 44.46 21.3452C44.6744 21.1565 44.9473 21.0428 45.2453 20.9609C45.8329 20.8063 46.4456 20.7881 47.0583 20.7904C47.0639 21.136 47.0639 21.4817 47.0611 21.8251Z" fill="#6C6D6F"/>
<defs>
<linearGradient id="paint0_linear" x1="9.72089" y1="15.4765" x2="24.3643" y2="15.4765" gradientUnits="userSpaceOnUse">
<stop stop-color="#8F181B"/>
<stop offset="1" stop-color="#E11D25"/>
</linearGradient>
</defs>
</svg>
