<svg xmlns="http://www.w3.org/2000/svg" width="30" height="30" fill="none"><path d="M20 3.75H10A6.25 6.25 0 0 0 3.75 10v10A6.25 6.25 0 0 0 10 26.25h10A6.25 6.25 0 0 0 26.25 20V10A6.25 6.25 0 0 0 20 3.75Zm-5 17.5a6.252 6.252 0 1 1 .001-12.503A6.252 6.252 0 0 1 15 21.25Zm7.5-12.5a1.25 1.25 0 1 1 0-2.5 1.25 1.25 0 0 1 0 2.5Z" fill="url(#a)"/><path d="M15 11.25a3.75 3.75 0 1 0 0 7.5 3.75 3.75 0 0 0 0-7.5Z" fill="url(#b)"/><defs><linearGradient id="a" x1="15" y1="3.75" x2="15" y2="26.25" gradientUnits="userSpaceOnUse"><stop stop-color="#FFD88A"/><stop offset="1" stop-color="#E4AC45"/></linearGradient><linearGradient id="b" x1="15" y1="11.25" x2="15" y2="18.75" gradientUnits="userSpaceOnUse"><stop stop-color="#FFD88A"/><stop offset="1" stop-color="#E4AC45"/></linearGradient></defs></svg>