<svg xmlns="http://www.w3.org/2000/svg" width="30" height="30" fill="none"><path d="M23.75 3.75H6.25a2.5 2.5 0 0 0-2.5 2.5v17.5a2.5 2.5 0 0 0 2.5 2.5h9.526v-8.701h-2.928v-3.406h2.928v-2.507c0-2.905 1.776-4.488 4.369-4.488a25.09 25.09 0 0 1 2.615.13v3.038h-1.785c-1.413 0-1.688.668-1.688 1.653v2.168h3.376l-.44 3.407h-2.956v8.706h4.483a2.5 2.5 0 0 0 2.5-2.5V6.25a2.5 2.5 0 0 0-2.5-2.5Z" fill="url(#a)"/><defs><linearGradient id="a" x1="15" y1="3.75" x2="15" y2="26.25" gradientUnits="userSpaceOnUse"><stop stop-color="#FFD88A"/><stop offset="1" stop-color="#E4AC45"/></linearGradient></defs></svg>