<svg width="27" height="27" fill="none" xmlns="http://www.w3.org/2000/svg"><g clip-path="url(#a)"><mask id="b" style="mask-type:luminance" maskUnits="userSpaceOnUse" x="0" y="1" width="27" height="27"><path d="M.5 1.5h26v26H.5v-26Z" fill="#fff"/></mask><g mask="url(#b)"><path d="m23.49 9.52-6.792-.63L14 2.627a.544.544 0 0 0-1 0L10.304 8.89l-6.792.63a.544.544 0 0 0-.309.95l5.125 4.503-1.5 6.654a.544.544 0 0 0 .809.587L13.5 18.73l5.865 3.483a.545.545 0 0 0 .809-.587l-1.5-6.654L23.8 10.47a.545.545 0 0 0-.31-.951Z" fill="#F9A810"/><path d="M6.557 2.41c.346.481 1.324 2.546 1.882 3.75.088.189-.15.36-.301.216-.964-.911-2.613-2.493-2.96-2.974a.849.849 0 0 1 1.379-.992Zm13.886 0c-.346.481-1.324 2.546-1.882 3.75-.087.189.15.36.301.216.965-.911 2.613-2.493 2.96-2.974a.85.85 0 0 0-1.379-.992Zm5.471 14.102c-.563-.183-2.828-.487-4.145-.653-.206-.027-.297.252-.115.352 1.162.642 3.17 1.732 3.733 1.916a.85.85 0 1 0 .527-1.615Zm-24.828 0c.563-.183 2.828-.487 4.145-.653.206-.027.297.252.115.352-1.162.642-3.17 1.732-3.733 1.916a.85.85 0 1 1-.527-1.615Zm11.59 9.582c0-.593.414-2.84.665-4.143.039-.205.332-.205.37 0 .25 1.303.664 3.55.664 4.143a.85.85 0 1 1-1.698 0Z" fill="#F9A810"/><path d="m14.981 4.904-.98-2.278a.544.544 0 0 0-1 0L10.303 8.89l-6.792.63a.544.544 0 0 0-.309.95l5.125 4.503-1.5 6.654a.544.544 0 0 0 .809.587l.78-.463c1.28-8.284 4.877-14.365 6.565-16.847Z" fill="#FFBF48"/></g></g><defs><clipPath id="a"><path fill="#fff" transform="translate(.5 .5)" d="M0 0h26v26H0z"/></clipPath></defs></svg>