<svg xmlns="http://www.w3.org/2000/svg" width="30" height="30" fill="none"><path d="M23.75 3.75H6.25a2.5 2.5 0 0 0-2.5 2.5v17.5a2.5 2.5 0 0 0 2.5 2.5h17.5a2.5 2.5 0 0 0 2.5-2.5V6.25a2.5 2.5 0 0 0-2.5-2.5Zm-12.5 17.5H8.096V12.5h3.154v8.75ZM9.617 10.896c-.963 0-1.607-.642-1.607-1.5 0-.857.643-1.5 1.714-1.5.963 0 1.607.643 1.607 1.5 0 .858-.642 1.5-1.713 1.5ZM22.5 21.25h-3.052v-4.782c0-1.323-.814-1.628-1.12-1.628-.304 0-1.322.204-1.322 1.628v4.782h-3.154V12.5h3.154v1.221c.407-.712 1.22-1.221 2.747-1.221 1.526 0 2.747 1.221 2.747 3.968v4.782Z" fill="url(#a)"/><defs><linearGradient id="a" x1="15" y1="3.75" x2="15" y2="26.25" gradientUnits="userSpaceOnUse"><stop stop-color="#FFD88A"/><stop offset="1" stop-color="#E4AC45"/></linearGradient></defs></svg>