<svg width="60" height="40" viewBox="0 0 60 40" fill="none" xmlns="http://www.w3.org/2000/svg">
<path d="M9.95467 15.1513C6.95343 14.4764 3.9159 16.1233 3.16768 18.8304C2.41947 21.5375 4.24534 24.2773 7.24658 24.9522C10.2478 25.6271 13.2881 23.9802 14.0364 21.2731C14.7818 18.5685 12.9559 15.8261 9.95467 15.1513ZM11.0686 19.334C10.9877 19.8251 10.6861 20.0643 10.2841 20.1474C10.8341 20.4068 11.1161 20.8047 10.8481 21.4921C10.5158 22.3458 9.72853 22.4189 8.6788 22.2401L8.42474 23.1592L7.81053 23.0207L8.0618 22.1141C7.90266 22.0789 7.74074 22.0411 7.57322 22.0008L7.32196 22.9124L6.70775 22.7739L6.96181 21.8523C6.81942 21.8195 6.67146 21.7843 6.52349 21.749L5.72502 21.5702L6.02933 20.9356C6.02933 20.9356 6.48161 21.0439 6.47603 21.0363C6.64912 21.0741 6.72729 20.9734 6.758 20.9054L7.16003 19.4524C7.18236 19.4574 7.2047 19.4625 7.22424 19.4675C7.19912 19.4574 7.17678 19.4524 7.16003 19.4499L7.44759 18.4124C7.45597 18.294 7.4113 18.1454 7.16003 18.09C7.16841 18.085 6.71333 17.9893 6.71333 17.9893L6.87805 17.3975L7.72678 17.5889V17.5914C7.8552 17.6191 7.98642 17.6468 8.12043 17.6745L8.37169 16.7654L8.9859 16.9039L8.74022 17.7954C8.90494 17.8281 9.07245 17.8634 9.23158 17.9012L9.47727 17.0147L10.0915 17.1532L9.84021 18.0648C10.6135 18.299 11.1803 18.6617 11.0686 19.334ZM9.85416 19.324C9.68107 19.951 8.61179 19.6312 8.2656 19.5531L8.57271 18.4476C8.9161 18.5232 10.0356 18.6692 9.85416 19.324ZM9.66432 21.1094C9.47447 21.7969 8.19022 21.4267 7.77424 21.3335L8.11205 20.1122C8.52804 20.2053 9.86254 20.3917 9.66432 21.1094Z" fill="#F69531"/>
<path d="M19.4135 18.0579C19.8686 18.0579 20.2594 18.131 20.5889 18.2745C20.9211 18.4206 21.1947 18.617 21.4125 18.8638C21.6302 19.1106 21.7894 19.4002 21.8927 19.7326C21.996 20.065 22.049 20.4226 22.049 20.8078C22.049 21.3971 21.9289 21.9536 21.6888 22.4774C21.4487 23.0012 21.1193 23.457 20.7033 23.8473C20.2873 24.2351 19.796 24.5398 19.2292 24.7665C18.6625 24.9931 18.0483 25.1064 17.3866 25.1064C17.3001 25.1064 17.1521 25.1039 16.9399 25.1014C16.7277 25.0964 16.4848 25.0787 16.2112 25.0435C15.9376 25.0082 15.6445 24.9579 15.3402 24.8899C15.0331 24.8219 14.7427 24.7287 14.4691 24.6078L16.9232 15.3131L19.1203 15.0059L18.2437 18.3047C18.4308 18.2292 18.6206 18.1687 18.8104 18.1259C18.9919 18.0806 19.1957 18.0579 19.4135 18.0579ZM17.5709 23.5326C17.9031 23.5326 18.213 23.4595 18.5061 23.316C18.7993 23.1724 19.0533 22.976 19.2655 22.7343C19.4777 22.49 19.6452 22.2155 19.7681 21.9083C19.8909 21.6011 19.9523 21.2813 19.9523 20.9489C19.9523 20.5384 19.8769 20.2211 19.7262 19.9894C19.5754 19.7603 19.2962 19.6444 18.8886 19.6444C18.7546 19.6444 18.5843 19.6671 18.3721 19.7074C18.1599 19.7502 17.9673 19.8408 17.797 19.9768L16.8617 23.4797C16.9176 23.4897 16.9678 23.4973 17.0097 23.5049C17.0516 23.5124 17.0962 23.52 17.1437 23.525C17.1912 23.53 17.247 23.5326 17.314 23.5326C17.381 23.5326 17.4676 23.5326 17.5709 23.5326ZM24.3299 24.9251H22.2305L24.0033 18.199H26.1167L24.3299 24.9251ZM25.349 17.3805C25.0558 17.3805 24.7906 17.3025 24.5561 17.1438C24.3188 16.9877 24.2015 16.746 24.2015 16.4211C24.2015 16.2423 24.2406 16.0736 24.3216 15.9175C24.4025 15.7588 24.5086 15.6228 24.6398 15.507C24.7738 15.3937 24.9246 15.3005 25.1005 15.2325C25.2764 15.1645 25.4634 15.1318 25.6617 15.1318C25.9548 15.1318 26.2172 15.2098 26.4545 15.3685C26.6891 15.5271 26.8091 15.7689 26.8091 16.0912C26.8091 16.27 26.77 16.4387 26.6891 16.5974C26.6081 16.756 26.502 16.892 26.3708 17.0078C26.2396 17.1212 26.0832 17.2143 25.9101 17.2823C25.7342 17.3478 25.5472 17.3805 25.349 17.3805ZM26.5634 21.8176C26.4517 22.2533 26.3847 22.6663 26.3652 23.0591C26.3457 23.452 26.4127 23.7995 26.5634 24.1017C26.717 24.4039 26.971 24.6431 27.3284 24.8194C27.6885 24.9931 28.1939 25.0813 28.8444 25.0813C29.2966 25.0813 29.6903 25.0485 30.0225 24.9805C30.3548 24.9125 30.6591 24.832 30.9438 24.7388L30.7875 23.2807C30.5697 23.3487 30.3548 23.4016 30.1426 23.4394C29.9304 23.4772 29.7098 23.4973 29.4837 23.4973C29.2101 23.4973 29.0007 23.462 28.8527 23.3941C28.7048 23.3261 28.6043 23.2304 28.5484 23.107C28.4926 22.9836 28.4675 22.8375 28.4786 22.6663C28.487 22.495 28.5205 22.3137 28.5791 22.1173L29.2017 19.7653H31.5413L31.9657 18.2065H29.6121L30.151 16.2247L27.9538 16.5243L26.5634 21.8176ZM32.0494 23.3412C32.1667 23.6912 32.3593 23.9959 32.6245 24.2553C32.8898 24.5147 33.2248 24.7212 33.6296 24.8748C34.0344 25.0259 34.5314 25.1039 35.1177 25.1039C35.5616 25.1039 35.944 25.0662 36.2651 24.9956C36.5862 24.9226 36.8793 24.8395 37.1445 24.7463L36.9882 23.2253C36.79 23.3009 36.5638 23.3664 36.307 23.4167C36.0529 23.4671 35.7877 23.4923 35.5141 23.4923C34.9585 23.4923 34.5732 23.3588 34.3667 23.0893C34.1573 22.8199 34.054 22.4699 34.054 22.0342C34.054 21.3014 34.2606 20.7172 34.671 20.2815C35.0842 19.8484 35.6369 19.6293 36.3377 19.6293C36.6308 19.6293 36.8793 19.657 37.0831 19.7124C37.2869 19.7678 37.4824 19.8283 37.6722 19.8988L38.3953 18.4155C38.1217 18.2972 37.8174 18.2015 37.4796 18.1285C37.1445 18.0554 36.7649 18.0202 36.3377 18.0202C35.6565 18.0202 35.0395 18.131 34.4895 18.3526C33.9367 18.5742 33.4649 18.8764 33.0796 19.2591C32.6915 19.6444 32.3928 20.0901 32.1862 20.6039C31.9796 21.1151 31.8735 21.6615 31.8735 22.2407C31.8735 22.6235 31.9322 22.9911 32.0494 23.3412ZM41.1927 25.1039C40.693 25.1039 40.2575 25.0359 39.8889 24.8974C39.5204 24.7614 39.2161 24.5701 38.976 24.3233C38.7359 24.0765 38.5544 23.7844 38.4288 23.4469C38.306 23.1095 38.2445 22.7368 38.2445 22.3288C38.2445 21.8176 38.3367 21.3039 38.5209 20.7927C38.7052 20.2815 38.976 19.8207 39.3361 19.4127C39.6935 19.0023 40.1346 18.6674 40.6539 18.408C41.1732 18.1486 41.7679 18.0177 42.4379 18.0177C42.9293 18.0177 43.362 18.0856 43.7361 18.2216C44.1074 18.3576 44.4145 18.5515 44.6574 18.7983C44.8975 19.0451 45.079 19.3372 45.2018 19.6746C45.3247 20.0096 45.3861 20.3848 45.3861 20.7927C45.3861 21.3039 45.2968 21.8151 45.1181 22.3288C44.9394 22.8375 44.6742 23.2984 44.3252 23.7088C43.9762 24.1168 43.5379 24.4517 43.013 24.7111C42.4909 24.9755 41.8823 25.1039 41.1927 25.1039ZM42.2425 19.6318C41.9326 19.6318 41.6562 19.7124 41.4217 19.8736C41.1844 20.0373 40.9861 20.2412 40.827 20.488C40.6651 20.7348 40.545 21.0068 40.4641 21.2989C40.3831 21.5935 40.344 21.873 40.344 22.1375C40.344 22.563 40.4194 22.8954 40.5701 23.1347C40.7209 23.3714 40.9945 23.4923 41.3937 23.4923C41.7064 23.4923 41.98 23.4117 42.2173 23.248C42.4519 23.0868 42.6501 22.8829 42.812 22.6336C42.9739 22.3868 43.094 22.1148 43.1749 21.8202C43.2531 21.5255 43.295 21.246 43.295 20.9841C43.295 20.5585 43.2196 20.2261 43.0661 19.9869C42.9125 19.7527 42.6389 19.6318 42.2425 19.6318ZM47.6754 24.9251H45.5759L47.3488 18.199H49.4622L47.6754 24.9251ZM48.6944 17.3805C48.4013 17.3805 48.1361 17.3025 47.9015 17.1438C47.6642 16.9877 47.547 16.746 47.547 16.4211C47.547 16.2423 47.5889 16.0736 47.667 15.9175C47.748 15.7588 47.8541 15.6228 47.9853 15.507C48.1165 15.3937 48.2729 15.3005 48.446 15.2325C48.6191 15.1645 48.8061 15.1318 49.0043 15.1318C49.2975 15.1318 49.5627 15.2098 49.8 15.3685C50.0345 15.5271 50.1546 15.7689 50.1546 16.0912C50.1546 16.27 50.1127 16.4387 50.0317 16.5974C49.9536 16.756 49.8447 16.892 49.7135 17.0078C49.5795 17.1212 49.4287 17.2143 49.2528 17.2823C49.0797 17.3478 48.8955 17.3805 48.6944 17.3805ZM49.2556 24.9251H51.369L52.7454 19.72C53.0302 19.6696 53.3094 19.6419 53.5802 19.6419C53.8649 19.6419 54.0715 19.6898 54.2111 19.788C54.3479 19.8862 54.4345 20.0146 54.4736 20.1732C54.5127 20.3319 54.5155 20.5157 54.4819 20.7222C54.4484 20.9312 54.4038 21.1478 54.3479 21.3694L53.4127 24.9251H55.5233L56.4893 21.2939C56.7629 20.2891 56.6903 19.4958 56.2687 18.9167C55.8472 18.3375 55.085 18.0454 53.9794 18.0454C53.6025 18.0454 53.2647 18.0605 52.966 18.0907C52.6672 18.1209 52.3992 18.1587 52.1591 18.2065C51.9162 18.2518 51.7013 18.3047 51.5058 18.3601C51.3132 18.4155 51.1345 18.4659 50.9754 18.5087L49.2556 24.9251Z" fill="#4E4E4E"/>
</svg>
