<svg width="226" height="64" fill="none" xmlns="http://www.w3.org/2000/svg"><path d="M99.443 42.333C94.5 42.778 90.4 43 87.14 43c-2.173 0-3.769-.511-4.789-1.533-1.02-1.023-1.53-2.623-1.53-4.8V26c0-2.333.522-4.022 1.564-5.067 1.064-1.066 2.76-1.6 5.087-1.6h11.971V24h-10.64c-1.33 0-1.996.667-1.996 2v10.667c0 .51.144.922.433 1.233.31.289.698.433 1.163.433h1.53l1.73-.066 1.795-.067c.62-.022 1.407-.067 2.36-.133a561.41 561.41 0 0 1 3.625-.234v4.5Zm9.315-4c1.175 0 2.505-.222 3.99-.666v-2h-4.821a1.134 1.134 0 0 0-1.164 1.167v.333a1.134 1.134 0 0 0 1.164 1.166h.831Zm-6.152-13c4.057-.444 7.715-.666 10.974-.666 1.507 0 2.715.455 3.624 1.366.909.911 1.364 2.123 1.364 3.634v13h-5.155L113.081 41a12.214 12.214 0 0 1-3.226 1.533c-1.086.311-2.006.467-2.76.467h-1.163c-1.508 0-2.716-.456-3.625-1.367-.909-.91-1.363-2.122-1.363-3.633v-1.5c0-1.511.454-2.722 1.363-3.633s2.117-1.367 3.625-1.367h6.816v-1.333c0-.334-.11-.611-.332-.834a1.127 1.127 0 0 0-.831-.333c-1.441 0-3.038.067-4.789.2-1.729.133-3.126.233-4.19.3v-4.167ZM120.886 38c4.501.333 8.048.5 10.641.5a1.134 1.134 0 0 0 1.164-1.167v-1.166h-7.149c-1.508 0-2.716-.456-3.625-1.367-.909-.911-1.363-2.122-1.363-3.633V30c0-1.511.454-2.722 1.363-3.633S124.034 25 125.542 25h11.306v4.333h-9.311c-.333 0-.61.111-.831.334a1.13 1.13 0 0 0-.333.833c0 .333.111.611.333.833.221.223.498.334.831.334h5.985c1.508 0 2.716.455 3.625 1.366.909.911 1.363 2.123 1.363 3.634V38c0 1.511-.454 2.722-1.363 3.633S135.03 43 133.522 43c-3.923 0-8.135-.222-12.636-.667V38Zm26.946-12.333v17h-5.82v-12.5h-2.494v-4.5h8.314ZM142.012 19h5.82v4.667h-5.82V19Zm18.965 10.5c-1.175 0-2.505.222-3.99.667v12.5h-5.82V25h5.155l.332 1.667c1.042-.69 2.106-1.19 3.192-1.5 1.109-.334 2.04-.5 2.794-.5h1.496c1.507 0 2.716.455 3.625 1.366.909.911 1.363 2.123 1.363 3.634v13h-5.819v-12c0-.334-.111-.611-.333-.834a1.127 1.127 0 0 0-.831-.333h-1.164Zm29.092 8.167c0 1.666-.476 2.977-1.429 3.933-.931.933-2.228 1.4-3.891 1.4h-7.648c-1.663 0-2.971-.467-3.924-1.4-.931-.956-1.397-2.267-1.397-3.933V30c0-1.667.466-2.967 1.397-3.9.953-.956 2.261-1.433 3.924-1.433h7.648c1.663 0 2.96.477 3.891 1.433.953.933 1.429 2.233 1.429 3.9v7.667ZM184.25 30.5c0-.889-.443-1.333-1.33-1.333h-3.99c-.887 0-1.33.444-1.33 1.333v6.667c0 .889.443 1.333 1.33 1.333h3.99c.887 0 1.33-.444 1.33-1.333V30.5Zm12.632 12.167V24.5l-3.824 1.333L191.396 22l6.152-2.667h5.32v23.334h-5.986Zm22.954-17c0-1.334-.665-2-1.995-2h-3.658c-1.33 0-1.995.666-1.995 2v10.666c0 1.334.665 2 1.995 2h3.658c1.33 0 1.995-.666 1.995-2V25.667Zm5.986 10.666c0 2.334-.532 4.034-1.596 5.1-1.042 1.045-2.727 1.567-5.055 1.567h-6.318c-2.328 0-4.024-.522-5.088-1.567-1.042-1.066-1.563-2.766-1.563-5.1V25.667c0-2.334.521-4.023 1.563-5.067 1.064-1.067 2.76-1.6 5.088-1.6h6.318c2.328 0 4.013.533 5.055 1.6 1.064 1.044 1.596 2.733 1.596 5.067v10.666ZM63.891 30.459c0-.075-.012-.163-.012-.238 0-.05 0-.1-.013-.15a12.142 12.142 0 0 0-.075-.949l-.112-1.087c-.013-.125-.038-.262-.05-.387-.013-.125-.037-.262-.05-.387-.038-.275-.087-.538-.125-.813-.025-.112-.037-.237-.062-.35l-.075-.387c-.025-.125-.05-.25-.075-.387-.05-.237-.1-.475-.162-.712-.038-.137-.063-.275-.1-.4a32.53 32.53 0 0 0-.787-2.66c-.037-.126-.087-.25-.125-.376-.125-.35-.262-.712-.4-1.062-.05-.125-.1-.237-.15-.362-.037-.1-.087-.2-.124-.312-.05-.113-.1-.225-.15-.35-.05-.1-.087-.2-.137-.3a4.446 4.446 0 0 0-.113-.237c-.012-.025-.025-.063-.037-.088a1.558 1.558 0 0 0-.125-.25c-.087-.2-.187-.387-.287-.587-.063-.112-.113-.225-.175-.337-.137-.262-.275-.512-.412-.775-.037-.062-.075-.137-.112-.2-.025-.05-.063-.112-.088-.162-.037-.075-.087-.15-.125-.225-.062-.112-.137-.237-.2-.35-.237-.4-.486-.8-.748-1.187-.138-.2-.263-.4-.4-.6-.087-.137-.187-.262-.275-.387a5.342 5.342 0 0 0-.237-.324c-.038-.05-.063-.1-.1-.138-.125-.175-.262-.35-.387-.512a21.839 21.839 0 0 0-.5-.625c-.037-.05-.087-.1-.124-.15a31.496 31.496 0 0 0-1.199-1.374c-.062-.062-.112-.125-.175-.187l-.012-.013c-.088-.087-.163-.175-.25-.262l-.412-.412c-.1-.1-.2-.2-.3-.288-.062-.062-.124-.112-.175-.175-.087-.087-.187-.175-.274-.262-.113-.1-.225-.212-.337-.312l-.375-.338c-.137-.112-.262-.237-.4-.35l-.262-.224c-.1-.088-.212-.175-.312-.263a5.465 5.465 0 0 0-.312-.25 3.747 3.747 0 0 1-.262-.212 4.068 4.068 0 0 0-.275-.212c-.062-.05-.125-.088-.175-.138-.075-.05-.15-.112-.224-.162a95.36 95.36 0 0 0-.113-.075c-.075-.05-.137-.1-.212-.15-.125-.088-.237-.175-.362-.25-.225-.15-.437-.3-.662-.45a6.737 6.737 0 0 0-.387-.25c-.112-.075-.237-.15-.35-.225-.024-.025-.062-.037-.1-.062-.1-.062-.187-.112-.287-.175l-.112-.075c-.125-.075-.237-.137-.362-.212-.137-.075-.262-.15-.4-.225-.062-.038-.125-.063-.187-.1-.35-.188-.7-.375-1.061-.562-.088-.038-.175-.088-.25-.125-.087-.038-.175-.088-.25-.125-.087-.038-.175-.088-.262-.125-.087-.038-.175-.088-.262-.125-.475-.212-.95-.412-1.423-.612-.125-.05-.238-.1-.363-.138-.125-.05-.237-.087-.362-.137-.087-.038-.187-.063-.274-.1-.163-.062-.325-.112-.5-.175-.112-.037-.212-.075-.325-.112a31.024 31.024 0 0 0-2.122-.625c-.1-.025-.187-.05-.287-.075-.113-.025-.213-.05-.325-.075-.087-.025-.187-.037-.275-.062l-.374-.075a1.887 1.887 0 0 0-.262-.05 5.965 5.965 0 0 0-.2-.038A27.638 27.638 0 0 0 36.185.3L35.91.262c-.3-.037-.6-.062-.887-.1a2.628 2.628 0 0 0-.312-.025C34.45.112 34.174.1 33.9.087c-.063 0-.125-.012-.188-.012-.062 0-.125 0-.187-.013h-.075C33.3.05 33.15.05 33.013.05h-.062c-.15 0-.3-.013-.45-.013h-.462c-.624 0-1.248.013-1.873.05a31.474 31.474 0 0 0-12.598 3.399c-.113.062-.225.112-.325.175l-.974.524a38.97 38.97 0 0 0-1.935 1.187c-.312.2-.612.412-.912.637-1.473.975-2.809 2.112-4.057 3.361a31.577 31.577 0 0 0-3.509 4.16c-.225.325-.45.65-.662.975a31.126 31.126 0 0 0-1.86 3.248C1.398 21.613.287 25.836.05 30.234c-.025.587-.05 1.162-.05 1.749 0 .662.025 1.337.062 1.999l.075 1.012a32.05 32.05 0 0 0 2.747 10.32c.175.374.35.75.537 1.111a33.574 33.574 0 0 0 1.886 3.236 32.945 32.945 0 0 0 4.045 4.935 32.827 32.827 0 0 0 5.094 4.16 33.61 33.61 0 0 0 3.247 1.874c.312.163.636.313.949.45a31.66 31.66 0 0 0 10.363 2.749c.375.037.762.062 1.149.087.6.038 1.186.05 1.798.05h.6c.099 0 .211 0 .311-.012h.163c.137 0 .262-.013.4-.013.149 0 .286-.012.424-.025h.062c.15-.012.287-.012.437-.025.262-.025.525-.037.787-.062.137-.013.274-.025.412-.05.137-.013.274-.025.412-.05a3.07 3.07 0 0 0 .35-.05c.074-.013.162-.025.237-.038.062-.012.112-.012.162-.025.125-.012.25-.037.362-.062.087-.013.187-.025.275-.05.062-.013.137-.025.212-.038h.038c.074-.012.137-.025.212-.037.025 0 .05-.013.075-.013.075-.012.137-.025.212-.037.012 0 .025 0 .05-.013a.73.73 0 0 1 .162-.025c.113-.025.212-.037.312-.062.325-.063.662-.15.987-.225.112-.025.224-.05.337-.087.062-.013.137-.038.2-.05l.262-.075c.1-.025.212-.063.312-.088.087-.025.187-.05.275-.075.175-.05.362-.1.537-.162.112-.038.237-.075.35-.113.124-.037.249-.087.386-.125.063-.025.125-.037.188-.062.062-.025.124-.038.187-.063.125-.05.25-.087.374-.137.125-.05.25-.087.375-.137l.375-.15.374-.15.375-.15c.012 0 .012 0 .025-.013.15-.062.3-.125.45-.2H45c.15-.062.3-.137.437-.2.3-.137.6-.287.899-.437.137-.075.274-.137.412-.212.112-.063.212-.113.324-.175.313-.162.625-.337.937-.525l.374-.224c.288-.175.575-.35.862-.538l.337-.225c.3-.2.587-.4.874-.6.187-.124.362-.262.537-.387.175-.125.35-.262.524-.4l.213-.162c.1-.087.212-.162.312-.25.087-.075.175-.137.262-.212.1-.087.2-.163.3-.25a32.42 32.42 0 0 0 1.935-1.787c.15-.15.287-.3.437-.437.087-.087.175-.175.25-.262l.487-.525c.15-.175.3-.337.45-.512.012-.013.024-.038.05-.05.087-.1.174-.2.261-.312.138-.163.263-.313.388-.475l.162-.2c.075-.1.15-.187.225-.287.075-.1.15-.188.224-.288.125-.162.25-.324.362-.487.063-.087.125-.175.188-.25l.012-.012c.125-.188.262-.375.387-.563.088-.124.163-.25.25-.362l.013-.012.012-.013.15-.225c.012-.025.037-.05.05-.087.1-.15.2-.313.3-.475.087-.137.162-.262.237-.4a1.14 1.14 0 0 1 .1-.162c.05-.075.1-.163.137-.238.237-.412.462-.824.674-1.236.075-.138.137-.275.212-.413.113-.212.213-.424.313-.65.087-.174.162-.35.25-.524.05-.1.087-.187.124-.287.05-.113.1-.225.15-.35.225-.512.425-1.037.612-1.562.037-.087.062-.187.1-.275.124-.35.237-.687.35-1.037.037-.112.074-.237.112-.35.037-.112.062-.224.1-.324.037-.15.087-.3.124-.45 0-.025.013-.05.013-.063.037-.124.062-.25.1-.374.012-.025.012-.063.025-.1l.075-.3c.012-.063.037-.138.05-.2.137-.6.262-1.2.374-1.811.013-.088.038-.188.05-.275.013-.075.025-.15.038-.238.024-.125.037-.262.062-.387s.037-.262.05-.387l.075-.563.037-.312.038-.412c.012-.063.012-.138.025-.2 0-.063.012-.137.012-.2.013-.125.013-.237.025-.362 0-.05.013-.1.013-.163 0-.1.012-.2.012-.3.013-.15.013-.3.025-.462.013-.3.025-.612.025-.912v-.5c.013-.574 0-1.074-.025-1.561Zm-31.89 20.626c-11.012 0-19.927-8.932-19.927-19.939s8.928-19.952 19.928-19.952 19.927 8.933 19.927 19.94c0 11.006-8.915 19.951-19.927 19.951Z" fill="#FFB600"/><path d="M63.979 30.484c0-.075-.013-.163-.013-.238 0-.05 0-.1-.012-.137-.025-.325-.038-.637-.075-.95l-.113-1.086c-.012-.125-.037-.263-.05-.388-.012-.125-.037-.262-.05-.387-.037-.275-.087-.537-.124-.812-.025-.113-.038-.237-.063-.35l-.075-.387-.075-.387c-.05-.238-.1-.475-.162-.713-.037-.137-.062-.274-.1-.4a34.802 34.802 0 0 0-.786-2.673c-.038-.125-.088-.25-.125-.375a36.68 36.68 0 0 0-.4-1.062c-.05-.125-.1-.237-.15-.362-.037-.1-.087-.2-.125-.312-.05-.113-.1-.225-.15-.35-.05-.1-.087-.2-.137-.3-.037-.075-.075-.162-.112-.237-.013-.025-.025-.063-.038-.088a2.495 2.495 0 0 0-.124-.262c-.088-.2-.188-.388-.288-.587-.062-.113-.112-.225-.174-.338-.138-.262-.275-.512-.413-.774-.037-.063-.074-.138-.112-.2-.075-.138-.15-.262-.225-.4-.062-.112-.137-.225-.2-.35-.237-.4-.486-.8-.748-1.187l-8.266 4.785a22.514 22.514 0 0 0-5.632-5.622l4.77-8.283c-.125-.087-.262-.162-.387-.25-.112-.075-.237-.15-.35-.225-.025-.025-.062-.037-.1-.062-.137-.087-.274-.162-.399-.25-.125-.075-.237-.137-.362-.212-.137-.075-.262-.15-.4-.225-.062-.038-.124-.063-.187-.1-.35-.188-.7-.375-1.061-.562-.088-.05-.175-.088-.25-.125-.087-.038-.175-.088-.25-.125a5.226 5.226 0 0 0-.262-.125c-.087-.038-.175-.075-.262-.125a34.804 34.804 0 0 0-1.424-.612c-.124-.05-.237-.1-.362-.138-.124-.05-.237-.087-.362-.137-.087-.038-.187-.063-.274-.1-.163-.062-.325-.112-.5-.175-.112-.037-.212-.075-.324-.112a31.74 31.74 0 0 0-2.123-.625c-.1-.025-.187-.05-.287-.075-.113-.025-.213-.05-.325-.075-.087-.025-.187-.037-.275-.062L38.732.7a1.937 1.937 0 0 0-.262-.05 6.156 6.156 0 0 0-.2-.038 27.642 27.642 0 0 0-2.035-.337L35.96.237c-.3-.037-.6-.062-.887-.1a2.626 2.626 0 0 0-.312-.025 16.65 16.65 0 0 0-.811-.05c-.063 0-.125-.012-.188-.012-.062 0-.124-.013-.187-.013-.187-.012-.387-.012-.574-.025-.075 0-.15 0-.225-.012h-.687c-.624 0-1.248.012-1.873.05v9.532a22.116 22.116 0 0 0-7.79 2.112l-4.808-8.258c-.112.062-.225.112-.325.175a38.172 38.172 0 0 0-2.91 1.724c-.311.212-.61.412-.91.637A32.942 32.942 0 0 0 9.489 9.37a32.409 32.409 0 0 0-3.508 4.16c-.225.325-.45.65-.662.975a31.116 31.116 0 0 0-1.86 3.248l8.29 4.748a22.416 22.416 0 0 0-2.035 7.695l-9.589.063c-.038.587-.05 1.162-.05 1.749 0 .675.025 1.337.062 1.999l.075 1.012a31.733 31.733 0 0 0 2.747 10.32c.175.374.35.749.537 1.111a33.573 33.573 0 0 0 1.886 3.236l8.253-4.81a22.721 22.721 0 0 0 5.644 5.61L14.52 58.78a33.62 33.62 0 0 0 3.247 1.874c.312.163.636.313.949.45a31.66 31.66 0 0 0 10.363 2.749c.387.037.762.062 1.149.087.6.037 1.198.05 1.798.05h.6c.099 0 .211 0 .311-.013h.163c.137 0 .262-.012.4-.012.137 0 .286-.013.424-.025h.062l-.025-9.545a22.358 22.358 0 0 0 7.68-2.074l4.806 8.27c.138-.074.275-.137.412-.212.113-.062.212-.112.325-.175.312-.162.624-.337.936-.524l.375-.225c.287-.175.574-.35.861-.537l.338-.225c.3-.2.586-.4.874-.6.187-.125.362-.262.536-.387.175-.138.35-.263.525-.4l.212-.162c.1-.088.212-.163.312-.25.088-.075.175-.138.262-.213.1-.087.2-.162.3-.25a32.451 32.451 0 0 0 1.936-1.786c.15-.15.287-.3.437-.437.087-.088.174-.175.25-.263l.486-.524c.15-.175.3-.338.45-.513.012-.012.025-.037.05-.05.087-.1.174-.2.262-.312.137-.162.262-.312.387-.475l.162-.2c.075-.1.15-.187.225-.287.075-.1.15-.187.225-.287.125-.163.25-.325.362-.488a4.93 4.93 0 0 1 .187-.25l.013-.012c.124-.187.262-.375.387-.562.087-.125.162-.25.25-.362l.012-.013.012-.012.15-.225c.013-.025.038-.05.05-.088.1-.15.2-.312.3-.474.075-.138.162-.263.237-.4.075-.138.162-.263.237-.4.238-.412.462-.825.675-1.237.075-.137.137-.275.212-.412l-8.278-4.76a22.434 22.434 0 0 0 2.047-7.696l9.527-.012c.013-.15.013-.3.025-.463.013-.3.025-.612.025-.912v-.462l-.037-1.574Zm-31.94 20.252c-10.313 0-18.716-8.396-18.716-18.728s8.403-18.715 18.716-18.715c10.314 0 18.717 8.396 18.717 18.715 0 10.32-8.39 18.728-18.717 18.728Z" fill="#C80"/><path d="M26.77 41.965h-5.369V26.761h-2.148v-4.673h7.517v19.877Zm18.067-9.807c0 3.11-.611 5.572-1.848 7.408-1.236 1.825-2.896 2.736-4.981 2.736-2.26 0-4.02-.924-5.294-2.76-1.274-1.837-1.898-4.398-1.898-7.696 0-3.111.636-5.573 1.898-7.384 1.273-1.824 2.996-2.724 5.169-2.724 2.185 0 3.895.925 5.119 2.762 1.224 1.836 1.835 4.397 1.835 7.658Zm-5.294-.05c0-3.835-.574-5.747-1.735-5.747-1.149 0-1.723 1.712-1.723 5.147 0 4.098.562 6.147 1.685 6.147.612 0 1.062-.45 1.349-1.35.275-.886.424-2.286.424-4.197Z" fill="#FFB600"/></svg>