<svg width="512" height="512" viewBox="0 0 512 512" fill="none" xmlns="http://www.w3.org/2000/svg">
<path d="M256 512C188.105 512 122.99 485.029 74.9807 437.019C26.9713 389.01 -1.88872e-06 323.895 0 256C1.88872e-06 188.105 26.9714 122.99 74.9807 74.9807C122.99 26.9713 188.105 -8.09645e-07 256 0L256 256L256 512Z" fill="#F0F0F0"/>
<path d="M256 512C323.895 512 389.01 485.029 437.019 437.019C485.029 389.01 512 323.895 512 256C512 188.105 485.029 122.99 437.019 74.9807C389.01 26.9713 323.895 -8.09645e-07 256 0L256 256L256 512Z" fill="#0052B4"/>
<path d="M256 512C222.382 512 189.092 505.378 158.033 492.513C126.974 479.648 98.7524 460.791 74.9807 437.019C51.2089 413.248 32.352 385.026 19.4868 353.967C6.62163 322.908 -2.93901e-06 289.618 0 256L256 256L256 512Z" fill="#D80027"/>
<path d="M265.394 100.449L255.5 70V130.896L281.401 149.715L271.507 119.266L297.408 100.449H265.394Z" fill="#FFDA44"/>
<path d="M281.401 362.288L255.5 381.105V442.001L265.393 411.552H297.408L271.507 392.734L281.401 362.288Z" fill="#FFDA44"/>
<path d="M387.023 387.524L358.496 372.99L335.857 395.628L340.867 364.006L312.343 349.472L343.962 344.464L348.971 312.843L363.505 341.37L395.124 336.359L372.487 358.998L387.023 387.524Z" fill="#FFDA44"/>
<path d="M441.5 256.001L411.051 265.895V297.909L392.233 272.007L361.787 281.901L380.605 256.001L361.787 230.1L392.235 239.994L411.051 214.092V246.108L441.5 256.001Z" fill="#FFDA44"/>
<path d="M387.023 124.476L372.488 153.004L395.125 175.642L363.503 170.631L348.971 199.158L343.962 167.537L312.343 162.527L340.867 147.993L335.857 116.375L358.497 139.011L387.023 124.476Z" fill="#FFDA44"/>
</svg>
