<svg xmlns="http://www.w3.org/2000/svg" width="14" height="14" fill="none"><path d="M6.078 4.307a.286.286 0 0 1-.202-.49L8.75.941a.574.574 0 0 1 .812 0l2.874 2.873c.18.18.052.49-.203.49h-1.46v3.735a.574.574 0 0 1-.574.574H8.115a.574.574 0 0 1-.574-.574V4.307H6.078ZM1.766 9.693a.286.286 0 0 0-.202.49l2.874 2.874a.574.574 0 0 0 .812 0l2.874-2.874a.287.287 0 0 0-.203-.49h-1.46V5.958a.574.574 0 0 0-.574-.574H3.803a.574.574 0 0 0-.574.574v3.735H1.766Z" fill="url(#a)"/><defs><linearGradient id="a" x1="12.165" y1="6.283" x2="1.479" y2="6.344" gradientUnits="userSpaceOnUse"><stop stop-color="#DB940A"/><stop offset=".491" stop-color="#FFCA47"/><stop offset="1" stop-color="#DB940A"/></linearGradient></defs></svg>