<svg width="45" height="30" viewBox="0 0 45 30" fill="none" xmlns="http://www.w3.org/2000/svg">
<g clip-path="url(#clip0_1518_453)">
<mask id="mask0_1518_453" style="mask-type:luminance" maskUnits="userSpaceOnUse" x="2" y="11" width="8" height="8">
<path d="M9.66831 11H2.05859V18.9517H9.66831V11Z" fill="white"/>
</mask>
<g mask="url(#mask0_1518_453)">
<path d="M9.66831 11H2.05859V18.9517H9.66831V11Z" fill="#EE3243"/>
</g>
<mask id="mask1_1518_453" style="mask-type:luminance" maskUnits="userSpaceOnUse" x="2" y="11" width="8" height="8">
<path d="M9.66831 11H2.05859V18.9517H9.66831V11Z" fill="white"/>
</mask>
<g mask="url(#mask1_1518_453)">
<path d="M6.96484 17.8492L10.3745 17.8448V14.5059L6.96484 11.5977" fill="#F5821F"/>
</g>
<mask id="mask2_1518_453" style="mask-type:luminance" maskUnits="userSpaceOnUse" x="2" y="11" width="8" height="8">
<path d="M9.66831 11H2.05859V18.9517H9.66831V11Z" fill="white"/>
</mask>
<g mask="url(#mask2_1518_453)">
<path d="M4.78743 12.8673V13.7767L2 15.0419V17.8184L5.12797 17.8228V17.7921L6.96944 17.7964L6.96524 11.5977C6.35982 12.3006 5.65771 12.7267 4.78743 12.8673Z" fill="white"/>
</g>
<path d="M4.79107 15.5075L2.0625 16.7552V15.8898L4.79107 14.6377" fill="#F5821F"/>
<path d="M4.79107 18.4862L2.0625 18.4906V17.6251L4.79107 16.373" fill="#F5821F"/>
<path d="M5.65739 14.2424L4.78711 14.6422V13.7723L5.65739 13.377" fill="#F5821F"/>
<mask id="mask3_1518_453" style="mask-type:luminance" maskUnits="userSpaceOnUse" x="2" y="11" width="8" height="8">
<path d="M9.66831 11H2.05859V18.9517H9.66831V11Z" fill="white"/>
</mask>
<g mask="url(#mask3_1518_453)">
<path d="M5.65709 15.9773L4.79102 16.3727V15.5072L5.65709 15.1074" fill="#F5821F"/>
</g>
<mask id="mask4_1518_453" style="mask-type:luminance" maskUnits="userSpaceOnUse" x="2" y="11" width="8" height="8">
<path d="M9.66831 11H2.05859V18.9517H9.66831V11Z" fill="white"/>
</mask>
<g mask="url(#mask4_1518_453)">
<path d="M9.66411 17.625H2.05859V18.9517H9.66411V17.625Z" fill="#005087"/>
</g>
<path d="M17.1649 15.6256L16.8748 17.273C16.5049 17.4444 15.9751 17.5718 15.4916 17.5718C14.6382 17.5718 14.285 17.1984 14.3943 16.5921C14.5036 15.9683 15.0796 15.63 15.7775 15.6388C16.0508 15.6388 16.282 15.6783 16.4712 15.753L16.5007 15.5817C16.5637 15.217 16.3703 15.0018 15.9079 15.0018C15.5589 15.0018 15.2436 15.1423 15.0586 15.2697C14.903 15.1819 14.8189 15.0149 14.8232 14.8041C15.025 14.6327 15.5084 14.3779 16.0676 14.3779C16.8244 14.3823 17.3205 14.7382 17.1649 15.6256ZM15.6472 17.0182C15.8658 17.0182 16.0718 16.9787 16.261 16.9216L16.3745 16.2714C16.2022 16.1879 15.9835 16.1528 15.7397 16.1528C15.3991 16.1528 15.1469 16.2714 15.0964 16.5613C15.046 16.8337 15.2226 17.0182 15.6472 17.0182Z" fill="#424549"/>
<path d="M20.4996 15.9819C20.672 15.0154 21.4413 14.374 22.3116 14.374C22.7447 14.374 23.0768 14.5541 23.2239 14.7167C23.1399 14.9188 22.9633 15.1165 22.7615 15.2307C22.6395 15.1033 22.4672 14.9935 22.2065 14.9935C21.6389 14.9935 21.2942 15.446 21.2017 15.9731C21.1092 16.4871 21.29 16.944 21.8702 16.944C22.2107 16.944 22.4125 16.7991 22.5555 16.6892C22.7152 16.7859 22.8119 16.9572 22.8329 17.1813C22.6101 17.3702 22.2107 17.5679 21.7524 17.5679C20.8317 17.5723 20.323 16.988 20.4996 15.9819Z" fill="#424549"/>
<path d="M23.0259 15.9775C23.1899 15.0418 23.9592 14.374 24.8463 14.374C25.7334 14.374 26.2464 15.033 26.0782 15.9775C25.9142 16.9045 25.1448 17.5723 24.2577 17.5723C23.3706 17.5723 22.8577 16.9177 23.0259 15.9775ZM25.3845 15.9775C25.4854 15.3976 25.2415 14.9979 24.7244 14.9979C24.2073 14.9979 23.8205 15.3976 23.7196 15.9775C23.6187 16.5487 23.8667 16.944 24.3839 16.944C24.8968 16.944 25.2836 16.5487 25.3845 15.9775Z" fill="#424549"/>
<path d="M28.9824 17.1988C29.0791 16.9704 29.2221 16.7991 29.386 16.7024C29.5374 16.8342 29.7644 17.0012 30.2227 17.0012C30.6305 17.0012 30.8029 16.843 30.8407 16.6365C30.8785 16.4344 30.7314 16.3202 30.2311 16.2367C29.735 16.1533 29.2809 15.9556 29.3944 15.323C29.4911 14.7606 30.0419 14.3828 30.7692 14.3828C31.2906 14.3828 31.6353 14.5366 31.7993 14.6772C31.7278 14.9012 31.6059 15.0769 31.4461 15.1912C31.2653 15.0682 30.9879 14.9627 30.6389 14.9627C30.2731 14.9627 30.0923 15.0813 30.0587 15.2746C30.0251 15.4723 30.1344 15.569 30.6137 15.6481C31.2233 15.7491 31.6395 15.9731 31.5344 16.5706C31.4251 17.1988 30.8954 17.5811 30.1008 17.5811C29.4659 17.5767 29.1212 17.3438 28.9824 17.1988Z" fill="#424549"/>
<path d="M36.5851 15.6256L36.2951 17.273C35.9251 17.4444 35.3953 17.5718 34.9076 17.5718C34.0542 17.5718 33.701 17.1984 33.8103 16.5921C33.9196 15.9683 34.4956 15.63 35.1977 15.6388C35.471 15.6388 35.7023 15.6783 35.8872 15.753L35.9167 15.5817C35.9797 15.217 35.7863 15.0018 35.3239 15.0018C34.9791 15.0018 34.6596 15.1423 34.4746 15.2697C34.319 15.1819 34.235 15.0149 34.2392 14.8041C34.441 14.6327 34.9245 14.3779 35.4836 14.3779C36.2488 14.3823 36.7449 14.7382 36.5851 15.6256ZM35.0674 17.0182C35.286 17.0182 35.492 16.9787 35.6812 16.9216L35.7947 16.2714C35.6224 16.1879 35.4037 16.1528 35.1599 16.1528C34.8194 16.1528 34.5671 16.2714 34.5167 16.5613C34.4704 16.8337 34.6428 17.0182 35.0674 17.0182Z" fill="#424549"/>
<path d="M39.9146 15.9775C40.0785 15.0418 40.8479 14.374 41.735 14.374C42.6221 14.374 43.135 15.033 42.9669 15.9775C42.8029 16.9045 42.0335 17.5723 41.1464 17.5723C40.2593 17.5723 39.7464 16.9177 39.9146 15.9775ZM42.2732 15.9775C42.3741 15.3976 42.1302 14.9979 41.6131 14.9979C41.096 14.9979 40.7092 15.3976 40.6083 15.9775C40.5074 16.5487 40.7554 16.944 41.2725 16.944C41.7897 16.944 42.1723 16.5487 42.2732 15.9775Z" fill="#424549"/>
<path d="M39.3423 13.5878L39.1826 14.484C39.0354 14.4225 38.8588 14.3874 38.615 14.3874C37.7489 14.3874 36.9375 15.0024 36.7609 15.9953C36.5801 17.0145 37.1267 17.5725 38.0768 17.5725C38.5435 17.5725 39.048 17.4407 39.376 17.2737L40.0613 13.377M38.7663 16.8476C38.573 16.9179 38.3754 16.9486 38.1778 16.9442C37.6564 16.9442 37.3621 16.5752 37.463 15.9821C37.5681 15.3978 38.018 15.02 38.5267 15.02C38.7327 15.02 38.9177 15.0464 39.0648 15.1518L38.7663 16.8476Z" fill="#424549"/>
<path d="M34.0698 14.5056H32.9935L33.1322 13.7236L32.4133 13.9301L31.9508 16.5485C31.8247 17.2733 32.2283 17.5677 32.8463 17.5677C33.2415 17.5677 33.5653 17.4007 33.7671 17.2426C33.7755 17.0449 33.6914 16.8428 33.5653 16.7418C33.4601 16.8296 33.2541 16.9438 33.0481 16.9438C32.7622 16.9438 32.5815 16.8296 32.6613 16.3859L32.8884 15.0943H33.9647C34.0067 14.9933 34.0319 14.8966 34.0487 14.7956C34.0656 14.6989 34.0782 14.6023 34.0698 14.5056Z" fill="#424549"/>
<path d="M36.5207 18.0293L36.3441 18.9299C36.2685 18.965 36.1549 18.9958 36.0498 18.9958C35.8354 18.9958 35.7135 18.8684 35.7597 18.6399C35.806 18.4159 35.991 18.2753 36.1886 18.2753C36.2432 18.2753 36.2853 18.2841 36.3147 18.2973L36.3694 18.0293C36.3946 18.0249 36.4198 18.0205 36.4492 18.0205C36.4703 18.0249 36.4955 18.0249 36.5207 18.0293ZM36.2054 18.8332L36.2811 18.451C36.2474 18.4247 36.2054 18.4203 36.1592 18.4203C36.0414 18.4203 35.9405 18.5038 35.9153 18.6356C35.8901 18.7674 35.9531 18.8508 36.0709 18.8508C36.1171 18.8596 36.1634 18.8508 36.2054 18.8332Z" fill="#424549"/>
<path d="M37.1514 18.6791H36.689C36.6806 18.7933 36.731 18.8592 36.8403 18.8592C36.937 18.8592 37.0001 18.8197 37.0463 18.7889C37.0758 18.8109 37.0926 18.8592 37.0926 18.8987C37.0295 18.9471 36.9328 18.9954 36.8025 18.9954C36.6049 18.9954 36.4914 18.8592 36.5376 18.6351C36.5797 18.4243 36.752 18.2705 36.937 18.2705C37.1136 18.2705 37.2103 18.3979 37.1767 18.578C37.1683 18.622 37.1641 18.6439 37.1514 18.6791ZM37.0253 18.5736C37.0421 18.4946 37.0169 18.4111 36.9118 18.4111C36.8151 18.4111 36.7436 18.4814 36.7142 18.5736H37.0253Z" fill="#424549"/>
<path d="M37.207 18.9124C37.2281 18.8597 37.2617 18.8201 37.2995 18.7982C37.3332 18.8289 37.3836 18.8641 37.4887 18.8641C37.5812 18.8641 37.6233 18.8289 37.6317 18.7806C37.6401 18.7323 37.6106 18.7103 37.4971 18.6883C37.3836 18.6708 37.2827 18.6268 37.3121 18.4819C37.3374 18.3545 37.4635 18.2666 37.6275 18.2666C37.7452 18.2666 37.8251 18.3017 37.8587 18.3325C37.8419 18.3808 37.8124 18.4248 37.7746 18.4511C37.7326 18.4248 37.6737 18.3984 37.5938 18.3984C37.5097 18.3984 37.4719 18.4248 37.4635 18.4687C37.4551 18.5126 37.4803 18.5346 37.5854 18.5522C37.7242 18.5741 37.8166 18.6268 37.7872 18.763C37.7578 18.9036 37.6359 18.9915 37.4593 18.9915C37.3163 19.0003 37.2365 18.9475 37.207 18.9124Z" fill="#424549"/>
<path d="M38.6789 18.0293L38.5023 18.9299C38.4267 18.965 38.3131 18.9958 38.208 18.9958C37.9936 18.9958 37.8717 18.8684 37.9179 18.6399C37.9642 18.4159 38.1492 18.2753 38.3468 18.2753C38.4014 18.2753 38.4435 18.2841 38.4729 18.2973L38.5276 18.0293C38.5528 18.0249 38.578 18.0205 38.6074 18.0205C38.6285 18.0249 38.6537 18.0249 38.6789 18.0293ZM38.3636 18.8332L38.4393 18.451C38.4056 18.4247 38.3636 18.4203 38.3174 18.4203C38.1996 18.4203 38.0987 18.5038 38.0735 18.6356C38.0483 18.7674 38.1113 18.8508 38.2291 18.8508C38.2753 18.8596 38.3216 18.8508 38.3636 18.8332Z" fill="#424549"/>
<path d="M39.3077 18.6791H38.8452C38.8368 18.7933 38.8873 18.8592 38.9966 18.8592C39.0933 18.8592 39.1563 18.8197 39.2026 18.7889C39.232 18.8109 39.2488 18.8592 39.2488 18.8987C39.1858 18.9471 39.0891 18.9954 38.9587 18.9954C38.7611 18.9954 38.6476 18.8592 38.6939 18.6351C38.7359 18.4243 38.9083 18.2705 39.0933 18.2705C39.2699 18.2705 39.3666 18.3979 39.3329 18.578C39.3245 18.622 39.3203 18.6439 39.3077 18.6791ZM39.1816 18.5736C39.1984 18.4946 39.1732 18.4111 39.0681 18.4111C38.9714 18.4111 38.8999 18.4814 38.8705 18.5736H39.1816Z" fill="#424549"/>
<path d="M40.192 18.0425L40.007 18.9782C39.9818 18.9826 39.9524 18.987 39.9272 18.987C39.9019 18.987 39.8809 18.987 39.8557 18.9782L40.0028 18.2402L39.8305 18.3149C39.8094 18.2841 39.7926 18.2314 39.801 18.1743L40.0869 18.0381C40.1037 18.0337 40.1248 18.0293 40.1458 18.0293C40.1542 18.0337 40.1752 18.0381 40.192 18.0425Z" fill="#424549"/>
<path d="M40.8638 18.719C40.8217 18.9299 40.6452 19.0046 40.4896 19.0046C40.3298 19.0046 40.1911 18.9431 40.2289 18.7586C40.2542 18.64 40.3425 18.5521 40.4265 18.495C40.3635 18.451 40.3298 18.3895 40.3509 18.2885C40.3803 18.1347 40.5148 18.0293 40.6914 18.0293C40.868 18.0293 40.9605 18.1259 40.9311 18.2753C40.91 18.3808 40.8344 18.451 40.7671 18.4994C40.8386 18.5389 40.889 18.6048 40.8638 18.719ZM40.7124 18.7366C40.7293 18.6531 40.6536 18.6136 40.5653 18.5697C40.5527 18.5609 40.5359 18.5565 40.5232 18.5477C40.4602 18.5872 40.3971 18.6531 40.3845 18.7366C40.3635 18.8333 40.4307 18.8684 40.519 18.8684C40.6115 18.8684 40.6914 18.8376 40.7124 18.7366ZM40.498 18.2665C40.4812 18.3412 40.5443 18.3808 40.6241 18.4159C40.6368 18.4203 40.6452 18.4247 40.6578 18.4335C40.725 18.3895 40.7713 18.3456 40.7839 18.2797C40.8007 18.1962 40.7461 18.1567 40.6662 18.1567C40.5737 18.1523 40.5106 18.2006 40.498 18.2665Z" fill="#424549"/>
<path d="M40.9609 18.9079C40.982 18.8552 41.0198 18.8069 41.066 18.7805C41.0871 18.8025 41.1459 18.8552 41.2342 18.8552C41.3603 18.8552 41.4318 18.7849 41.4528 18.6795C41.4739 18.5785 41.4276 18.5169 41.3057 18.5169C41.2258 18.5169 41.1585 18.5521 41.0997 18.5521C41.0787 18.5521 41.066 18.5477 41.0618 18.5433L41.1585 18.0469H41.6799C41.6799 18.0732 41.6799 18.0996 41.6715 18.126C41.6673 18.1523 41.6588 18.1743 41.6504 18.2006H41.2678L41.23 18.3939C41.2552 18.3852 41.3015 18.372 41.3477 18.372C41.5621 18.372 41.6462 18.4862 41.6084 18.6751C41.5706 18.8728 41.4192 19.0002 41.2006 19.0002C41.066 19.0002 40.9904 18.9431 40.9609 18.9079Z" fill="#424549"/>
<path d="M41.6836 18.9079C41.7046 18.8552 41.7425 18.8069 41.7887 18.7805C41.8097 18.8025 41.8686 18.8552 41.9569 18.8552C42.083 18.8552 42.1503 18.7849 42.1755 18.6795C42.1965 18.5785 42.1503 18.5169 42.0283 18.5169C41.9485 18.5169 41.8812 18.5521 41.8223 18.5521C41.8013 18.5521 41.7887 18.5477 41.7845 18.5433L41.8812 18.0469H42.4025C42.4025 18.0732 42.4025 18.0996 42.3941 18.126C42.3899 18.1523 42.3815 18.1743 42.3731 18.2006H41.9905L41.9527 18.3939C41.9779 18.3852 42.0241 18.372 42.0704 18.372C42.2848 18.372 42.3689 18.4862 42.331 18.6751C42.2932 18.8728 42.1419 19.0002 41.9232 19.0002C41.7929 19.0002 41.713 18.9431 41.6836 18.9079Z" fill="#424549"/>
<path d="M29.4236 13.3945H26.9221H26.6782L26.8169 13.8558C26.8254 13.8778 26.8254 13.9041 26.8254 13.9305C26.8254 13.9437 26.8254 13.9569 26.8212 13.9656L26.2031 17.4758H28.7593C28.8098 17.366 28.8392 17.2518 28.8602 17.1375C28.877 17.0365 28.8854 16.9267 28.8728 16.8256H27.0061L27.2037 15.7053H28.8182C28.8644 15.5911 28.8939 15.4901 28.9107 15.3803C28.9317 15.2704 28.9359 15.165 28.9317 15.0552H27.3173L27.4938 14.0447H29.3059C29.3479 13.9349 29.3773 13.8339 29.3984 13.7196C29.4194 13.6186 29.432 13.4956 29.4236 13.3945Z" fill="#424549"/>
<path d="M19.1622 14.3735C18.8847 14.3735 18.6198 14.4262 18.3886 14.5009C18.3718 14.5053 18.3508 14.5097 18.3297 14.5097C18.3087 14.5097 18.2877 14.5053 18.2667 14.5009L17.7832 14.3516L17.6949 14.8524L17.2324 17.4795C17.3417 17.5059 17.4595 17.5103 17.5688 17.5103C17.6823 17.5103 17.8084 17.5059 17.9219 17.4795L18.3255 15.2038C18.4727 15.1204 18.7249 15.0369 18.994 15.0369C19.4397 15.0369 19.6583 15.2478 19.5574 15.8013L19.2631 17.4795C19.3808 17.5059 19.4901 17.5103 19.6036 17.5103C19.7129 17.5103 19.8349 17.5059 19.9568 17.4795L20.2847 15.63C20.4024 14.9315 20.0955 14.3735 19.1622 14.3735Z" fill="#424549"/>
<path d="M14.457 14.4748C14.5831 13.7543 14.2047 13.3501 13.1747 13.3501H13.1494L11.7116 13.3457L11.8713 13.8377C11.8797 13.8641 11.884 13.8861 11.884 13.9168C11.884 13.9344 11.8839 13.952 11.8797 13.9695L11.2617 17.4753C11.5602 17.5368 11.9428 17.5763 12.4599 17.5763C13.5615 17.5763 14.1753 17.0975 14.3098 16.3243C14.4023 15.8103 14.2005 15.5028 13.8095 15.3578C14.1374 15.1996 14.3771 14.9316 14.457 14.4748ZM13.6203 16.3067C13.5404 16.7636 13.2377 16.9701 12.5903 16.9701C12.3758 16.9701 12.1951 16.9569 12.0437 16.9393L12.2623 15.7005H12.9182C13.4395 15.6961 13.6918 15.8981 13.6203 16.3067ZM13.7885 14.4967C13.7212 14.8789 13.4816 15.0942 12.9729 15.0942H12.3716L12.5692 13.9695C12.7626 13.952 12.9434 13.9432 13.12 13.9432C13.6203 13.9432 13.8473 14.1453 13.7885 14.4967Z" fill="#424549"/>
</g>
<defs>
<clipPath id="clip0_1518_453">
<rect width="41" height="8" fill="white" transform="translate(2 11)"/>
</clipPath>
</defs>
</svg>
