<svg width="73" height="74" fill="none" xmlns="http://www.w3.org/2000/svg"><circle cx="36.5" cy="37" r="36" fill="#1C1C1C"/><circle cx="36.5" cy="37" r="36" fill="url(#a)"/><circle cx="36.5" cy="37" r="36" stroke="#2C2C2C"/><path d="m65.5 36.384-22.724 2.149 17.12 15.1-19.652-11.627 4.991 22.278-9.063-20.96-9.063 20.96 4.99-22.278-19.65 11.626 17.118-15.1-22.723-2.148 22.723-2.148-17.118-15.1L32.1 30.763 27.11 8.484l9.063 20.96 9.063-20.96-4.99 22.279 19.65-11.626-17.119 15.099 22.725 2.148Z" fill="#EC931F" style="mix-blend-mode:color-dodge" opacity=".59"/><path d="m51.22 23.789-.405 3.529s7.786-3.842 6.332 5.463c-1.456 9.305-5.469 10.583-8.993 5.925l-.245 2.968c7.933 8.354 11.879-3.274 13.089-9.61 1.211-6.337 1.616-9.868-9.778-8.276Zm-36.005 9.057c-1.484-9.3 6.314-5.483 6.314-5.483l-.416-3.527c-11.398-1.557-10.982 1.972-9.752 8.305 1.23 6.333 5.211 17.95 13.117 9.572l-.253-2.967c-3.51 4.668-7.527 3.402-9.01-5.9Z" fill="#EC931F"/><path d="M53.457 25.912c-.169 6.816-1.06 11.263-4.92 15.905-1.461 1.758-3.349 3.543-5.782 5.495 0 0-3.589 4.23-3.213 10.767l-6.651.01c.357-6.538-3.245-10.756-3.245-10.756-8.894-7.096-10.5-11.985-10.761-21.39-.052-1.858-.05-3.892-.042-6.152a77.847 77.847 0 0 1 3.17-.355c.844-.08 1.721-.153 2.63-.219 3.514-.257 7.452-.41 11.61-.415 5.205-.009 10.064.204 14.18.586 1.066.094 2.084.207 3.041.323.02 2.282.029 4.332-.017 6.2v.001Z" fill="#EC931F"/><path d="M48.535 41.819c-1.46 1.757-3.348 3.543-5.781 5.495 0 0-3.59 4.23-3.213 10.766l-6.651.011c.357-6.539-3.245-10.757-3.245-10.757-8.895-7.096-10.5-11.985-10.761-21.39-.052-1.858-.05-3.891-.042-6.151.505-.066 1.026-.13 1.563-.19.143 21.784 18.025 29.997 28.13 22.215Z" fill="#EC931F" style="mix-blend-mode:multiply" opacity=".35"/><path d="M21.805 23.15c.857-.082 1.747-.155 2.67-.223a165.34 165.34 0 0 1 11.78-.421c5.28-.009 10.21.208 14.388.595.993.089 1.942.192 2.844.3-.002-.596-.007-1.207-.012-1.837a91.099 91.099 0 0 0-3.04-.324c-4.118-.38-8.977-.594-14.18-.587-4.16.006-8.098.157-11.612.416-.91.066-1.786.138-2.631.22a86.464 86.464 0 0 0-3.17.354l-.002 1.071c0 .258.002.51.004.762a84.68 84.68 0 0 1 2.962-.327l-.001.001Z" fill="#D0713B"/><path d="M41.7 60.848v2.992H30.746c-.143 0-.262-.14-.262-.315V60.88c0-1.018.418-1.919 1.06-2.464.41-.351.913-.557 1.456-.557h6.205c.35-.002.685.086.988.244.884.458 1.504 1.516 1.504 2.744l.001.001Z" fill="#EC931F"/><path d="M51.872 65.078H20.584l.588-.38c2.907-1.886 6.062-3.13 9.313-3.68a23.23 23.23 0 0 1 3.565-.328l.04-.001h.002c.094-.002.191-.002.287-.002h3.712a23.507 23.507 0 0 1 6.829 1.022 25.326 25.326 0 0 1 6.952 3.368v.001Z" fill="#EC931F"/><path d="M38.197 60.689c.032.087.746 1.963 1.23 4.39h2.845c-.857-1.562-2.163-3.295-4.075-4.39Zm.594.002c-.018-.002-.032-.002-.04-.002.17.072 3.247 1.395 5.693 4.39H49.1c-4.211-3.699-9.741-4.331-10.308-4.388Z" fill="#EC931F" style="mix-blend-mode:screen" opacity=".38"/><path d="M33.184 60.853h-.003l.01-.002-.007.002Z" fill="#EC931F"/><path d="M36.092 60.688c-.005.103 0 .163 0 .163-2.531.73-3.024 1.858-2.639 2.99.141.42.404.84.726 1.24H20.585l.588-.383c2.907-1.884 6.062-3.128 9.313-3.678v-.14c0-1.017.418-1.918 1.06-2.463a2.23 2.23 0 0 1 1.456-.557h6.205c.35-.001.685.086.988.244-3.683.336-4.074 2.044-4.103 2.584Z" fill="#EC931F" style="mix-blend-mode:multiply" opacity=".35"/><path d="M40.95 21.734c9.862-2.55 12.882 3.907 8.36 4.019-4.522.111-12.567-2.931-8.36-4.02Z" fill="#EC931F" style="mix-blend-mode:screen" opacity=".32"/><path d="M38.639 38.32V26.08H32.59v2.822h2.398v9.417h-1.391V41h6.253v-2.68h-1.21Z" fill="#FFD5B2"/><defs><linearGradient id="a" x1="35.955" y1=".5" x2="35.955" y2="73.5" gradientUnits="userSpaceOnUse"><stop stop-color="#292929"/><stop offset="1" stop-color="#202020"/></linearGradient></defs></svg>