<svg width="19" height="18" fill="none" xmlns="http://www.w3.org/2000/svg"><g clip-path="url(#a)" fill="#06F"><path d="M9.629 6.166c.378-.38.852-.65 1.371-.784V1.5A1.5 1.5 0 0 0 9.5 0H2.75a1.5 1.5 0 0 0-1.5 1.5v6.75a1.5 1.5 0 0 0 1.5 1.5h3.295L9.63 6.166ZM8 2.25a.75.75 0 1 1 0 1.5.75.75 0 0 1 0-1.5Zm0 3a.75.75 0 1 1 0 1.5.75.75 0 0 1 0-1.5Zm-3.75-3a.75.75 0 1 1 0 1.5.75.75 0 0 1 0-1.5Zm0 5.25a.75.75 0 1 1 0-1.5.75.75 0 0 1 0 1.5Zm12.803 2.91-3.838-3.84a1.498 1.498 0 0 0-.439-.305c-.95-.43-1.954-.233-2.617.431l-3.838 3.837a1.51 1.51 0 0 0-.305.44c-.43.95-.233 1.954.431 2.617l3.838 3.838c.127.127.275.23.44.305.949.43 1.953.232 2.616-.431l3.838-3.838a1.5 1.5 0 0 0 .306-.44c.43-.949.232-1.953-.432-2.616Zm-5.303 2.34a.75.75 0 1 1 0-1.5.75.75 0 0 1 0 1.5Z"/></g><defs><clipPath id="a"><path fill="#fff" transform="translate(.5)" d="M0 0h18v18H0z"/></clipPath></defs></svg>