<svg width="45" height="30" viewBox="0 0 45 30" fill="none" xmlns="http://www.w3.org/2000/svg">
<path d="M8.888 22.5632C8.888 22.6336 8.8288 22.6912 8.7584 22.6912H6.2608C6.3232 23.3088 6.7872 23.8704 7.44 23.8704C7.8864 23.8704 8.2176 23.6992 8.4672 23.344C8.504 23.2944 8.5568 23.264 8.6256 23.2928C8.664 23.3088 8.6896 23.344 8.696 23.3824C8.7024 23.424 8.6912 23.4464 8.68 23.4688C8.4288 23.9072 7.928 24.1216 7.4384 24.1216C6.5984 24.1216 6 23.3696 6 22.5664C6 21.7616 6.5984 21.0112 7.4384 21.0112C8.28 21.0096 8.8864 21.76 8.888 22.5632ZM8.6208 22.4416C8.5664 21.824 8.0944 21.2624 7.4416 21.2624C6.7888 21.2624 6.3248 21.8256 6.2624 22.4416H8.6208ZM11.9184 21.072C11.9904 21.072 12.0432 21.1344 12.0432 21.1968C12.0432 21.2688 11.9888 21.3216 11.9184 21.3216H11.2496V23.9488C11.2496 24.0112 11.1952 24.0736 11.1248 24.0736C11.0528 24.0736 11 24.0112 11 23.9488V21.3216H10.3568C10.2848 21.3216 10.232 21.2672 10.232 21.1968C10.232 21.1344 10.2864 21.072 10.3568 21.072H11V20.1104C11 20.0496 11.0416 19.9936 11.1008 19.984C11.184 19.9712 11.2496 20.0288 11.2496 20.1072V21.072H11.9184ZM16.0032 22.3424V23.9344C16.0032 24.0064 15.9408 24.0592 15.8784 24.0592C15.8064 24.0592 15.7536 24.0048 15.7536 23.9344V22.3424C15.7536 21.8064 15.4496 21.2688 14.8512 21.2688C14.0832 21.2688 13.752 21.9392 13.7968 22.6272C13.7968 22.6448 13.8048 22.7264 13.8048 22.7344V23.9296C13.8048 23.9904 13.7632 24.0464 13.704 24.056C13.6208 24.0688 13.5552 24.0112 13.5552 23.9328V18.704C13.5552 18.6416 13.6096 18.5792 13.68 18.5792C13.752 18.5792 13.8048 18.6416 13.8048 18.704V21.6624C14.0192 21.2784 14.4032 21.0192 14.8496 21.0192C15.584 21.0208 16.0032 21.664 16.0032 22.3424ZM20.4816 22.5632C20.4816 22.6336 20.4224 22.6912 20.352 22.6912H17.8528C17.9152 23.3088 18.3792 23.8704 19.032 23.8704C19.4784 23.8704 19.8096 23.6992 20.0592 23.344C20.096 23.2944 20.1488 23.264 20.2176 23.2928C20.256 23.3088 20.2816 23.344 20.288 23.3824C20.2944 23.424 20.2832 23.4464 20.272 23.4688C20.0208 23.9072 19.52 24.1216 19.0304 24.1216C18.1904 24.1216 17.592 23.3696 17.592 22.5664C17.592 21.7616 18.1904 21.0112 19.0304 21.0112C19.8736 21.0096 20.48 21.76 20.4816 22.5632ZM20.2128 22.4416C20.1584 21.824 19.6864 21.2624 19.0336 21.2624C18.3808 21.2624 17.9168 21.8256 17.8544 22.4416H20.2128ZM23.5472 21.1888C23.5472 21.2688 23.5024 21.3136 23.4304 21.3232C22.6976 21.4304 22.3664 22.0288 22.3664 22.7264V23.9216C22.3664 23.9824 22.3248 24.0384 22.2656 24.048C22.1824 24.0608 22.1168 24.0032 22.1168 23.9248V21.2016C22.1168 21.1408 22.1584 21.0848 22.2176 21.0752C22.3008 21.0624 22.3664 21.12 22.3664 21.1984V21.7536C22.5712 21.4064 22.984 21.0736 23.4112 21.0736C23.4752 21.072 23.5472 21.1184 23.5472 21.1888ZM27.6496 22.5632C27.6496 22.6336 27.5904 22.6912 27.52 22.6912H25.0224C25.0848 23.3088 25.5488 23.8704 26.2016 23.8704C26.648 23.8704 26.9792 23.6992 27.2288 23.344C27.2656 23.2944 27.3184 23.264 27.3872 23.2928C27.4256 23.3088 27.4512 23.344 27.4576 23.3824C27.464 23.424 27.4528 23.4464 27.4416 23.4688C27.1904 23.9072 26.6896 24.1216 26.2 24.1216C25.36 24.1216 24.7616 23.3696 24.7616 22.5664C24.7616 21.7616 25.36 21.0112 26.2 21.0112C27.0416 21.0096 27.648 21.76 27.6496 22.5632ZM27.3824 22.4416C27.328 21.824 26.856 21.2624 26.2032 21.2624C25.5504 21.2624 25.0864 21.8256 25.024 22.4416H27.3824ZM31.6816 21.2208V23.9504C31.6816 24.0224 31.6192 24.0752 31.5568 24.0752C31.4848 24.0752 31.432 24.0208 31.432 23.9504V23.432C31.2272 23.8432 30.8592 24.1376 30.3952 24.1376C29.6528 24.1376 29.2416 23.4944 29.2416 22.8144V21.2144C29.2416 21.152 29.296 21.0896 29.3664 21.0896C29.4384 21.0896 29.4912 21.152 29.4912 21.2144V22.8144C29.4912 23.3504 29.7952 23.888 30.3936 23.888C31.2336 23.888 31.4304 23.1024 31.4304 22.2336V21.2144C31.4304 21.1424 31.5024 21.0688 31.592 21.0944C31.6464 21.112 31.6816 21.1648 31.6816 21.2208ZM38 22.3328V23.9328C38 24.0048 37.9376 24.0576 37.8752 24.0576C37.8032 24.0576 37.7504 24.0032 37.7504 23.9328V22.3328C37.7504 21.7968 37.4464 21.2688 36.848 21.2688C36.096 21.2688 35.8112 22.0736 35.8112 22.6976V23.9312C35.8112 24.0032 35.7488 24.056 35.6864 24.056C35.6144 24.056 35.5616 24.0016 35.5616 23.9312V22.3312C35.5616 21.7952 35.2576 21.2672 34.6592 21.2672C33.8992 21.2672 33.5856 21.8656 33.6144 22.6624C33.6144 22.68 33.6224 22.7168 33.6144 22.7248V23.928C33.6144 23.9888 33.5728 24.0448 33.512 24.0544C33.4288 24.0672 33.3632 24.0096 33.3632 23.9312V21.2C33.3632 21.1392 33.4048 21.0832 33.464 21.0736C33.5472 21.0608 33.6128 21.1184 33.6128 21.1968V21.6528C33.8272 21.2688 34.2112 21.0176 34.6576 21.0176C35.1664 21.0176 35.56 21.3392 35.7216 21.8128C35.9264 21.3488 36.328 21.0176 36.848 21.0176C37.5792 21.0208 38 21.6544 38 22.3328Z" fill="#3C3C3B"/>
<path opacity="0.6" d="M22.0016 10.0272L17.8272 11.9264L22.0016 14.392L26.1744 11.9248L22.0016 10.0272Z" fill="#010101"/>
<path opacity="0.45" d="M17.8272 11.9264L22.0016 14.392V5L17.8272 11.9264Z" fill="#010101"/>
<path opacity="0.8" d="M22.0016 5V14.392L26.1744 11.9248L22.0016 5Z" fill="#010101"/>
<path opacity="0.45" d="M17.8272 12.7168L22.0016 18.5984V15.184L17.8272 12.7168Z" fill="#010101"/>
<path opacity="0.8" d="M22.0016 15.184V18.5984L26.1776 12.7168L22.0016 15.184Z" fill="#010101"/>
</svg>
