<svg xmlns="http://www.w3.org/2000/svg" width="20" height="20" fill="none"><g clip-path="url(#a)"><path fill="#fff" d="M6.967.658a9.888 9.888 0 0 0 .677 18.89c1.656.428 3.391.447 5.056.055a8.927 8.927 0 0 0 4.047-2.103 8.975 8.975 0 0 0 2.5-4.103 11.62 11.62 0 0 0 .252-5.247h-9.3v3.858h5.385a4.643 4.643 0 0 1-1.978 3.05 5.651 5.651 0 0 1-2.176.86 6.5 6.5 0 0 1-2.36 0 5.807 5.807 0 0 1-2.195-.959 6.14 6.14 0 0 1-2.266-3.034 5.986 5.986 0 0 1 0-3.848 6.133 6.133 0 0 1 1.435-2.33 5.808 5.808 0 0 1 5.851-1.528 5.356 5.356 0 0 1 2.132 1.25 596.87 596.87 0 0 0 1.818-1.817c.313-.327.653-.638.961-.972A9.566 9.566 0 0 0 13.625.717a10 10 0 0 0-6.658-.06Z"/><path fill="#E33629" d="M6.968.658a10 10 0 0 1 6.657.058 9.566 9.566 0 0 1 3.18 1.971c-.312.335-.642.647-.96.972a974.47 974.47 0 0 1-1.818 1.81 5.357 5.357 0 0 0-2.131-1.25A5.808 5.808 0 0 0 6.043 5.74a6.133 6.133 0 0 0-1.435 2.33L1.37 5.561A9.927 9.927 0 0 1 6.968.658Z"/><path fill="#F8BD00" d="M.51 8.047a9.833 9.833 0 0 1 .859-2.485l3.239 2.515a5.986 5.986 0 0 0 0 3.848c-1.08.833-2.16 1.67-3.24 2.512a9.895 9.895 0 0 1-.859-6.39Z"/><path fill="#587DBD" d="M10.198 8.148h9.3c.318 1.746.232 3.54-.252 5.247a8.975 8.975 0 0 1-2.5 4.103c-1.045-.815-2.095-1.625-3.14-2.44a4.645 4.645 0 0 0 1.978-3.053h-5.386c-.002-1.285 0-2.57 0-3.857Z"/><path fill="#319F43" d="M1.367 14.438a886.55 886.55 0 0 0 3.24-2.513 6.14 6.14 0 0 0 2.268 3.034c.66.467 1.409.79 2.2.95.78.146 1.58.146 2.36 0a5.648 5.648 0 0 0 2.176-.859c1.045.816 2.095 1.625 3.14 2.44a8.927 8.927 0 0 1-4.046 2.105c-1.665.392-3.4.373-5.057-.054a9.845 9.845 0 0 1-3.593-1.811 9.957 9.957 0 0 1-2.688-3.293Z"/></g><defs><clipPath id="a"><path fill="#fff" d="M0 0h20v20H0z"/></clipPath></defs></svg>