<?xml version="1.0" encoding="utf-8"?>
<!-- Generator: Adobe Illustrator 24.2.0, SVG Export Plug-In . SVG Version: 6.00 Build 0)  -->
<svg version="1.1" id="casino-payments" xmlns="http://www.w3.org/2000/svg" xmlns:xlink="http://www.w3.org/1999/xlink" x="0px"
	 y="0px" viewBox="0 0 1400 900" style="enable-background:new 0 0 1400 900;" xml:space="preserve">
<style type="text/css">
	.st0{fill:url(#card-form_1_);}
	.st1{fill:#AB0000;}
</style>
<g id="ecopayz_4_">
	
		<linearGradient id="card-form_1_" gradientUnits="userSpaceOnUse" x1="700" y1="-1513.0078" x2="700" y2="-613.0078" gradientTransform="matrix(1 0 0 -1 0 -613.0078)">
		<stop  offset="0" style="stop-color:#B3B3B3"/>
		<stop  offset="0.6582" style="stop-color:#E6E6E6"/>
	</linearGradient>
	<path id="card-form_3_" class="st0" d="M1300,900H100C45,900,0,855,0,800V100C0,45,45,0,100,0h1200c55,0,100,45,100,100v700
		C1400,855,1355,900,1300,900z"/>
</g>
<g>
	<path d="M278.6,332.3h76.1c9.6,0.3,17.8,0.9,24.6,2.2c6.7,1.2,12.1,3,16.1,5.4c3.8,2.3,6.5,5.9,8,10.9c1.6,4.9,1.9,11.1,1,18.5
		c-0.4,4.1-1.3,7.9-2.3,11.4c-1.1,3.5-2.3,6.5-3.9,9.1c-1.5,2.6-4.4,4.7-8.7,6.6c-4.3,1.8-10.1,3.4-17.3,4.4l-0.1,0.8
		c4.6,0.3,8.6,1,11.9,2.1c3.3,1.1,5.9,2.5,8,4.4c2.1,1.8,3.5,4.1,4.4,6.7c0.8,2.7,1.1,5.7,0.6,9.1l-2.3,20.1h-41.3l1.7-14.9
		c0.3-2.2,0.2-4.1-0.3-5.8c-0.4-1.7-1.1-3.3-2.2-4.6c-0.9-1.3-2.5-2.3-4.6-3c-2.2-0.7-4.9-1-8.3-1l-30.1-0.3l-3.5,29.7h-40.6
		L278.6,332.3z M344.8,388.9c0.3,0.1,0.6,0.2,0.8,0.2c0.3,0,0.5,0,0.8,0c3.2,0,5.8-0.3,7.8-0.9c2-0.6,3.5-1.5,4.4-2.8
		c0.9-1.2,1.7-2.8,2.3-4.6c0.7-1.8,1.1-4,1.5-6.5c0.3-2.7,0.4-5,0.1-7c-0.2-2-0.6-3.7-1.2-5c-0.8-1.2-2.3-2.2-4.7-2.8
		c-2.4-0.7-5.8-1-10.2-1l-30.1-0.3l-3.6,30.8H344.8z"/>
	<path d="M592.7,424.8l-9.4,19.3h-42.2L599,332.3h61.5l33.7,111.7h-41.3l-5.8-19.3L592.7,424.8L592.7,424.8z M627.8,354.6l-24,48.5
		h37.7L627.8,354.6z"/>
	<path d="M751.6,418.4h63.5l-2.8,25.7H708.1l12.2-111.7h40.6L751.6,418.4z"/>
	<path d="M888.4,444.1h-40.6l9.2-85.9h-38.4l2.8-25.8h119.7l-2.7,25.8h-40.8L888.4,444.1z"/>
	<path d="M983.1,444.1h-40.6l11.8-111.7h40.6L983.1,444.1z"/>
	<path d="M1183.7,444.1h-40l11.6-85.6h-1.1l-46.4,85.6h-35l-29.7-85.6h-1.4l-5.4,85.6h-40l11.6-111.7h63.9l21.6,70.1h1.6l34.4-70.1
		h65.6L1183.7,444.1z"/>
	<path d="M1245.8,377h77.4l-2.2,20.8h-77.5l-2.3,21.6h83.9l-2.7,24.7h-120.9l12.2-111.7h119.2l-2.7,24.6h-82.3L1245.8,377z"/>
	<path d="M454.1,377h77.4l-2.2,20.8h-77.5l-2.3,21.6h83.9l-2.7,24.7H409.8L422,332.3h119.1l-2.7,24.6h-82.3L454.1,377z"/>
	<g>
		<path d="M303.8,522.8l49.4,0.1c0.1,2.3-0.1,5.4-0.4,9.5c-1.3,15.6-4.7,25.3-10.1,29c-5.4,3.7-18.9,5.5-40.3,5.5
			c-20.3,0-33.1-2.2-38.5-6.6c-5.4-4.4-7.5-14.2-6.3-29.5l0.9-12.8l0.7-7.7c1-12.8,4.9-21.4,11.7-25.6c6.8-4.2,19.9-6.4,39.5-6.4
			c19.6,0,32.2,1.4,37.6,4.2c5.4,2.8,7.8,9,7,18.6l-0.3,3.3H342l0.2-2.2c0.6-7.1-0.9-11.5-4.7-13.2c-3.7-1.7-13.7-2.5-30-2.5
			c-15.1,0-24.6,1.3-28.5,4.1c-4,2.7-6.4,9.4-7.3,20.2l-1.1,11.5l-0.9,12.4c-0.9,10.9,0.6,17.6,4.6,20.1c4,2.5,15.1,3.7,33.2,3.8
			c13.9,0,22.6-1.1,26.1-3.5c3.5-2.3,5.6-8.5,6.5-18.6c0.1-0.8,0-2.6-0.3-5.3l-36.6-0.1L303.8,522.8z"/>
		<path d="M526.6,547.8l-58.5-0.1l-10.4,18.4h-13.8l49.6-86.8h18.3l35.8,87h-13.7L526.6,547.8z M523.4,540.4l-21.1-53.2l-29.8,53.1
			L523.4,540.4z"/>
		<path d="M787.2,479.2l-7.8,87.2h-13.1l6.3-69.7l0.4-5.3l0.3-2.6l0.3-2.6h-0.3l-1.2,2c-0.6,1-1,1.7-1.2,2l-2.6,4.1l-46,72h-13.1
			l-33.4-71.1l-2-4.1l-0.8-2c-0.3-0.4-0.5-1.1-0.8-2h-0.3l-0.1,2.3l-0.1,2.4l-0.4,4.8l-6.1,69.6h-13l7.5-87h22.7l26,56.4l4.1,9.1
			l2.1,4.6l2,4.6h0.3l2.8-4.5c1.4-2.2,2.3-3.7,2.8-4.5l5.8-9.1l35.9-56.5L787.2,479.2z"/>
		<path d="M913,479.2l-8,87.2H892l7.9-87.2H913z"/>
		<path d="M1122,479.2l-8.2,87.4l-21.6-0.1l-43.4-59.4l-7-9.8l-3.5-4.9l-3.5-4.9h-0.3l-0.2,3.3l-0.2,3.4l-0.6,6.5l-6.1,65.8h-13.2
			l8-87.3h21.6l37.8,52.2l9.9,13.7l4.9,6.8l4.8,6.8h0.3l0.2-3.2l0.3-3.4l0.6-6.5l6.3-66.3H1122z"/>
		<path d="M1263.2,523.2l50.3,0.1c0,2.3-0.2,5.4-0.6,9.6c-1.5,15.8-5.1,25.5-10.6,29.2c-5.6,3.7-19.2,5.6-41.1,5.6
			c-20.6,0-33.7-2.3-39.2-6.6c-5.4-4.4-7.5-14.3-6-29.7l1.1-12.8l0.8-7.7c1.2-13,5.3-21.6,12.3-25.8c7-4.3,20.4-6.4,40.3-6.4
			c19.9,0,32.7,1.4,38.2,4.2c5.5,2.8,7.8,9.1,6.9,18.8l-0.3,3.4h-13l0.2-2.2c0.7-7.2-0.8-11.6-4.6-13.3s-13.9-2.5-30.5-2.5
			c-15.3,0-25,1.3-29.1,4.1c-4.1,2.7-6.6,9.5-7.7,20.4l-1.3,11.6l-1.1,12.5c-1.1,11,0.4,17.8,4.4,20.3c4,2.5,15.3,3.8,33.7,3.8
			c14.1,0,23-1.1,26.6-3.5c3.6-2.4,5.9-8.6,6.8-18.7c0.1-0.8,0-2.6-0.2-5.4l-37.3-0.1L1263.2,523.2z"/>
	</g>
	<rect x="256.9" y="459.4" class="st1" width="1064.1" height="5.3"/>
	<g>
		<path class="st1" d="M218.9,352.5c0,0,7.6,3.2,6.8,12.3l-15.4,176.5c0,0-0.7,8.4-8.6,8.4H92.7c0,0-8.1,0-8.2-8.2h110.1
			c0,0,7.8,0,8.6-8.5L218.9,352.5z"/>
		<path class="st1" d="M205.6,333.8c0,0,8,0.1,7.1,10.2c-1.4,16.4-7.7,88.4-7.7,88.4s-50.1-12.3-54.3-98.6H205.6z"/>
		<path class="st1" d="M91.8,333.8c0,0-8,0.1-8.9,10.2l-7.7,88.4c0,0,52.2-12.3,71.5-98.6H91.8L91.8,333.8z"/>
		<path class="st1" d="M188,535.1c0,0,8-0.1,8.9-10.1c1.4-16.5,7.7-88.4,7.7-88.4s-52.2,12.3-71.5,98.6L188,535.1L188,535.1z"/>
		<path class="st1" d="M74.2,535.1c0,0-8-0.1-7.1-10.1c1.4-16.5,7.7-88.4,7.7-88.4s50.1,12.3,54.3,98.6L74.2,535.1L74.2,535.1z"/>
		<path class="st1" d="M232,367.2c0,0,7.6,3.2,6.8,12.3L223.4,556c0,0-0.7,8.4-8.6,8.4H105.9c0,0-8.1,0-8.2-8.2h110.1
			c0,0,7.8,0,8.6-8.5L232,367.2z"/>
	</g>
</g>
</svg>
