<?xml version="1.0" encoding="utf-8"?>
<!-- Generator: Adobe Illustrator 24.2.0, SVG Export Plug-In . SVG Version: 6.00 Build 0)  -->
<svg version="1.1" id="casino-payments" xmlns="http://www.w3.org/2000/svg" xmlns:xlink="http://www.w3.org/1999/xlink" x="0px"
	 y="0px" viewBox="0 0 1400 900" style="enable-background:new 0 0 1400 900;" xml:space="preserve">
<style type="text/css">
	.st0{fill:url(#card-form_1_);}
	.st1{fill:url(#XMLID_2_);}
	.st2{fill:url(#XMLID_3_);}
	.st3{fill:url(#XMLID_4_);}
	.st4{fill:url(#XMLID_5_);}
	.st5{fill:url(#XMLID_6_);}
	.st6{fill:url(#XMLID_7_);}
	.st7{fill:url(#XMLID_8_);}
	.st8{fill:url(#XMLID_9_);}
	.st9{fill:url(#XMLID_10_);}
	.st10{fill:url(#XMLID_11_);}
	.st11{fill:url(#XMLID_12_);}
	.st12{fill:url(#XMLID_13_);}
</style>
<g id="ecopayz_4_">
	
		<linearGradient id="card-form_1_" gradientUnits="userSpaceOnUse" x1="700" y1="2593.0078" x2="700" y2="1693.0078" gradientTransform="matrix(1 0 0 1 0 -1693.0078)">
		<stop  offset="0" style="stop-color:#B3B3B3"/>
		<stop  offset="0.6582" style="stop-color:#E6E6E6"/>
	</linearGradient>
	<path id="card-form_3_" class="st0" d="M1300,900H100C45,900,0,855,0,800V100C0,45,45,0,100,0h1200c55,0,100,45,100,100v700
		C1400,855,1355,900,1300,900z"/>
</g>
<g>
	
		<linearGradient id="XMLID_2_" gradientUnits="userSpaceOnUse" x1="166.2897" y1="-338.9799" x2="317.0033" y2="-600.0239" gradientTransform="matrix(1 0 0 1 0 920)">
		<stop  offset="0" style="stop-color:#3DA760"/>
		<stop  offset="0.9" style="stop-color:#00A3E1"/>
	</linearGradient>
	<path id="XMLID_180_" class="st1" d="M241.7,299.8C158.5,299.8,91,367.3,91,450.5c0,14.9,2.2,29.6,6.3,43.2
		c39.9-53.1,84.9-135.8,90.1-148.5c5-11.6,9.1-17.1,22.4-14.4c3.9,0.9,9.4,6.9,7.7,19.6c-8.8,71.3-1.6,181.9,15.5,168.1
		c15.5-12.4,50.6-80.5,61.4-107c5.8-13.8,8.6-21.8,21-20.7c9.7,0.9,11.3,11.9,11.6,15.5c2.2,48.9,23.8,83.5,26.5,88
		c5,8.6-3.3,9.1-15.8-3.9c-7.4-8.3-18.8-26-26.3-46.8c-2.2-6.1-43.2,119.2-90.7,104.2c-36-11-36.2-93.4-34.3-133.5
		c0.3-3.9-37.9,74.7-70.5,119.5c26.8,40.7,73,67.5,125.5,67.5c83.2,0,150.7-67.5,150.7-150.7S324.9,299.8,241.7,299.8z"/>
	<g id="XMLID_144_">
		
			<linearGradient id="XMLID_3_" gradientUnits="userSpaceOnUse" x1="1334.2477" y1="-465.9576" x2="414.7534" y2="-470.3855" gradientTransform="matrix(1 0 0 1 0 920)">
			<stop  offset="0" style="stop-color:#3DA760"/>
			<stop  offset="0.7308" style="stop-color:#00A3E1"/>
		</linearGradient>
		<path id="XMLID_165_" class="st2" d="M521,404.6l-33.2,100.9h-6.3l-33.7-100.9h-1.6v100.9h-12.6V394.4h22.4l28.8,86.6h0.3
			l28.2-86.6h22.7v111.2h-12.2l-0.5-100.9H521z"/>
		
			<linearGradient id="XMLID_4_" gradientUnits="userSpaceOnUse" x1="1334.1958" y1="-455.1859" x2="414.7016" y2="-459.6138" gradientTransform="matrix(1 0 0 1 0 920)">
			<stop  offset="0" style="stop-color:#3DA760"/>
			<stop  offset="0.7308" style="stop-color:#00A3E1"/>
		</linearGradient>
		<path id="XMLID_207_" class="st3" d="M716.7,428.7c-5.5,0-12.2-1.4-21.3,2.7c-3.6,1.6-7.4,3.6-10.8,6.6v66.6h-13.8v-84.3H681
			l1.6,8.8c3.9-3,7.4-5.5,11.9-6.9c12.7-4.1,21-4.1,23.5-2.7L716.7,428.7z"/>
		
			<linearGradient id="XMLID_5_" gradientUnits="userSpaceOnUse" x1="1334.1948" y1="-454.9391" x2="414.7005" y2="-459.367" gradientTransform="matrix(1 0 0 1 0 920)">
			<stop  offset="0" style="stop-color:#3DA760"/>
			<stop  offset="0.7308" style="stop-color:#00A3E1"/>
		</linearGradient>
		<path id="XMLID_209_" class="st4" d="M796.6,466.3c0,7.7-0.9,14.1-2.2,19.4c-1.4,5.2-3.6,9.1-6.6,12.4c-3,3-6.9,5.2-11.3,6.6
			c-4.7,1.4-10.2,2-16.6,2s-11.9-0.5-16.6-2c-4.7-1.4-8.6-3.3-11.3-6.6c-3-3-5.2-7.2-6.6-12.4c-1.4-5.2-2.2-11.6-2.2-19.4v-9.1
			c0-7.7,0.9-13,2.2-18.2c1.4-5.2,3.6-9.1,6.6-12.4c3-3,6.9-5.2,11.3-6.6c4.7-1.4,10.2-2,16.3-2c6.3,0,11.9,0.5,16.6,2
			s8.3,3.3,11.3,6.6c3,3,5.2,7.2,6.6,12.4c1.4,5.2,2.2,10.5,2.2,18.2v9.1H796.6z M782.8,455.7c0-5.8-0.3-10.5-1.1-14.1
			c-0.8-3.6-2-6.6-3.9-8.8c-2-2.2-4.1-3.6-7.2-4.4c-3-0.9-6.6-1.4-11-1.4c-4.4,0-8,0.5-11,1.4c-3,0.9-5.2,2.2-7.2,4.4
			c-1.6,2.2-3,5-3.9,8.8c-0.9,3.6-1.1,9.7-1.1,15.5v9.1c0,5.8,0.3,12.4,1.1,16.3c0.9,3.6,2,6.6,3.9,8.8c1.6,2.2,4.1,3.6,7.2,4.4
			c3,0.9,6.6,1.4,11,1.4c4.4,0,8-0.5,11-1.4c3-0.9,5.2-2.2,7.2-4.4c2-2.2,3-5,3.9-8.8c0.9-3.6,1.1-10.5,1.1-16.3V455.7z"/>
		
			<linearGradient id="XMLID_6_" gradientUnits="userSpaceOnUse" x1="1334.1897" y1="-453.9082" x2="414.6954" y2="-458.3361" gradientTransform="matrix(1 0 0 1 0 920)">
			<stop  offset="0" style="stop-color:#3DA760"/>
			<stop  offset="0.7308" style="stop-color:#00A3E1"/>
		</linearGradient>
		<path id="XMLID_203_" class="st5" d="M655.3,477c0,7.7,0.3,1.1-0.3,8.3c-0.3,5.2-2.5,9.7-5.5,12.7c-3,3-6.9,5.2-11.3,6.6
			c-4.7,1.4-10.2,2-16.6,2s-11.9-0.5-16.6-2c-4.7-1.4-7.7-3-10.5-6.1c-3-3-5.2-7.2-6.6-12.4c-1.4-5.2-2.2-11.6-2.2-19.4v-9.4
			c0-7.7,0.9-13,2.2-18.2c1.4-5.2,3.6-9.1,6.6-12.4c3-3,6.1-5,10.8-6.1c4.7-1.4,10.2-2,16.3-2c6.3,0,11.9,0.5,16.6,2
			c4.7,1.4,8.3,3.3,11.3,6.6c3,3,4.4,6.9,5,12.2c0.9,7.4,0.5,0.5,0.5,8.3l-11.6,0.3c-0.3-5.2-2-12.7-3.6-14.9
			c-2-2.2-4.1-3.6-7.2-4.4s-6.6-1.4-11-1.4c-4.4,0-8,0.5-11,1.4c-3,0.9-5.2,2.2-7.2,4.4c-1.6,2.2-3,5-3.9,8.8
			c-0.9,3.6-1.1,9.7-1.1,15.5v9.1c0,5.8,0.3,12.4,1.1,16.3c0.9,3.6,2,6.6,3.9,8.8c1.6,2.2,4.1,3.6,7.2,4.4c3,0.9,6.6,1.4,11,1.4
			c4.4,0,8-0.5,11-1.4c3-0.9,5.2-2.2,7.2-4.4c2-2.2,3.3-7.7,3.3-14.1"/>
		
			<linearGradient id="XMLID_7_" gradientUnits="userSpaceOnUse" x1="1334.2045" y1="-456.9771" x2="414.7104" y2="-461.4049" gradientTransform="matrix(1 0 0 1 0 920)">
			<stop  offset="0" style="stop-color:#3DA760"/>
			<stop  offset="0.7308" style="stop-color:#00A3E1"/>
		</linearGradient>
		<path id="XMLID_219_" class="st6" d="M997.6,427.5c4.7-3.3,10.2-5.8,14.6-7.4c3.3-1.1,8-2,13-2c5.8,0,10.5,0.9,14.1,2.7
			c3.6,2,5.8,3.6,8,6.6c4.7-3.3,8.3-4.4,13-6.3c4.7-2,10.5-3,15.8-3c5,0,10.8,1.4,14.1,2.5c3.3,1.1,5.8,2.5,7.4,4.7
			c2,2.2,3.9,6.9,4.7,10.5c0.5,3.6,0.5,4.7,0.5,9.4v59.4l-12.7,0.3v-59.2c0-6.3-2.2-10.8-4.4-13.3c-2.2-2.2-6.1-5.2-11.9-5.2
			c-3.3,0-9.1,0.3-13,1.6c-3.9,1.6-6.1,2.7-9.7,5.5l0.3,70.5h-12.2v-59.4c0-3,0-5.8-0.9-7.7c-1.6-4.4-3.3-5.5-4.4-6.6
			c-1.1-1.4-3.6-2.5-5.5-3c-2-0.5-3.9-1.1-6.9-1.1c-3.3,0-7.7,0.3-11.6,2c-3.9,1.4-7.4,3.3-11,6.1l-0.5,70h-12.4v-84.4l10.2-0.3
			L997.6,427.5z"/>
		
			<linearGradient id="XMLID_8_" gradientUnits="userSpaceOnUse" x1="1334.2627" y1="-469.0598" x2="414.7684" y2="-473.4877" gradientTransform="matrix(1 0 0 1 0 920)">
			<stop  offset="0" style="stop-color:#3DA760"/>
			<stop  offset="0.7308" style="stop-color:#00A3E1"/>
		</linearGradient>
		<path id="XMLID_221_" class="st7" d="M1122,394.9h13.5v13.5H1122V394.9z M1122.3,420.4h13V505h-13V420.4z"/>
		
			<linearGradient id="XMLID_9_" gradientUnits="userSpaceOnUse" x1="1334.2468" y1="-465.7871" x2="414.7529" y2="-470.215" gradientTransform="matrix(1 0 0 1 0 920)">
			<stop  offset="0" style="stop-color:#3DA760"/>
			<stop  offset="0.7308" style="stop-color:#00A3E1"/>
		</linearGradient>
		<path id="XMLID_189_" class="st8" d="M556.3,395.5h13.5v13.6h-13.5V395.5z M556.6,420.9h13v84.6h-13V420.9z"/>
		
			<linearGradient id="XMLID_10_" gradientUnits="userSpaceOnUse" x1="1334.2072" y1="-457.4848" x2="414.7129" y2="-461.9121" gradientTransform="matrix(1 0 0 1 0 920)">
			<stop  offset="0" style="stop-color:#3DA760"/>
			<stop  offset="0.7308" style="stop-color:#00A3E1"/>
		</linearGradient>
		<path id="XMLID_224_" class="st9" d="M1163.5,420.4l1.6,8.3c4.7-3.3,9.1-5.8,13.8-7.4c4.7-1.6,9.9-2.5,16-2.5
			c5.2,0,9.7,0.5,13.5,1.4c3.9,1.1,6.9,2.7,9.1,5c2.5,2.2,4.1,5.5,5.2,9.4c1.1,3.8,1.6,8.6,1.6,14.1v56.1h-14.1v-55.8
			c0-3.6-0.5-9.7-1.1-12.2c-0.9-2.5-2-4.4-3.3-5.8c-1.3-1.3-3.6-2.5-5.8-3c-2.5-0.5-5.2-0.9-8.6-0.9c-4.4,0-8.6,0.9-13,2.2
			c-4.4,1.4-8.3,3-11.9,5.5v70h-13.3v-84.4H1163.5z"/>
		
			<linearGradient id="XMLID_11_" gradientUnits="userSpaceOnUse" x1="1334.1359" y1="-442.6719" x2="414.6416" y2="-447.0998" gradientTransform="matrix(1 0 0 1 0 920)">
			<stop  offset="0" style="stop-color:#3DA760"/>
			<stop  offset="0.7308" style="stop-color:#00A3E1"/>
		</linearGradient>
		<path id="XMLID_226_" class="st10" d="M1296.2,496.4c-3.9,2.7-6.9,4.7-11.3,6.3c-4.4,1.6-8.8,2.7-13.3,2.7c-5,0-9.4-0.5-13.5-1.6
			c-3.9-1.1-7.4-3-10.2-5.8c-2.7-2.7-5-6.6-6.3-11.6c-1.4-5-2.2-11.6-2.2-19.4v-10.2c0-8,0.9-14.4,2.2-19.4c1.4-5,3.6-8.8,6.3-11.6
			c2.7-2.8,6.1-4.7,10.2-5.8c3.9-1.1,8.6-1.6,13.5-1.6c4.7,0,9.4,0.9,14.1,2.7c4.7,2,9.1,4.4,13,7.2l0.3-8.3h11v85.7
			c0,9.7-3.6,18.5-8.8,23.2c-5,4.7-12.2,6.3-24.3,6.3c-4.4,0-8.8,0.9-13.5,0.3s-8.8-0.5-12.7-1.6l1.6-8.3c4.4,1.4,29,0.9,31.5,0.3
			c2.5-0.5,5.8-3,7.4-4.4c1.6-1.4,2.7-3.6,3.6-6.1c0.9-2.5,1.1-5.5,1.1-9.4v-9.7h0.4V496.4z M1274.1,427.3c-3.6,0-6.6,0.5-9.4,1.4
			c-2.5,0.9-4.7,2.2-6.3,4.4c-1.6,2.2-3.6,7.2-4.4,10.8c-0.9,3.6-1.1,8-1.1,13.3v9.7c0,5.5,0.3,9.9,1.1,13.5c0.9,3.6,2,8.3,3.9,10.5
			c1.6,2.2,3.9,3.6,6.3,4.4c2.4,0.9,5.8,1.1,9.4,1.1c3.9,0,8.8-0.3,13.3-2c4.4-1.6,7.4-3,10.8-5.8v-52.2c-3.3-3.3-7.2-5.8-11.6-7.4
			C1281.3,427.3,1277.7,427.3,1274.1,427.3z"/>
		
			<linearGradient id="XMLID_12_" gradientUnits="userSpaceOnUse" x1="1334.1259" y1="-440.6043" x2="414.6316" y2="-445.0322" gradientTransform="matrix(1 0 0 1 0 920)">
			<stop  offset="0" style="stop-color:#3DA760"/>
			<stop  offset="0.7308" style="stop-color:#00A3E1"/>
		</linearGradient>
		<path id="XMLID_204_" class="st11" d="M866.9,496.4c-3.9,2.7-6.9,4.7-11.3,6.3c-4.4,1.6-8.8,2.7-13.3,2.7c-5,0-9.4-0.5-13.5-1.6
			c-3.9-1.1-7.4-3-10.2-5.8c-2.7-2.7-5-6.6-6.3-11.6c-1.4-5-2.2-11.6-2.2-19.4v-10.2c0-8,0.9-14.4,2.2-19.4c1.4-5,3.6-8.8,6.3-11.6
			c2.7-2.7,6.1-4.7,10.2-5.8c3.9-1.1,8.6-1.6,13.5-1.6c4.7,0,9.4,0.9,14.1,2.7c4.7,2,9.1,4.4,13,7.2l0.3-8.3h11v85.7
			c0,9.7-3.6,18.5-8.8,23.2c-5,4.7-12.2,6.3-24.3,6.3c-4.4,0-8.8,0.9-13.5,0.3s-8.8-0.5-12.7-1.6l1.6-8.3c4.4,1.4,29,0.9,31.5,0.3
			c2.5-0.5,5.8-3,7.4-4.4c1.6-1.4,2.7-3.6,3.6-6.1c0.9-2.5,1.1-5.5,1.1-9.4v-9.7h0.4V496.4z M844.4,427.3c-3.6,0-6.6,0.5-9.4,1.4
			c-2.5,0.9-4.7,2.2-6.3,4.4c-1.6,2.2-3.6,7.2-4.4,10.8s-1.1,8-1.1,13.3v9.7c0,5.5,0.3,9.9,1.1,13.5c0.9,3.6,2,8.3,3.9,10.5
			c1.6,2.2,3.9,3.6,6.3,4.4c2.4,0.9,5.8,1.1,9.4,1.1c3.9,0,8.8-0.3,13.3-2c4.4-1.6,7.4-3,10.8-5.8v-52.2c-3.3-3.3-7.2-5.8-11.6-7.4
			C851.6,427.3,848.3,427.3,844.4,427.3z"/>
		
			<linearGradient id="XMLID_13_" gradientUnits="userSpaceOnUse" x1="1334.1981" y1="-455.671" x2="414.704" y2="-460.0984" gradientTransform="matrix(1 0 0 1 0 920)">
			<stop  offset="0" style="stop-color:#3DA760"/>
			<stop  offset="0.7308" style="stop-color:#00A3E1"/>
		</linearGradient>
		<path id="XMLID_230_" class="st12" d="M957.8,420.4l-2,6.9c0,0-9.9-6.3-14.6-7.7c-7.7-2.5-15.5-2-19.6-1.1
			c-3.6,0.5-10.5,3.6-13.5,5.8c-2.5,2-6.1,7.2-7.2,9.9c-1.4,3.3-2.5,10.5-2.7,13.8c-0.5,8-1.6,24.6,0,32.6
			c0.9,4.7,3.6,13.8,6.6,17.4c2.5,3,9.7,6.9,13.5,8c5,1.4,15.5,1.1,20.5,0c4.7-1.1,16.9-8.3,16.9-8.3l1.6,7.4h10.2v-84.8H957.8z
			 M955.1,489.5c0,0-11,6.3-15.2,7.4c-3.3,0.9-10.8,1.1-14.1,0c-2.7-0.9-7.2-2.2-10.5-6.3c-2.5-3-2.5-7.4-3-10.2
			c-1.6-8.8-1.6-26.8,0-35.7c0.5-2.5,0-4.7,2.5-9.1c2.2-3.9,5.2-5.8,7.7-6.9c3.6-1.6,12.2-2,16.3-1.1c4.4,0.9,16.6,6.6,16.6,6.6
			v55.3L955.1,489.5L955.1,489.5z"/>
	</g>
</g>
</svg>
