<?xml version="1.0" encoding="utf-8"?>
<!-- Generator: Adobe Illustrator 24.2.0, SVG Export Plug-In . SVG Version: 6.00 Build 0)  -->
<svg version="1.1" id="casino-payments" xmlns="http://www.w3.org/2000/svg" xmlns:xlink="http://www.w3.org/1999/xlink" x="0px"
	 y="0px" viewBox="0 0 1400 900" style="enable-background:new 0 0 1400 900;" xml:space="preserve">
<style type="text/css">
	.st0{fill:url(#card-form_1_);}
	.st1{fill:#FFFFFF;}
	.st2{fill:#FCDE00;}
</style>
<g id="ecopayz_4_">
	
		<linearGradient id="card-form_1_" gradientUnits="userSpaceOnUse" x1="700" y1="-1513.0078" x2="700" y2="-613.0078" gradientTransform="matrix(1 0 0 -1 0 -613.0078)">
		<stop  offset="0" style="stop-color:#B3B3B3"/>
		<stop  offset="0.6582" style="stop-color:#E6E6E6"/>
	</linearGradient>
	<path id="card-form_3_" class="st0" d="M1300,900H100C45,900,0,855,0,800V100C0,45,45,0,100,0h1200c55,0,100,45,100,100v700
		C1400,855,1355,900,1300,900z"/>
</g>
<g id="XMLID_320_">
	<polygon id="XMLID_373_" points="182.1,203.3 142.3,367.7 95.2,319 52.3,494.6 123.4,445.9 62.6,696.7 1231.5,696.7 1347.7,203.3 	
		"/>
	<g id="white">
		<polygon id="XMLID_365_" class="st1" points="498.6,415 502.5,400.3 542.2,400.3 584.8,224.6 397.7,224.6 355.6,400.3 
			398.9,400.3 394.6,415 351.9,415 309.1,593.6 495.4,593.6 538.7,415 		"/>
		<path id="XMLID_378_" class="st1" d="M1315.1,224.6H594l-42.2,175.7h67.4L615,415h-66.7l-42.9,178.6h722L1315.1,224.6z
			 M785.1,415.3H668.7l4-14.7h116.6L785.1,415.3z"/>
		<path id="XMLID_379_" class="st1" d="M302.1,415c0,0-0.3-6.3-1.9-7c-1-0.3-0.8-1.9,0-2.1c2.9-1,4.1-5.6,4.1-5.6h41.5l42.5-175.7
			H201l-42.5,175.7h37.6l-3.6,14.7h-37.4l-43.3,178.6H299L342.4,415L302.1,415L302.1,415z"/>
	</g>
	<polygon id="soft_bg" points="1205.8,570.5 696.3,570.5 775.4,249.5 1284.8,249.5 	"/>
	<polygon id="XMLID_327_" class="st2" points="77.9,458.7 103.7,354.9 151.4,405.1 	"/>
	<polygon id="XMLID_328_" class="st2" points="814.6,353.2 786.8,462.6 739.9,408.5 	"/>
	<g id="gaming">
		<path id="XMLID_345_" class="st1" d="M667.6,652.5h17.7c0.3,0,0.5,0.2,0.3,0.5l-2.4,9.9c0,0.2-0.2,0.3-0.3,0.3h-36.2
			c-0.3,0-0.5-0.2-0.3-0.5l7.7-28.5c0-0.2,0.2-0.3,0.3-0.3h36c0.2,0,0.5,0.2,0.3,0.5l-0.8,5.4c0,0.3,0.2,0.5,0.5,0.5l8-1.2
			c0.2,0,0.3-0.2,0.3-0.3c0.5-2.1,0.8-3.8,1.2-5.1c1.4-7.2-6.8-6-6.8-6h-37.4c-8.5,0-9.6,6.5-9.6,6.5s-4.3,15.2-7.2,26
			c-2.9,10.8,6,9.6,6,9.6s26.8,0,36.7,0s10.6-7,10.6-7s2.4-8.9,4.6-17.1c0-0.2-0.2-0.5-0.3-0.5h-27.7c-0.2,0-0.3,0.2-0.3,0.3
			L667,652C667.2,652.3,667.5,652.5,667.6,652.5z"/>
		<path id="XMLID_332_" class="st1" d="M1186.7,652.5h17.7c0.3,0,0.5,0.2,0.3,0.5l-2.4,9.9c0,0.2-0.2,0.3-0.3,0.3h-36.2
			c-0.3,0-0.5-0.2-0.3-0.5l7.7-28.5c0-0.2,0.2-0.3,0.3-0.3h36c0.2,0,0.5,0.2,0.3,0.5l-0.8,5.4c0,0.3,0.2,0.5,0.5,0.5l8-1.2
			c0.2,0,0.3-0.2,0.3-0.3c0.5-2.1,0.8-3.8,1.2-5.1c1.4-7.2-6.8-6-6.8-6h-37.4c-8.5,0-9.6,6.5-9.6,6.5s-4.3,15.2-7.2,26s6,9.6,6,9.6
			s26.8,0,36.7,0s10.6-7,10.6-7s2.4-8.9,4.6-17.1c0-0.2-0.2-0.5-0.3-0.5H1188c-0.2,0-0.3,0.2-0.3,0.3l-1.6,6.5
			C1186.1,652.3,1186.5,652.5,1186.7,652.5z"/>
		<path id="XMLID_334_" class="st1" d="M787,628l14.8,41.1c0.2,0.2-0.2,0.5-0.3,0.5h-7.7c-0.2,0-0.3-0.2-0.3-0.3l-3-10.4
			c0-0.2-0.2-0.3-0.3-0.3h-30.6c-0.2,0-0.2,0-0.3,0.2l-9.7,10.8c0,0-0.2,0.2-0.3,0.2h-7.1c-0.3,0-0.5-0.3-0.3-0.7l37-41.1
			c0,0,0.2-0.2,0.3-0.2h7.5C786.8,627.9,786.8,627.9,787,628z M763.9,653.7h24.2c0.3,0,0.5-0.3,0.3-0.5l-7.3-19.6
			c-0.2-0.3-0.5-0.3-0.7-0.2L763.5,653C763.4,653.2,763.6,653.7,763.9,653.7z"/>
		<path id="XMLID_337_" class="st1" d="M904.5,669.2l8.2-30.6c0.2-0.3-0.3-0.7-0.7-0.3L886.7,663c-1.2,1.2-3.2,0.8-4-0.7l-13.1-24.7
			c-0.2-0.3-0.7-0.3-0.7,0.2l-8.5,31.7c0,0.2-0.2,0.3-0.3,0.3h-6.2c-0.3,0-0.5-0.2-0.3-0.5l11.3-41.1c0-0.2,0.2-0.3,0.3-0.3h6
			c0.2,0,0.3,0,0.3,0.2l15,26.8c0.2,0.2,0.5,0.3,0.7,0.2l28.5-27.1c0,0,0.2-0.2,0.3-0.2h6.5c0.3,0,0.5,0.2,0.3,0.5l-11.3,41.1
			c0,0.2-0.2,0.3-0.3,0.3h-6C904.6,669.8,904.5,669.6,904.5,669.2z"/>
		<path id="XMLID_339_" class="st1" d="M974,669.2l11.6-41.1c0-0.2,0.2-0.3,0.3-0.3h6.7c0.3,0,0.5,0.2,0.3,0.5l-11.6,41.1
			c0,0.2-0.2,0.3-0.3,0.3h-6.7C974,669.8,973.8,669.6,974,669.2z"/>
		<path id="XMLID_341_" class="st1" d="M1091.3,669.8l-30.7-30.9c-0.2-0.2-0.5-0.2-0.7,0.2l-7.8,30.6c0,0.2-0.2,0.3-0.3,0.3h-6.8
			c-0.2,0-0.5-0.2-0.3-0.5l10.2-41c0-0.2,0.2-0.3,0.3-0.3h6.5c0.2,0,0.2,0,0.3,0.2l29.9,30.2c0.2,0.2,0.5,0.2,0.7-0.2l7.7-29.9
			c0-0.2,0.2-0.3,0.3-0.3h6.8c0.2,0,0.5,0.2,0.3,0.5l-10.2,41c0,0.2-0.2,0.3-0.3,0.3h-5.6C1091.4,669.8,1091.3,669.8,1091.3,669.8z"
			/>
	</g>
	<g id="soft">
		<path id="XMLID_348_" class="st2" d="M956,319.8c1.4-7,3.8-13.7,7.2-19.9c3.4-6.3,9.4-11.8,14.2-16.4c4.8-4.6,10.2-8.4,16.1-10.9
			c6-2.6,12-4,18.3-4c11.5,0,20.9,2.1,28,9.7c7.3,7.7,10.9,17.6,10.9,29.5c0,3.6-3.8,13.9-4.5,17.1l-42.9,172.9
			c-0.8,4.8-3,13.5-6.3,19.5c-3.4,6-7.3,11.5-11.8,16.4c-10.9,11.8-28.7,17.7-43,17.7s-24.4-5.8-30.2-17.4
			c-2.1-3.8-3.6-7.8-4.6-12.3c-1-4.5,0.2-8.7,0.2-13c0-4.1,2.1-7.8,2.7-11.3L956,319.8z M1017.2,316.1c0.2-1.2,0.3-2.2,0.5-3
			c0.2-0.7,0.2-1.6,0.2-2.2c0-6.3-4.6-11.1-10.4-11.1c-7.2,0-18.5,8.4-20.3,18.1l-46.6,185.9c-0.5,1.6-0.7,2.6-0.7,3.4
			c0,0.7,0,1.7,0,2.6c0,6.3,3.6,10.9,8.9,10.9c12.1,0,19.6-8,21.8-16.9L1017.2,316.1z"/>
		<path id="XMLID_351_" class="st2" d="M1149.5,299.2h-50.7l-22.5,94.9h48.3l-7.8,31.7h-48.3L1037,551.7h-32.3l70.9-283.2h80.4
			L1149.5,299.2z"/>
		<path id="XMLID_353_" class="st2" d="M1158.4,550.9h-31.2l63-252h-31.2l8.4-30.6h89.7c-0.2,0.7-7.8,30.6-7.8,30.6h-27.8
			L1158.4,550.9z"/>
		<g id="XMLID_363_">
			<path id="XMLID_364_" class="st2" d="M861.3,504.8c0,0,11.6-39.2,11.6-47.2c0-7.5,0-11.5-1.7-15.3c-1.6-4-3.8-7.8-6.5-11.8
				S849.2,416,844.9,411c-4.3-4.8-7.2-10.1-8.9-15.3c-1.7-5.4-1.7-12.4-1.2-19.8c0.2-2.7,0.5-5.8,1.2-9.4c0.5-3.4,14-53.8,14-53.8
				c1.4-4.5,4-9.2,7.3-14.5c3.4-5.1,7.7-10.1,13-14.8c11.5-10.6,23.7-15.3,36.9-14.3c10.4,0.7,21.7,4,28.4,11.8
				c10.6,12.8,6.7,31.9,6.7,31.9c-0.7,3.4-7,24.7-7,24.7l-31.2-0.8l5.1-16.4c4.5-19.1-7.3-19.8-13-19.9c-1,0-6.8,1.2-9.6,4.6
				c-2.2,2.6-4.6,6.2-6.2,11.1c-2.9,9.6-9.7,35.7-9.9,37c-0.8,7-2.7,15-0.7,20.9c2.1,5.8,6.2,16.4,17.1,25.3
				c10.2,8.5,13,12.1,16.2,19.9c3.2,7.8,4.3,16.1,4.3,23.1c0,12.6-12.3,52.9-16.1,68.1c-1.2,4.5-3.8,9.4-7.7,14.7
				c-4,5.3-8.5,10.2-13.9,14.8c-11.5,9.6-23.4,13.9-35.9,13c-11.1-0.8-22.9-6.7-28.4-14.2c-5.4-7.5-8.9-16.1-6.8-28.7
				c1.2-6.8,7-27.1,7-27.1l31.9,0.2c0,0-7.7,20.9-6,27.7C834.7,524.8,854.1,523.9,861.3,504.8z"/>
		</g>
	</g>
	<g id="bet">
		<path id="XMLID_330_" d="M624,551.6h-31.2l63-257.1h-31.2l8.4-30.6h89.8c-0.2,0.5-7.8,30.6-7.8,30.6H687L624,551.6z"/>
		<path id="XMLID_360_" d="M466.7,294.6l-23.4,96.6h50.2l-7.2,31.9h-51l-23.7,96.6h50l-7.7,30.7h-80.6L444,262.8h81.3l-7.3,31.7
			C517.9,294.6,466.7,294.6,466.7,294.6z"/>
		<path id="XMLID_356_" d="M304.5,375.1c-1.4,6.3-9.2,23.9-16.7,28.7c-1.2,0.8-1.4,2.6-0.3,3.6c9.1,8.7,5.1,28,5.1,28l-12.3,54.8
			c-2.9,15.3-14.5,60.4-67.9,60.4l-41.3,0.2l69.1-287.5h50.5c8.7,0.2,19.5,5.6,24.1,10.8c4.6,5.3,9.2,20.5,7.2,29.7
			C317.5,324,304.5,375.1,304.5,375.1z M208.7,519.3l11.1,0.3c8.5,0.7,16.6-2.9,19.5-5.6c2.7-2.7,4.6-6.2,5.4-10.2l14.2-60.1
			c0,0,2.2-10.4,2.2-11.6c0.2-4.5-4.8-10.1-10.2-10.2c-4.8-0.2-17.6,0-17.6,0L208.7,519.3z M241.5,389.7c0,0,12.1,0.8,16.1,0
			c6.5-1.6,12.8-5.1,15.5-14.5l16.6-68.1c1.2-8.7-7.8-13.7-13.7-13.9H265L241.5,389.7z"/>
	</g>
</g>
</svg>
