<?xml version="1.0" encoding="utf-8"?>
<!-- Generator: Adobe Illustrator 24.2.0, SVG Export Plug-In . SVG Version: 6.00 Build 0)  -->
<svg version="1.1" id="casino-payments" xmlns="http://www.w3.org/2000/svg" xmlns:xlink="http://www.w3.org/1999/xlink" x="0px"
	 y="0px" viewBox="0 0 1400 900" style="enable-background:new 0 0 1400 900;" xml:space="preserve">
<style type="text/css">
	.st0{fill:url(#card-form_1_);}
	.st1{fill:#231F20;}
	.st2{fill:#A3A3A3;}
	.st3{fill:url(#SVGID_1_);}
	.st4{fill:url(#SVGID_2_);}
	.st5{fill:url(#SVGID_3_);}
</style>
<g id="ecopayz_4_">
	
		<linearGradient id="card-form_1_" gradientUnits="userSpaceOnUse" x1="700" y1="2415.0078" x2="700" y2="1515.0078" gradientTransform="matrix(1 0 0 1 0 -1515.0078)">
		<stop  offset="0" style="stop-color:#B3B3B3"/>
		<stop  offset="0.6582" style="stop-color:#E6E6E6"/>
	</linearGradient>
	<path id="card-form_3_" class="st0" d="M1300,900H100C45,900,0,855,0,800V100C0,45,45,0,100,0h1200c55,0,100,45,100,100v700
		C1400,855,1355,900,1300,900z"/>
</g>
<g>
	<path class="st1" d="M161.6,382.4h92.4l2.3,31.3h-5.5c-2.2-12.9-2.4-15.5-7.2-20.5c-4.7-5-14-4.5-21.6-4.5h-23.7
		c-1.6-0.1-3.2,0.5-4.3,1.6c-1.1,1.3-1.6,3-1.5,4.7v39.7H203c5.2,0.2,10.1-2,13.5-6c3.9-5.3,5.9-11.8,5.6-18.3h5.6v56h-5.6
		c-0.3-9.3-2.2-15.9-5.6-19.9c-3.6-4.1-8.9-6.3-14.3-6h-9.4v44.9c-0.1,1.5,0.6,3,1.7,4c1.7,1.1,3.8,1.6,5.8,1.4h18.7
		c20.3,0,32-6.6,35.1-32.6h5.9l-2.1,38.7h-96.2v-6.1h5.1c2.4,0.2,4.8-0.3,6.8-1.7c1.4-1.2,2.1-3,2-4.9v-89.4
		c0.1-1.7-0.5-3.5-1.7-4.7c-1.5-1.2-3.5-1.7-5.4-1.6h-6.8L161.6,382.4z"/>
	<path class="st1" d="M252.4,420.3h41.8v5.5c-3.3-0.2-6.5,0.3-9.6,1.3c-1.3,0.6-2.1,2-2.1,3.4c0,1.2,0.3,2.4,0.8,3.4l20.3,45.2
		l18.5-43.8c0.3-0.7,0.4-1.5,0.4-2.3c0-4-3.9-6.4-11.7-7.4v-5.5h31.7v5.5c-2.7,0.2-5.4,1.1-7.7,2.6c-2,1.5-3.5,3.5-4.4,5.7l-28,65
		H298l-30.1-66.8c-0.8-2-2.2-3.8-4-5c-3.7-1.1-7.6-1.6-11.4-1.5L252.4,420.3z"/>
	<path class="st1" d="M372,418.1c9.9-0.2,19.3,3.9,25.9,11.2c7.2,8,11,18.6,10.5,29.4c0.2,7.4-1.4,14.8-4.7,21.4
		c-3.1,5.8-7.7,10.7-13.4,14c-5.7,3.4-12.2,5.2-18.8,5.1c-9.6,0.1-18.9-4-25.2-11.3c-13.8-17.1-13.8-41.5,0-58.6
		C352.9,422,362.2,417.9,372,418.1z M372,423.9c-6.1,0-11.8,3.1-15,8.3c-3.9,5.5-5.9,14.3-5.9,26.2c0,11.9,2,20.8,5.9,26.6
		c3.2,5.2,8.9,8.4,15.1,8.4c6.3,0.1,12.1-3.1,15.5-8.4c3.9-5.6,5.9-14.7,5.9-27.4c0-11.8-2-20.4-5.9-25.6
		C384,426.8,378.2,423.8,372,423.9L372,423.9z"/>
	<path class="st1" d="M433.9,381v104.6c-0.1,1.3,0.5,2.5,1.4,3.4c1.4,1.1,3.2,1.7,5,1.6h4.9v6.1h-37.1v-6.1h4.5c2,0.2,4-0.5,5.6-1.8
		c1.3-1.4,2-3.2,1.8-5.1V397c0.2-2.2-0.6-4.4-2.2-6c-2.1-1.8-4.7-2.7-7.4-2.6h-6.8v-6.1L433.9,381z"/>
	<path class="st1" d="M472.6,419v50.7c-0.3,5.2,1.4,10.4,4.7,14.4c3.1,3.4,7.5,5.2,12.1,5.1c6,0,11.8-2.7,15.5-7.4
		c4.3-5.2,6.6-11.8,6.4-18.5v-28.6c0.1-2.4-0.9-4.6-2.8-6.1c-3.3-1.8-7.1-2.6-10.8-2.4v-5.7l26.9-1.4v62.8c-0.2,2.5,0.7,4.9,2.5,6.7
		c1.9,1.6,4.3,2.5,6.8,2.3h4.8v5.4l-25.7,0.6l-1.6-15c-3.9,4.8-8.5,8.9-13.7,12.2c-4.2,2.6-9.1,4-14,4.1c-6.5,0.2-12.8-2.3-17.4-6.8
		c-4.7-4.6-7.1-12.3-7.1-23.3v-33.3c0.2-2.7-1.1-5.4-3.4-6.8c-3.2-1.4-6.6-2-10.1-1.8v-5.7L472.6,419z"/>
	<path class="st1" d="M554.2,389.2h5.5v31.2h46.6v7.4h-46.6v49.1c-0.2,3.5,0.8,7,3,9.8c1.9,2.2,4.7,3.5,7.7,3.4
		c3.8-0.1,7.4-2,9.5-5.1c3.1-5.1,4.7-11.1,4.6-17.1h5.5c-0.3,10.2-2.6,17.7-6.8,22.7c-4.2,4.9-10.3,7.6-16.7,7.4
		c-5.4,0.3-10.8-1.6-14.8-5.2c-3.6-3.6-5.6-8.6-5.3-13.7v-51.2h-13.3v-5.7c5.4-0.7,10.3-3.4,13.7-7.6
		C551.7,407,554.4,398.2,554.2,389.2z"/>
	<path class="st1" d="M589.8,420.3l30.5-0.9v65.8c-0.1,1.4,0.3,2.8,1.3,3.8c1.3,1.1,3,1.7,4.7,1.6h5.5v6.1h-37.2v-6.1h4.9
		c1.9,0.2,3.8-0.4,5.3-1.7c1.2-1.4,1.8-3.2,1.7-5.1v-46.7c0.2-2.6-0.8-5.1-2.6-6.8c-2.2-1.7-5-2.5-7.8-2.3h-6.3V420.3z M611.1,384.2
		c2.4,0,4.8,1,6.5,2.8c1.8,1.7,2.8,4.1,2.8,6.6c0,2.4-1,4.7-2.7,6.4c-3.6,3.5-9.4,3.5-12.9-0.2c-3.5-3.6-3.5-9.4,0.2-12.9
		C606.5,385.2,608.8,384.3,611.1,384.2L611.1,384.2z"/>
	<path class="st1" d="M670.3,418.1c9.9-0.2,19.3,3.9,25.9,11.2c7.2,8,11,18.6,10.5,29.4c0.2,7.4-1.4,14.8-4.7,21.4
		c-3.1,5.8-7.7,10.7-13.4,14c-5.7,3.4-12.2,5.2-18.8,5.1c-9.6,0.1-18.9-4-25.2-11.3c-13.8-17.1-13.8-41.5,0-58.6
		C651.2,422,660.6,417.9,670.3,418.1z M670.3,423.9c-6.1,0-11.8,3.1-15,8.3c-3.9,5.5-5.9,14.3-5.9,26.2c0,11.9,2,20.8,5.9,26.6
		c3.2,5.2,8.9,8.4,15.1,8.4c6.3,0.1,12.1-3.1,15.5-8.4c3.9-5.6,5.9-14.7,5.9-27.4c0-11.8-2-20.4-5.9-25.6
		C682.4,426.8,676.5,423.8,670.3,423.9L670.3,423.9z"/>
	<path class="st1" d="M705.2,420.3l25.4-1.5c1.1,5.6,1.9,11.2,2.3,16.8c3-5.1,7.1-9.4,12.1-12.5c4.8-2.8,10.3-4.3,15.8-4.2
		c4.4-0.2,8.8,0.9,12.7,3c3.7,2.2,6.5,5.5,8.2,9.4c2.1,4.5,3.2,9.5,3.1,14.4v37.2c-0.2,2.1,0.5,4.3,1.9,5.9c1.8,1.3,4.1,2,6.3,1.7
		h2.2v6.1h-34v-6.1h0.7c2.6,0.3,5.3-0.3,7.5-1.7c1.5-1.3,2.3-3.2,2.1-5.1v-32.8c0.3-5.5-0.9-11-3.4-15.8c-2.9-4.8-8.3-7.7-13.9-7.4
		c-6-0.1-11.7,2.7-15.4,7.4c-4.3,5.5-6.5,12.4-6.2,19.4v28.3c-0.2,2.2,0.5,4.3,1.9,5.9c1.8,1.3,4.1,2,6.3,1.7h2.2v6.1h-34.2v-6.1
		h2.2c2.2,0.1,4.3-0.4,6.1-1.6c1.3-0.9,2.1-2.5,2.1-4.1v-49.4c0.2-2.7-0.8-5.4-2.7-7.4c-2.1-1.8-4.9-2.7-7.6-2.5H705L705.2,420.3z"
		/>
	<path class="st1" d="M894.2,392l6.8-12.1h5.5l3,48.2h-5.3c-4.1-13.9-8.9-23.9-14.4-30.1c-5.9-7.4-14.8-11.7-24.3-11.8
		c-6.9-0.2-13.6,2-19.2,6c-6,4.5-10.4,10.8-12.8,17.9c-3.4,9.8-4.9,20.1-4.4,30.4c-0.5,10.1,1,20.1,4.4,29.6
		c2.3,6.9,6.5,13,12.3,17.4c5.4,3.8,11.8,5.7,18.3,5.6c8.2,0.5,16.2-2.4,22.1-8c5.3-5.5,8.1-12.9,7.8-20.5v-11.4
		c0.1-1.7-0.7-3.2-2.1-4.2c-2.1-1.2-4.5-1.7-6.8-1.5h-10.3v-5.7h47.5v5.7h-3.7c-2.3-0.2-4.6,0.3-6.5,1.6c-1.3,1.1-2.1,2.9-2,4.6
		v45.9h-5.4c-2-7.2-4-14-6.1-20.5c-3.6,6.1-8.6,11.3-14.6,15.1c-5.8,3.4-12.4,5.1-19.2,5c-10,0.1-19.8-2.7-28.3-7.8
		C809.4,474.3,800.4,439,816,411c4.8-9.3,12-17.1,20.8-22.7c7.9-5.3,17.1-8.3,26.7-8.4c5,0,10,0.8,14.7,2.6
		C883.9,384.8,889.3,388,894.2,392z"/>
	<path class="st1" d="M1003.7,490.9l1.3,2.3c0,4.3-5.2,3.8-10.1,3.8c-3.7,0-11.1-0.2-13.7-2.1c-2.6-1.9-3.6-4.1-5.5-9.2
		c-3.9,4.4-8.5,8.1-13.7,10.9c-4.5,1.9-9.3,2.9-14.1,2.7c-6.4,0.5-12.7-1.3-17.9-5.1c-4-3.1-6.2-7.9-6.1-13c0-7.9,4.7-14.5,14-19.8
		c11.6-5.9,24.3-9.5,37.3-10.5v-11.6c0-4.1-1.8-8-5-10.6c-3.5-3-8-4.6-12.7-4.4c-4.3-0.1-8.5,0.9-12.3,2.9c-2.4,1.5-3.7,2.9-3.7,4.3
		c0.3,1.4,1,2.8,2,3.8c1.4,1.6,2.2,3.7,2.4,5.8c0.1,2.2-0.8,4.4-2.4,6c-1.7,1.6-3.9,2.4-6.2,2.3c-2.6,0.1-5.1-0.9-6.8-2.8
		c-1.8-1.9-2.8-4.5-2.7-7.1c0-5.4,3-10.3,9.1-14.8c7-4.8,15.4-7.2,24-6.8c7.4-0.5,14.8,1.6,20.8,5.9c4.5,3.4,7.2,8.8,7.2,14.4v41.8
		c-0.1,2.5,0.5,5,1.8,7.2c1,1.5,2.5,2.6,4.3,3C997.9,490.8,1000.8,490.9,1003.7,490.9z M975.3,456.3c-13.8,1.9-23.6,5-29.4,9.3
		c-4.3,3.3-6.7,8.5-6.4,13.9c-0.2,3.6,1,7.1,3.4,9.8c2.3,2.3,5.5,3.6,8.7,3.4c6.3,0,12.4-2.6,16.7-7.3c4.7-4.9,7.3-11.5,7.1-18.3
		L975.3,456.3z"/>
	<path class="st1" d="M1001,420.4l21.9-1.4c1.1,5.4,1.9,10.8,2.4,16.3c3.2-5,7.4-9.3,12.4-12.6c4.1-2.4,8.9-3.7,13.7-3.7
		c4.7-0.2,9.3,1.3,13.1,4.1c3.9,3.6,6.7,8.3,7.9,13.5c3-5.3,7.2-9.8,12.2-13.2c4.3-2.9,9.4-4.4,14.6-4.4c5.9-0.4,11.7,1.8,15.6,6.2
		c4.7,6,7.1,13.5,6.8,21.1v38c-0.2,1.7,0.4,3.5,1.7,4.7c2,1.4,4.4,2.1,6.8,1.9h3.6v6.1h-38.5v-6.1h3.8c2.4,0.2,4.8-0.4,6.8-1.6
		c1.4-1.3,2.1-3.1,2-4.9v-38c0.3-4.8-1.2-9.5-4.1-13.2c-2.8-3.1-6.8-4.8-10.9-4.7c-3.3,0-6.5,0.9-9.3,2.7c-2.9,1.9-5.1,4.6-6.5,7.8
		c-2,3.8-3.2,8-3.4,12.4v33c-0.2,1.8,0.5,3.7,1.8,5c1.6,1.2,3.6,1.7,5.5,1.6h5.2v6.1h-39.2v-6.1h4.5c2.2,0.2,4.4-0.4,6.2-1.6
		c1.3-1,2.1-2.5,2.1-4.2v-35.3c0.5-5.7-0.9-11.4-4-16.3c-2.5-3.3-6.5-5.2-10.7-5.1c-5.1-0.3-10.1,1.9-13.3,5.9
		c-4.4,5.5-6.7,12.4-6.6,19.4v30.5c-0.2,1.8,0.3,3.5,1.5,4.8c2,1.3,4.4,1.9,6.8,1.7h3.9v6.1H999v-6.1h5.8c1.8,0.1,3.6-0.5,5-1.6
		c1.2-1.1,1.8-2.6,1.7-4.2v-50.1c0.2-2.3-0.6-4.5-2.1-6.2c-2.5-1.7-5.5-2.6-8.5-2.6V420.4z"/>
	<path class="st1" d="M1135.5,420.4l27.4-0.9v65.8c-0.1,1.4,0.3,2.8,1.3,3.8c1.3,1.1,3,1.7,4.7,1.6h8.7v6.1h-46.8v-6.1h11.3
		c1.9,0.2,3.8-0.4,5.3-1.7c1.2-1.4,1.8-3.2,1.7-5.1v-48.2c0.2-2.6-0.8-5.1-2.6-6.8c-2.2-1.7-5-2.5-7.8-2.3h-3.1L1135.5,420.4z
		 M1153.6,384.2c2.4,0,4.8,1,6.4,2.8c1.8,1.7,2.8,4.1,2.8,6.5c0,2.4-1,4.7-2.7,6.4c-3.6,3.5-9.4,3.5-12.9-0.2
		c-3.5-3.6-3.5-9.4,0.2-12.9C1149,385.2,1151.2,384.3,1153.6,384.2L1153.6,384.2z"/>
	<path class="st1" d="M1175.3,420.4l25.4-1.5c1.1,5.5,1.9,11.2,2.3,16.8c3-5.1,7.1-9.4,12.1-12.5c4.8-2.8,10.3-4.3,15.8-4.2
		c4.4-0.2,8.8,0.9,12.7,3c3.6,2.2,6.5,5.5,8.2,9.4c2.1,4.5,3.2,9.5,3.1,14.4v37.2c-0.2,2.1,0.5,4.3,1.9,5.9c1.8,1.3,4.1,2,6.3,1.7
		h2.2v6.1h-34.1v-6.1h0.7c2.6,0.3,5.3-0.3,7.5-1.7c1.5-1.3,2.3-3.2,2.1-5.1v-32.8c0.3-5.5-0.9-11-3.4-15.8
		c-2.9-4.8-8.3-7.7-13.9-7.4c-6-0.1-11.7,2.7-15.4,7.4c-4.3,5.5-6.5,12.4-6.2,19.4v28.3c-0.2,2.2,0.5,4.3,1.9,5.9
		c1.8,1.3,4.1,2,6.3,1.7h2.2v6.1H1176v-6.1h5.3c2.2,0.1,4.3-0.4,6.1-1.6c1.3-0.9,2.1-2.5,2.1-4.1v-49.4c0.2-2.7-0.8-5.4-2.7-7.4
		c-2.1-1.8-4.9-2.7-7.6-2.5h-3.9L1175.3,420.4z"/>
	<path class="st1" d="M1323.4,424.7c5.4-5.5,20.5-13.7,25.5-13.7c2.8-0.4,5.6,0.4,7.8,2.2c1.8,1.7-1.4,5.7-1.4,8.2
		c0.1,1.9-0.6,3.7-1.8,5c-1.1,1.3-2.6,2-4.3,2c-3.1,0-5.2-1.9-6.3-5.7c-0.4-1.6-1.2-2.4-2.2-2.4c-4.9,1.7-9.5,4.4-13.4,7.8
		c2,2.6,3.6,5.4,4.8,8.4c0.9,2.4,1.3,5,1.3,7.6c0.1,4.4-1.1,8.8-3.4,12.5c-2.9,4.1-6.8,7.4-11.4,9.6c-4.7,2.6-9.9,4-15.2,4.2h-8.9
		c-4.3-0.4-8.6,0.3-12.6,2c-2,1.3-3.2,3.6-3.1,6c-0.1,2,0.9,3.8,2.5,4.9c3,1.4,6.3,2,9.6,1.7l20.2-0.4c10.2,0,17.5,1.7,22,5.1
		c4.5,3.2,7,8.5,6.8,14c0.1,6.4-2.7,12.4-7.7,16.5c-7.1,6.3-17.8,9.5-31.9,9.5c-11.7,0-20.4-2.2-26-6.5c-4-2.4-6.6-6.7-6.8-11.4
		c0.1-3.4,1.6-6.6,4.3-8.8c4.2-3.2,9.2-5.3,14.4-6c-4.5-0.9-8.7-2.8-12.2-5.8c-2.7-2.4-4.2-5.9-4.1-9.4c0-3.4,1.2-6.6,3.4-9.1
		c3.2-3.2,7.1-5.5,11.5-6.7c-4.2-2.2-7.8-5.4-10.4-9.3c-2.3-3.7-3.5-8.1-3.4-12.5c-0.1-7.2,3.1-14.1,8.7-18.6
		c6.4-5.2,14.5-7.9,22.7-7.5c3.7,0,7.5,0.5,11,1.6C1316.8,420.9,1320.3,422.5,1323.4,424.7z M1306.7,497c-10,0-17.2,1.4-21.4,4.2
		c-3.8,2-6.2,5.8-6.4,10.1c-0.1,3.6,1.8,6.9,4.8,8.7c5.5,3.2,11.8,4.6,18.1,4.2c7.4,0.5,14.7-1.1,21.2-4.7c4.7-3.1,7.1-6.5,7.1-10.3
		c0-2.3-0.8-4.5-2.2-6.2c-1.8-2.2-4.3-3.7-7-4.4C1316.3,497.4,1311.5,496.9,1306.7,497L1306.7,497z M1301.9,423.3
		c-4.6-0.1-9,1.9-12,5.3c-3.4,4.2-5.1,9.6-4.7,15c-0.4,5.7,1.3,11.4,4.7,16c5.6,6.7,15.6,7.5,22.3,1.8c0.7-0.6,1.3-1.2,1.8-1.8
		c3.4-4.5,5.1-10.2,4.7-15.8c0.3-5.5-1.4-10.8-4.8-15.1C1310.9,425.1,1306.5,423.2,1301.9,423.3L1301.9,423.3z"/>
	<path class="st1" d="M1351.8,411.4c2.4,0,4.8,1,6.4,2.8c1.8,1.7,2.8,4.1,2.8,6.5c0,2.4-1,4.7-2.7,6.4c-3.6,3.5-9.4,3.5-12.9-0.2
		c-3.5-3.6-3.5-9.4,0.2-12.9C1347.2,412.4,1349.4,411.5,1351.8,411.4L1351.8,411.4z"/>
	<path class="st2" d="M129.2,497.7h-1.8v-2.7h0.8c0.6-0.1,1.2,0,1.7,0.2c0.4,0.2,0.7,0.7,0.7,1.2C130.6,497,130,497.6,129.2,497.7
		c0,0-0.1,0-0.1,0 M132.2,496.3c0-0.8-0.3-1.6-1-2.2c-0.8-0.5-1.8-0.8-2.7-0.6h-2.8v8.8h1.7V499h1.5l1.7,3.3h1.9l-2-3.4
		c1.1-0.3,1.8-1.3,1.7-2.4 M128.9,505c-3.8,0-6.8-3.1-6.8-6.8c0-3.8,3.1-6.8,6.8-6.8c3.8,0,6.8,3.1,6.8,6.8
		C135.7,501.9,132.7,505,128.9,505 M128.9,489.7c-4.7,0-8.5,3.8-8.5,8.5c0,4.7,3.8,8.5,8.5,8.5c4.7,0,8.5-3.8,8.5-8.5
		C137.4,493.5,133.6,489.7,128.9,489.7C128.9,489.7,128.9,489.7,128.9,489.7"/>
	
		<linearGradient id="SVGID_1_" gradientUnits="userSpaceOnUse" x1="320.2766" y1="220.9273" x2="312.1296" y2="144.7974" gradientTransform="matrix(1 0 0 -1 -233.17 633.74)">
		<stop  offset="0" style="stop-color:#DADCDF"/>
		<stop  offset="1" style="stop-color:#A8A8A8"/>
	</linearGradient>
	<path class="st3" d="M39.1,378.6c40.7-21.7,93.2,1.2,97.2,56.5C60.9,441.1,51.8,407.1,39.1,378.6z"/>
	
		<linearGradient id="SVGID_2_" gradientUnits="userSpaceOnUse" x1="326.8725" y1="220.2096" x2="318.7255" y2="144.0797" gradientTransform="matrix(1 0 0 -1 -233.17 633.74)">
		<stop  offset="0" style="stop-color:#DADCDF"/>
		<stop  offset="1" style="stop-color:#A8A8A8"/>
	</linearGradient>
	<path class="st4" d="M39.1,497.2c40.7,21.7,93.2-1.2,97.2-56.5C60.9,434.6,51.8,468.8,39.1,497.2z"/>
	
		<radialGradient id="SVGID_3_" cx="297.464" cy="211.5496" r="77.7388" gradientTransform="matrix(1 0 0 -1 -233.17 633.74)" gradientUnits="userSpaceOnUse">
		<stop  offset="0" style="stop-color:#C2C2C2"/>
		<stop  offset="0.22" style="stop-color:#BDBDBD"/>
		<stop  offset="0.46" style="stop-color:#B0B0B0"/>
		<stop  offset="0.72" style="stop-color:#999999"/>
		<stop  offset="0.99" style="stop-color:#7A7A7A"/>
		<stop  offset="1" style="stop-color:#787878"/>
	</radialGradient>
	<path class="st5" d="M122.2,395.9C102.5,370.3,67.1,363,39,378.8c11.3,25.5,19.8,55.4,75.7,57.1c6.8-12.1,9.5-26.1,7.6-39.9V395.9z
		 M52.7,469.2c1.6,0,3.2,0.2,4.9,0.2c21.8,0,42.2-10.9,54.3-29.1C78.4,441.9,62.6,454.1,52.7,469.2L52.7,469.2z"/>
</g>
</svg>
