<?xml version="1.0" encoding="utf-8"?>
<!-- Generator: Adobe Illustrator 24.2.0, SVG Export Plug-In . SVG Version: 6.00 Build 0)  -->
<svg version="1.1" id="casino-payments" xmlns="http://www.w3.org/2000/svg" xmlns:xlink="http://www.w3.org/1999/xlink" x="0px"
	 y="0px" viewBox="0 0 1400 900" style="enable-background:new 0 0 1400 900;" xml:space="preserve">
<style type="text/css">
	.st0{fill:url(#card-form_1_);}
	.st1{fill:#E6642B;}
</style>
<g id="ecopayz_4_">
	
		<linearGradient id="card-form_1_" gradientUnits="userSpaceOnUse" x1="700" y1="-1513.0078" x2="700" y2="-613.0078" gradientTransform="matrix(1 0 0 -1 0 -613.0078)">
		<stop  offset="0" style="stop-color:#B3B3B3"/>
		<stop  offset="0.6582" style="stop-color:#E6E6E6"/>
	</linearGradient>
	<path id="card-form_3_" class="st0" d="M1300,900H100C45,900,0,855,0,800V100C0,45,45,0,100,0h1200c55,0,100,45,100,100v700
		C1400,855,1355,900,1300,900z"/>
</g>
<g id="Page-1">
	<g id="color_black" transform="translate(0.000000, -0.135038)">
		<g id="Group-3" transform="translate(150.000000, 0.104000)">
			<path id="Fill-1" class="st1" d="M473.9,191.6c-4.8-13.7-9.5-27.2-13.3-41c-3.9-14.2-6.8-28.5-8.9-43c-1.2-8.1-1-8.3,6.7-11
				c15.7-5.4,31.7-9.7,48-12.2c7.6-1.2,8-0.9,9,6.9c4.4,32.8,13.5,64.2,27.5,94.1c1.6,3.4,2.5,8.9,6.1,9.1c4.6,0.2,5.2-5.6,6.9-9.2
				c13.9-29.6,23-60.6,27.2-93.1c1.1-8.8,1.4-9,10.2-7.7c16.4,2.5,32.3,7.1,48,12.4c7.2,2.5,7,2.7,5.9,10.5
				c-3.7,26-10.5,51.1-19.4,75.8c-1,2.8-4,6.1-1.1,8.7c2.3,2.1,5.4-0.6,7.9-1.7c25.6-10.6,48-26.1,67.8-45.5
				c0.9-0.9,1.8-1.8,2.7-2.7c7.2-7.2,7.2-7.2,15.3-0.4c12,10,23.5,20.5,33.6,32.5c5.1,6,5,6.2-0.2,11.7
				c-38.4,40.2-84.8,66.7-138.8,79.9c-2.5,0.6-5,1.1-7.4,1.8c-5.8,1.8-6.3,3-1.8,7.6c14.8,15,31.1,28.3,48.6,40
				c5.5,3.6,5.7,3.5,12.1-2.5c27-25.2,57.4-45.3,91.1-60.6c9.8-4.5,20-8.3,30.1-12.1c6.9-2.6,8-2,10.9,4.9
				c6.3,15.3,11.8,30.9,15.3,47.2c1.6,7.3,1.5,7.7-6,10.3c-16.3,5.8-31.9,12.8-46.8,21.5c-9.6,5.6-19,11.7-27.9,18.4
				c-2.5,1.8-6.4,3.4-6,6.8c0.5,4.3,5.3,4,8.4,4.9c22.9,7.2,46.3,11.7,70.1,13.6c18,1.4,14.5,0.8,13.1,16.1
				c-1.3,14.3-4.1,28.4-8.2,42.1c-2.2,7.3-2.3,7.6-10,7c-26.1-1.9-51.8-6.6-76.9-14C660.1,400.1,605,367,558,320.2
				c-9.2-9.2-7.5-10.2-17.3-0.2c-49.8,50.2-109,84.3-177.4,102.1c-20.7,5.4-41.7,8.9-63,10.6c-9.8,0.7-9.7,0.5-12.5-8.7
				c-4.4-14.7-6.7-29.8-8.3-45c-1.2-10.1-1-10.5,9.8-11.2c23.3-1.6,46.1-5.5,68.5-12.2c4-1.2,7.9-2.5,11.8-3.9
				c3.4-1.2,3.7-3.4,1.1-5.6c-3.6-3.1-7.4-6-11.4-8.7c-21.1-14.5-43.5-26.5-67.7-34.9c-8.4-2.9-8.5-3.1-6.5-11.5
				c3.6-15.5,8.3-30.7,14.8-45.3c3.6-8.1,3.7-8.3,12-5.5c27.5,9.5,53.4,22.4,77.6,38.6C405,289,419.3,300.5,433,313
				c6.1,5.5,6.1,5.4,12.9,0.9c15.7-10.5,30.2-22.3,43.6-35.6c1.6-1.6,3.2-3.1,4.6-4.8c2.2-2.7,1.2-4.7-1.8-5.8
				c-1.8-0.7-3.7-1-5.5-1.5c-54.9-12.6-101.9-39.2-141.1-79.5c-0.9-0.9-1.7-1.8-2.7-2.7c-2.3-2.4-2.8-4.8-0.4-7.6
				c12.5-14.1,25.9-27.2,40.7-38.9c3.1-2.4,5.1-1,7.4,1.3c7.6,7.8,15.4,15.2,23.9,22c16.1,12.8,33.6,23,52.6,30.7
				C468.9,192.2,470.7,193.3,473.9,191.6"/>
		</g>
		<path id="Fill-4" class="st1" d="M698.5,623c-7.9,0-15.9,0.3-23.9-0.1c-7-0.4-8-1.7-8.1-8.9c-0.1-24.2-0.3-48.4,0.1-72.6
			c0.1-7.8-2.1-13.9-6.9-20c-26.4-33.9-52.4-68.1-78.5-102.1c-6.7-8.7-6.5-8.8,3.6-13.7c13.2-6.3,26.1-13.2,38.5-21
			c9.4-5.9,9.5-5.8,15.9,2.7c17.6,23,35.2,46,52.9,69c7,9.2,7.2,9.2,14.1,0.2c18-23.5,36-47,54-70.5c5.5-7.2,5.6-7.3,13-2.7
			c14,8.8,28.6,16.5,43.6,23.6c6.5,3.1,6.7,4.1,2.3,9.8c-27,35.4-54,70.9-81.3,106c-4.2,5.4-6,10.7-6,17.5
			c0.3,24.2,0.1,48.4,0.1,72.6c0,8.7-0.3,9.5-8.8,10c-8.2,0.6-16.6,0.1-24.8,0.1C698.5,623,698.5,623,698.5,623"/>
		<path id="Fill-6" d="M368.4,778.6c0,5.7-0.2,11.5,0.1,17.2c0.1,3.2-1.1,5.5-3.6,7.3c-21.8,16.5-51.8,16.7-70.1,5.3
			c-17.3-10.9-24.2-26.9-23.9-46.9c0.6-34.6,31.3-55.1,61.5-51.2c10.7,1.4,20.4,4.5,29.1,10.9c2.9,2.1,3.6,4.3,0.8,7
			c-0.9,0.9-1.6,2-2.5,2.9c-3,3.2-4.8,8.3-9,9.5c-4.1,1.2-7-3.5-10.7-5.3c-12-5.8-26.2-4.4-34.7,3.9c-10.5,10.1-13.3,25.4-7,38.6
			c5.5,11.7,16.8,18,30.5,16.8c4.5-0.4,8.8-1.3,12.9-3.3c2.4-1.2,4-2.7,4.4-5.6c1.1-8.4-0.1-10-8.6-10.1c-16.6-0.4-13.8,3-14.1-15
			c-0.1-3.7,0.4-5.9,5-5.9c11.5,0.3,22.9,0.2,34.4,0.1c4.1-0.1,5.7,1.6,5.5,5.7c-0.2,6-0.1,12.1-0.1,18.1L368.4,778.6L368.4,778.6z"
			/>
		<path id="Fill-8" d="M512.2,778.1c0,5.7-0.2,11.5,0.1,17.2c0.1,3.6-1.3,5.9-4,8.1c-18.3,14.6-48.2,17.2-68.6,5.9
			c-20.1-11.1-30.3-37-23.5-60.2c7.6-26.3,31.8-42.1,59.2-38.8c10.7,1.2,20.4,4.5,29.2,10.8c3.4,2.5,3.8,4.8,0.8,7.7
			c-0.9,0.9-1.6,2-2.5,2.9c-2.7,3.1-4.9,7.4-8.4,8.9c-4.1,1.8-6.9-3.3-10.5-5c-12.6-5.9-28.5-5.1-38.1,7
			c-9.8,12.4-9.9,29.9,0.3,42.3c8.1,9.9,26.5,13,38.7,6.7c4-2.1,6.3-9.8,4-14.1c-0.7-1.2-1.7-1.8-3-1.8c-1.9-0.1-3.9,0.1-5.7-0.2
			c-4.3-0.6-10.2,2.3-12.5-1.7c-2.6-4.5-0.8-10.6-0.8-16c0.1-2,1.5-2.7,3.2-2.8c12.8-0.1,25.4-0.1,38.2-0.1c2.8,0,3.9,1.5,3.9,4.3
			C512.2,765.4,512.2,771.8,512.2,778.1L512.2,778.1z"/>
		<path id="Fill-10" d="M1016.8,710.7c12.6-0.6,23.3,3.1,33.3,9.2c5.1,3.2,5.2,3.7,1.5,8.9c-2.7,3.9-4.4,9.5-8.7,10.9
			c-4,1.4-7.6-3.7-11.8-5c-3.6-1.1-7.2-2.5-10.9-3.5c-4.2-1.1-8.3-0.3-12,1.8c-5.8,3.4-5.9,10.5,0.1,13.7c3.9,2.1,8.3,3.2,12.5,4.5
			c7.9,2.4,15.9,4.3,23.3,8.4c10,5.6,14,13.9,13.6,25.2c-0.4,11.5-4.5,20.5-14.8,25.8c-15.4,8-31.4,6.5-47.2,0.7
			c-6-2.2-11.5-5.4-16.5-9.4c-2.5-2-3-3.9-0.5-6.3c1.4-1.3,2.5-2.9,3.7-4.3c2.3-2.6,4.3-6,7.2-7.4c3.7-1.8,5.7,3,8.7,4.6
			c7.2,3.9,14.5,6.3,22.7,6.3c2.9-0.1,5.7-0.4,8.3-1.7c6.6-3.4,7-10.4,0.7-14.2c-5.5-3.3-11.9-4.5-17.9-6.4
			c-4.8-1.6-9.8-2.7-14.5-4.6c-10.3-4.2-16.4-11.6-17-23.1c-0.7-12.4,3-22.5,14.1-29.1C1001.7,711.6,1009.4,710.1,1016.8,710.7"/>
		<path id="Fill-12" d="M140.7,717.7c7.5-1.6,15.1-0.4,22.7-0.8c3.6-0.2,4.8,2.7,6.3,5.1c5.1,8.4,10.1,11.5,15.2,20
			c1.6,2.7,3.4,5.4,4.9,7.9c3.2,0,3.7-2.6,4.8-4.3c5.9-9.5,11.8-18.9,17.3-28.6c2.1-3.7,4.5-5.8,8.9-5.6c6.3,0.2,12.6,0.1,18.6,0.1
			c1.8,3.4-0.3,4.9-1.4,6.6c-10.1,15.8-20.1,31.7-30.4,47.4c-3.5,5.3-5.4,10.5-5,16.9c0.4,8.3,0.2,16.6,0.1,24.8
			c-0.1,7-0.2,7-6.7,7.2c-16.4,0.7-17.5,0.6-16.2-15.4c1.3-17.2-3.2-26.1-13.5-39.8c-8.2-10.9-14.9-22.9-22.1-34.5
			C142.6,722.7,140.6,720.9,140.7,717.7"/>
		<path id="Fill-14" d="M1184.8,762.2c0-14.3-0.1-28.6,0-43c0.1-7.6,0.1-7.6,7.2-7.7c16.1-0.4,16.1-0.4,16.1,15.9
			c0,19.4,0,38.8,0.1,58.2c0,7.3,0.1,7.4,7.2,7.5c12.4,0.1,24.8-0.1,37.3,0.1c6.7,0.1,6.8,0.2,6.8,7c-0.1,17.3,1.8,14.2-13.8,14.4
			c-17.8,0.2-35.6,0.1-53.5,0c-7.2-0.1-7.3-0.2-7.3-7.4c-0.1-14.9,0-29.9,0-44.9L1184.8,762.2L1184.8,762.2z"/>
		<path id="Fill-16" d="M1130.6,762.9c0,14.7,0.1,29.3,0,44c-0.1,7.6-0.1,7.6-7.1,7.7c-16.5,0.4-16.6,0.4-16.6-16.4
			c-0.1-25.8-0.1-51.6,0-77.4c0-9.1,0.1-9.1,8.6-9.2c15.1-0.2,15.1-0.2,15.1,15C1130.6,738.7,1130.6,750.7,1130.6,762.9"/>
		<path id="Fill-18" d="M759.2,759.4c-8.9,3.4-18.2,1.4-27.3,1.6c-2.4,0.1-2.8-2.1-2.9-4.1c-0.1-3.5,0-7,0-11.4
			c0.3-15.3-2.4-12.6,14.2-12.9c5.1-0.1,10.1,0.1,15,1.7c5.7,1.9,9.1,6,9.6,11.7C768.3,751.6,764.9,757.2,759.2,759.4 M770.6,778.8
			c1.9-1.4,2.6-2.1,3.4-2.5c14.4-7.4,19.7-22.6,16.7-38.3c-2.9-15.1-12.8-23.4-30.4-25.6c-16.8-2.1-33.7-0.4-50.6-0.9
			c-4.3-0.1-4.4,2.6-4.4,5.7c0.1,30.6,0.1,61.1,0,91.7c0,3.9,1,6,5.4,5.6c4.1-0.3,8.3-0.3,12.4,0c4.6,0.3,6.2-1.6,6-6.1
			c-0.3-7-0.1-14-0.1-21c0-1.9,0-3.8,2.2-4.8c5.5-2.5,14.7,0.2,18.3,5.5c5,7.3,10,14.8,15,22.1c1.4,2.1,2.6,4.3,5.8,4.2
			c7.5-0.1,14.9-0.1,24.6-0.1C786.2,801.6,778.6,790.4,770.6,778.8"/>
		<path id="Fill-20" d="M632.7,766.3c-1.3,15.7-12.7,26.1-29.4,26.8c-1.9,0.1-3.8,0-5.7,0c-13.8-0.1-11.9,1.5-12-12.4
			c-0.1-12.8,0-25.4-0.1-38.2c0-11.5-0.3-10,10.5-10c3.8,0,7.7,0.1,11.4,0.8C624,736.4,634,749.7,632.7,766.3 M613.3,712.8
			c-15.5-2.6-31.2-0.7-46.7-1.3c-4.2-0.2-4.4,2.5-4.4,5.6c0.1,30.6,0.1,61.1,0,91.7c0,4.9,2.1,5.9,6.4,5.8c6-0.2,12.1-0.1,18.1-0.1
			v-0.1c6.4,0,12.8,0.3,19.1-0.1c16.2-1.1,30.7-6.5,40.7-19.9C670.6,762.5,652.9,719.3,613.3,712.8"/>
		<path id="Fill-22" d="M873.2,770.6c4.3-10.3,8-19.2,12.4-29.9c5.1,10.7,8.8,19.8,12.1,29.9H873.2z M937.3,806.4
			c-11.8-27.8-23.6-55.7-35.5-83.5c-6.4-14.9-3.7-11.2-18.7-12.1c-6.1-0.3-8.9,2-11.2,7.5c-12.1,29.1-24.6,58-36.9,87
			c-1.2,2.8-2.9,5.5-2.2,9.3c6.2,0,11.9-0.2,17.6,0.1c3.9,0.2,5.8-1.5,7-5c1.5-4.2,3.4-8.2,5-12.4c1.4-3.7,3.5-5.6,7.8-5.5
			c10.5,0.2,21,0.2,31.5,0.1c3.7-0.1,5.9,1.4,7.2,4.9c1.7,4.5,3.5,8.9,5.3,13.3c1,2.4,2,4.6,5.3,4.6c6.6-0.1,13.2-0.1,19.5-0.1
			C940,810.8,938.3,808.7,937.3,806.4z"/>
	</g>
</g>
</svg>
