<?xml version="1.0" encoding="utf-8"?>
<!-- Generator: Adobe Illustrator 24.2.0, SVG Export Plug-In . SVG Version: 6.00 Build 0)  -->
<svg version="1.1" id="casino-payments" xmlns="http://www.w3.org/2000/svg" xmlns:xlink="http://www.w3.org/1999/xlink" x="0px"
	 y="0px" viewBox="0 0 1400 900" style="enable-background:new 0 0 1400 900;" xml:space="preserve">
<style type="text/css">
	.st0{fill:url(#card-form_1_);}
	.st1{fill:#02529B;}
</style>
<g id="ecopayz_4_">
	
		<linearGradient id="card-form_1_" gradientUnits="userSpaceOnUse" x1="700" y1="-1513.0078" x2="700" y2="-613.0078" gradientTransform="matrix(1 0 0 -1 0 -613.0078)">
		<stop  offset="0" style="stop-color:#B3B3B3"/>
		<stop  offset="0.6582" style="stop-color:#E6E6E6"/>
	</linearGradient>
	<path id="card-form_3_" class="st0" d="M1300,900H100C45,900,0,855,0,800V100C0,45,45,0,100,0h1200c55,0,100,45,100,100v700
		C1400,855,1355,900,1300,900z"/>
</g>
<g>
	<path class="st1" d="M88.5,540h40.5v-3.5c-1.4,0-4.2,0-4.2-2.8V413.6l112.4,118.7c1.4,4.2-2.8,3.5-5.6,3.5v4.2H275v-3.5
		c-2.1,0-4.2,0-4.9-4.2V368.9c0-2.1,2.1-2.8,4.9-2.8v-3.5h-43.3v3.5c4.2,0,5.6,0.7,5.6,4.9v109.6L134,369.6
		c-1.4-2.1-1.4-3.5,3.5-2.8v-3.5H87.9v3.5c2.8,0,4.9,0,4.9,2.1l-0.7,164.8c0,2.1-1.4,2.1-4.2,2.8L88.5,540z M1284.8,522.5
		c9.1-5.6,5.6-4.9,13.3-9.1c1.4-1.4,8.4-6.3,11.2-1.4l2.8-1.4l-25.2-36.3l-2.8,1.4c1.4,6.1-1.5,12.4-7,15.4
		c-62.9,54.5-153.6,7-127.1-65.6c22.3-51,90.1-46.1,125-23c2.7,2.1,4,5.6,3.5,9.1l4.2,1.4l23-37l-2.1-1.4c-9.1,5.6-7.7,3.5-16,0
		c-28.8-15.1-61.7-20-93.6-14c-58,12.5-87.3,53.7-76.8,110.4c20.3,69.8,108.2,90.8,167.6,51C1284.8,521.9,1284.8,522.5,1284.8,522.5
		z M463.6,518.4h32.8v-2.8c-2.8,0-3.5-2.1-2.8-4.2l49.6-113.1c1.4-4.2,2.8-4.2,4.2-4.2V392h-32.1v2.1c2.1,0,4.2,1.4,3.5,3.5
		l-36.2,87.2l-40.5-86.6c-0.7-1.4-1.4-4.9,2.8-4.9v-2.1h-34.2v2.1c4.9,0.7,4.2,2.1,5.6,4.2l50.3,113.9c0.9,0.9,0.9,2.1,0,2.9
		c-0.6,0.6-1.4,0.8-2.1,0.6v3.5C464.2,518.4,463.6,518.4,463.6,518.4z M955.9,511.4l-32.8-69.8l-19.5-41.9c-1.2-1.5-0.9-3.7,0.7-4.9
		c0.6-0.4,1.3-0.7,2.1-0.7V392H870v2.1c4.2,0,4.2,2.8,3.5,4.9L854,441.6l-7.7,16l-25.2,55.2c-0.7,1.4-0.7,2.8-2.8,2.8v2.8h30.1v-2.8
		c-4.2,0-2.1-3.5-2.1-5.6l12.5-26.6h58l12.5,26.6c0.7,2.8,1.4,5.6-3.5,5.6v2.8h33.5v-2.8C957.3,515.6,957.3,514.2,955.9,511.4z
		 M905,461.8h-35.6l-0.7-1.4l9.1-19.5l9.1-20.9l9.8,20.9l9.1,19.5L905,461.8L905,461.8z"/>
	<path class="st1" d="M821.1,515.6c-2.1,0-4.2,0-4.2-3.5V397.5c0-1.4,2.1-2.1,3.5-2.8v-1.4h-37v2.1c2.1,0,4.2,2.1,3.5,3.5
		l-38.4,71.2l-37-69.8c-0.8-1.8,0-3.9,1.8-4.6c0.6-0.2,1.1-0.3,1.7-0.3v-2.1h-36.3v2.1c2.3,0,4.2,1.8,4.3,4.1l-0.1,0.8v113.9
		c0,1.4-1.4,2.8-4.2,2.8v2.8h27.9V517c-2.1,0-4.2-0.7-4.2-2.8v-79.6l44,84.5l46.1-86.6v79.6c0,2-1.6,3.5-3.5,3.5v2.8h30.7
		L821.1,515.6z M1011.1,518.4v-2.8c-1.4,0-4.2,0-4.9-2.8l0.7-97.1h43.3c3.5,0,4.2,1.4,4.2,3.5h2.8v-27.2h-3.5c0,2.1-0.7,2.1-5.6,2.8
		H940.5c-2.1,0-3.5,0-4.2-2.1H935v26.6h2.1c0-2.1,0-3.5,3.5-3.5H981v97.8c0,1.4-2.1,2.1-4.2,2.1v2.8H1011.1L1011.1,518.4z
		 M1101.1,518.4v-2.8c-2.4,0-4.5-1.8-4.9-4.2V398.2c-0.4-1.9,0.7-3.7,2.6-4.2c0.6-0.1,1.1-0.1,1.6,0V392h-32.8v2.1
		c4.9,0,4.2,1.4,4.2,4.2l0.7,113.9c-0.6,2.1-2.6,3.6-4.9,3.5v2.8L1101.1,518.4L1101.1,518.4z M425.2,454.1
		c-2.1-34.2-30.7-62.1-71.2-62.1s-71.9,26.5-72.7,62.8v0.7c0,36.3,29.3,62.9,70.5,62.9c42.6,0,74-24.4,74-60.8
		C425.9,457.6,425.2,454.1,425.2,454.1z M404.2,456.9c0,25.2-22.3,41.9-51,41.9c-30.1,0-50.3-18.9-50.3-44c0-25.2,22.3-44,51-44
		c28.6,0,48.9,19.5,50.3,44C404.2,454.8,404.2,456.9,404.2,456.9z M677.3,454.1c-2.1-34.2-30.7-62.1-71.2-62.1
		c-41.9,0-71.9,26.6-72.7,62.9v0.7c0,36.3,28.6,62.9,70.5,62.9s73.3-24.4,73.3-60.8C677.3,457.6,677.3,454.1,677.3,454.1z
		 M656.3,456.9c0,25.2-22.3,41.9-51.7,41.9s-49.6-18.9-49.6-44c0-25.2,21.7-44,51-44c29.3,0,48.9,19.5,50.3,44
		C656.3,454.8,656.3,456.9,656.3,456.9z"/>
</g>
</svg>
