<?xml version="1.0" encoding="utf-8"?>
<!-- Generator: Adobe Illustrator 24.2.0, SVG Export Plug-In . SVG Version: 6.00 Build 0)  -->
<svg version="1.1" id="casino-payments" xmlns="http://www.w3.org/2000/svg" xmlns:xlink="http://www.w3.org/1999/xlink" x="0px"
	 y="0px" viewBox="0 0 1400 900" style="enable-background:new 0 0 1400 900;" xml:space="preserve">
<style type="text/css">
	.st0{fill:url(#card-form_1_);}
	.st1{fill:#2C3E7E;}
</style>
<g id="ecopayz_4_">
	
		<linearGradient id="card-form_1_" gradientUnits="userSpaceOnUse" x1="700" y1="-1513.0078" x2="700" y2="-613.0078" gradientTransform="matrix(1 0 0 -1 0 -613.0078)">
		<stop  offset="0" style="stop-color:#B3B3B3"/>
		<stop  offset="0.6582" style="stop-color:#E6E6E6"/>
	</linearGradient>
	<path id="card-form_3_" class="st0" d="M1300,900H100C45,900,0,855,0,800V100C0,45,45,0,100,0h1200c55,0,100,45,100,100v700
		C1400,855,1355,900,1300,900z"/>
</g>
<g>
	<g>
		<path class="st1" d="M384.4,395.3c-17.8-42.5-91.8-51.7-172-24.2l-35.6-21.7c-11.1-6.2-23.8,1.3-24.2,13.7V398
			c-69,40.1-109,97.8-92,138.3c19.7,47,108.3,53.4,197.5,14.3C347.6,511.9,404.2,442.2,384.4,395.3 M187.6,376.6l84.9,51.9
			c6.2,3.7,7.1,13.1,0.5,17.4l-86,50.8c-6.6,3.7-15.6-0.6-15.6-9.8l-0.5-100.8C171.5,377.4,180.1,372.6,187.6,376.6 M142.8,565.8
			c-38.8-2.8-54.5-27.7-44.2-61.6c0,5.6,0.8,10.9,3,16.1c15.2,36.2,83.4,41.2,152.3,10.9c1.5-0.6,2.8-1.3,4.3-1.9
			C219.3,553.8,176.2,568.4,142.8,565.8 M303.8,474.2c-34.5,42.5-96.7,71.8-138.9,68.8s-48.7-40.1-14.2-82.6
			c0.6-0.8,1.5-1.7,2.1-2.6l0.2,53.2c-0.2,13.5,13.3,19.9,23,14.6l126.7-74.9c9.8-6.2,8.8-20.1-0.5-25.5L251,396.5
			c14-4.1,27.2-6,39-5.1C331.9,394.6,338.4,431.5,303.8,474.2 M351.6,412.9c-0.2-0.5-0.2-0.8-0.5-1.5c-12.2-29.1-58.7-38-112.6-24.6
			l-8.8-5.3c26.4-11.1,52.7-16.9,74.9-15.2C337.5,368.7,353.5,386.9,351.6,412.9"/>
		<path class="st1" d="M407,392.5c12-0.8,23.3-2.1,34.3-3.4c10.9-1.3,21.2-3,31.5-5l-8.6,29.6c8.6-11.4,16.5-19.7,24.2-24.9
			c7.7-5.3,15.4-7.9,23.8-7.9c11.4,0,20.1,3.4,26.2,10.3c6.2,6.9,9.2,16.9,9.2,29.6c0,10.7-2.1,22.3-6.2,34.1
			c-4.3,12-10.3,23-17.8,33.3c-8.8,12-18,21-27.9,26.8c-9.8,6-20.4,9-31.7,9c-4.5,0-8.8-0.6-12.9-1.9c-4.1-1.3-7.5-3.2-10.9-5.8
			l-8.8,32c-0.6,1.9-1.1,4.1-1.3,6c-0.5,1.9-0.5,3.9-0.5,6c0,3.9,1.1,6.6,3.4,8.2c2.3,1.5,7.1,2.6,14.3,3v7.5h-81v-7.7
			c0.2,0,0.6,0,1.3-0.2c0.5-0.2,0.8-0.2,1.1-0.2c5.1,0,8.8-1.3,11.4-3.9c2.6-2.6,5.1-9.2,7.9-20.1l32.4-127.4c0.6-1.9,1.1-4.1,1.3-6
			s0.5-3.4,0.5-4.5c0-3.4-1.1-5.8-3.2-7.1c-2.1-1.5-6.2-2.1-12-2.1L407,392.5L407,392.5z M455.4,456.4l-7.7,27.5
			c-1.1,4.3-1.9,7.9-2.8,11.4c-0.6,3.4-1.1,6-1.1,7.5c0,3,0.8,5.1,2.6,6.9c1.7,1.7,4.1,2.6,7.1,2.6c4.5,0,9.2-2.6,14.2-7.5
			s9.5-12,14-21.4c5.3-11.8,9.8-23.6,13.3-35.4c3.2-11.6,5.1-20.6,5.1-27.2c0-4.7-1.1-8.6-3-11.4c-1.9-2.8-4.5-4.3-7.5-4.3
			c-6.6,0-12.9,4.3-18.5,12.4C465.5,426.1,460.1,439,455.4,456.4"/>
		<path class="st1" d="M555.8,322.1c12.2-0.8,23.8-2.1,34.9-3.9c11.1-1.5,21.9-3.4,31.7-5.6l-44.6,170.9c-0.2,0.8-0.6,2.1-1.1,3.7
			c-0.6,2.1-0.8,3.7-0.8,4.3c0,1.9,0.5,3.7,1.3,4.7c0.8,1.1,2.1,1.7,3.7,1.7c1.5,0,3.4-1.1,5.6-3.2c2.1-2.1,6-7.7,12-16.9l7.1,5.1
			c-9,14.6-17.6,25.1-25.7,31.5c-8.2,6.4-16.5,9.8-25.3,9.8c-7.7,0-13.7-2.1-18-6.2c-4.3-4.3-6.2-10.3-6.2-18.2
			c0-3.9,2.1-14.2,6.4-30.9l0.5-1.7L566.8,356c0.2-1.1,0.6-2.6,1.1-4.5c1.9-7.3,2.8-12,2.8-14.2c0-2.8-0.8-5-3-6.2
			c-1.9-1.3-5.1-1.9-9.2-1.9h-2.6L555.8,322.1L555.8,322.1z"/>
		<path class="st1" d="M749,385.6l-23.8,84.5v0.2c-3.7,13.1-5.3,20.6-5.3,22.7c0,1.9,0.5,3.7,1.3,5c0.8,1.3,1.7,1.7,3.2,1.7
			c3.9,0,8.8-4.5,14.8-13.5c1.9-2.6,3.2-4.5,4.3-6l6.9,5.3c-7.7,13.3-15.4,23-23.3,29.1c-7.9,6.2-16.5,9.2-25.5,9.2
			c-7.5,0-13.3-1.7-17.2-5c-4.1-3.4-6-8.2-6-14.3c0-1.9,0.2-4.3,0.6-7.1c0.5-2.8,0.8-6.6,1.7-11.1c-7.3,12.7-15,22.3-23.3,28.3
			c-8.4,6.2-17.8,9.2-28.3,9.2c-10.7,0-19.1-3.2-25.3-9.6c-6.2-6.6-9.2-15.4-9.2-26.8c0-13.1,3-26.8,9-41.2s14-27,24-38.1
			c7.9-8.8,16.1-15.6,24.6-20.4c8.6-4.8,16.9-7.1,24.9-7.1c7.5,0,13.5,1.7,17.8,5.3c4.3,3.7,7.3,9,8.6,16.3l4.3-16.9h41.4v0.3H749z
			 M695.4,410.7c0-4.1-0.8-7.3-2.8-9.8c-1.9-2.4-4.3-3.7-7.3-3.7c-4.3,0-8.4,1.9-12.2,6c-3.9,4.1-8.6,10.9-13.7,20.4
			c-6,11.4-10.7,22.3-14.2,33.3c-3.4,10.9-5.1,20.1-5.1,27.9c0,4.7,1.1,8.4,2.8,10.9c1.9,2.6,4.5,3.9,7.7,3.9
			c4.7,0,9.6-2.8,14.8-8.4c5.1-5.6,9.8-13.5,14.3-23.6c4.7-11.4,8.6-22.3,11.4-32.8C693.9,424.5,695.4,416.3,695.4,410.7"/>
		<path class="st1" d="M735.3,397.2v-7.7c11.6-1.3,23.3-2.8,35.2-4.5c11.8-1.7,18.2-2.6,19.3-2.6c4.7,0,10.9,20.4,18.7,61.1
			c3,16.3,5.6,29.4,7.5,39c9-17.8,15.2-30.7,18.5-38.8c3.4-7.9,5-14,5-17.8c0-3-2.8-6.6-8.4-10.7c-5.6-4.1-8.4-9-8.4-14.2
			c0-6,1.9-10.9,5.8-14.8c3.9-3.7,9-5.6,15.4-5.6c6.2,0,11.4,1.9,14.8,5.6c3.4,3.7,5.3,9,5.3,15.6c0,8.4-4.1,21.9-12.4,40.3
			c-8.2,18.5-19.5,39.2-33.6,62.4c-16.1,26.6-30.7,45.7-43.9,57.9c-13.1,12.2-25.9,18.2-38,18.2c-8.2,0-14.3-1.7-19.1-5.1
			c-4.5-3.4-6.9-8.4-6.9-14.3c0-5.6,1.9-10.1,6-13.7c4.1-3.7,9-5.3,15.2-5.3c4.7,0,10.1,1.9,15.4,5.6c5.6,3.7,9.2,5.6,11.1,5.6
			c3.2,0,7.1-2.8,11.4-8.2c4.3-5.3,6.4-10.5,6.4-15.4c0-3.7-0.5-8.2-1.1-13.7c-0.6-5.5-1.7-12.4-3-20.6c-2.8-17.4-5.6-33.3-8.6-47.4
			c-2.8-14.2-5.6-25.5-7.7-33.6c-2.1-7.1-4.1-11.6-6.2-13.7c-2.1-2.1-5.3-3.2-10.3-3.2h-0.5C737.2,397.2,736.1,397.2,735.3,397.2"/>
		<path class="st1" d="M920.5,486c-9,12.2-17.8,21.7-26.4,28.1c-8.6,6.6-16.3,9.8-23.3,9.8c-5.8,0-10.1-1.9-13.3-5.3
			c-3.2-3.7-5-8.4-5-14.3c0-2.1,0.2-4.5,0.6-7.1s1.1-5.6,1.9-8.8l25.5-97.1h-26.8l2.6-8.4c11.6-2.4,21.9-7.7,30.7-16.1
			c8.8-8.4,16.9-19.7,24-34.5h9.2l-12,48.7h24.6l-2.6,10.3H905l-24.4,93.5c-0.6,2.1-1.1,4.1-1.3,5.8c-0.2,1.7-0.5,3.2-0.5,4.5
			c0,3,0.6,5.3,2.1,7.1c1.3,1.7,3.4,2.6,5.8,2.6c3.2,0,7.1-1.7,11.4-5.6c4.5-3.7,10.1-9.8,16.9-18.2L920.5,486z"/>
		<path class="st1" d="M943.3,464.3c-0.8,3.4-1.5,6.9-1.9,10.1c-0.5,3.2-0.6,6-0.6,8.6c0,8.2,1.9,14.3,6.2,18.7
			c4.1,4.3,10.1,7.5,18,7.5c7.7,0,16.7-3.7,26.6-8.8c9.8-5.1,21.2-12.9,33.4-23.3l6.4,9.6c-14.8,12.9-28.5,22.3-41.6,28.5
			c-12.9,6.2-25.7,9.2-38.1,9.2c-12.2,0-21.9-3.7-28.5-10.7c-6.9-7.1-10.1-17.2-10.1-30.2c0-12.4,2.6-25.1,7.9-38
			c5.3-12.9,12.4-24.2,21.7-34.3c8.8-9.5,18.7-16.7,28.9-21.9c10.7-5,21.4-7.5,32.6-7.5c10.3,0,18.2,2.4,24.2,6.9
			c6,4.5,9,10.9,9,18.8c0,14.6-8.8,27-25.9,37.8C994.1,455.7,971.4,462.2,943.3,464.3 M945.6,454.1c19.7-0.8,36.5-6.2,49.7-15.6
			c13.5-9.6,20.1-20.4,20.1-32.6c0-4.1-1.1-7.1-3.2-9.2c-2.1-1.9-5.3-3-9.6-3c-12,0-23.2,5.3-33.3,16.1
			C959.3,420.4,951.4,435.1,945.6,454.1"/>
		<path class="st1" d="M1136.7,466.3l-0.5,18.2c-9.2,13.3-19.3,23.2-30.4,29.6c-10.9,6.4-23,9.8-36,9.8c-14.2,0-25.9-4.7-34.7-14
			c-8.8-9.3-13.3-21.4-13.3-36.7c0-11.1,2.6-22.5,7.5-34.1c5-11.6,12-22.1,20.8-31.3c8.2-8.4,17.4-14.8,27.5-19.3
			c10.1-4.5,20.4-6.9,30.9-6.9c11.1,0,19.9,2.6,26.6,7.5c6.6,5,9.8,11.4,9.8,19.7c0,5-1.7,9.2-5.1,12.7c-3.4,3.4-7.5,5.1-12.2,5.1
			c-3.9,0-6.9-1.1-9.5-3.7c-2.4-2.4-3.7-5.6-3.7-9.6c0-2.8,0.8-6,2.8-9.6s2.8-5.8,2.8-6.9c0-1.7-0.8-3-3-4.1
			c-1.9-1.1-4.5-1.5-7.9-1.5c-6.9,0-13.7,1.9-21,6.2c-7.1,4.3-13.3,9.8-18.7,17.2c-6.4,8.8-11.6,18.2-15,28.1
			c-3.4,9.9-5.1,19.5-5.1,28.9c0,10.7,2.8,19.3,8.4,25.5c5.8,6.2,13.3,10.5,23,10.5c7.5,0,15-3.4,22.5-8.2
			C1111.2,495.4,1123.4,486.2,1136.7,466.3"/>
		<path class="st1" d="M1119.9,524.2l50.4-176.7c0.2-1.1,0.5-2.1,0.6-3.4c0.2-1.1,0.2-2.1,0.2-3.2c0-3.2-0.8-5.3-2.4-6.4
			c-1.5-1.1-6.2-1.7-13.5-1.7h-11.4l1.7-8.2c9.2-0.5,17.8-1.5,25.9-3c7.9-1.7,15.6-3.7,22.7-6.4h9l-34.7,122
			c17.8-17.6,34.3-31.3,49.3-41.2c15-9.6,26.8-14.6,35.8-14.6c4.7,0,8.2,1.1,10.3,3.2s3.4,5.6,3.4,10.1c0,1.5-0.2,3-0.6,5.1
			c-0.5,2.1-0.8,4.5-1.5,6.9l-25.5,83.2c-0.5,1.5-0.8,3.4-1.3,5.3s-0.5,3.9-0.5,5.6c0,1.1,0.5,1.9,1.5,2.8c0.8,0.8,1.9,2.4,3.2,2.4
			c2.6,0,6-2.6,10.3-6c4.3-3.2,9-7.7,14-13.5l5.1,4.3c-8.8,10.5-17.2,18.7-25.3,24.2c-8.2,5.6-15.6,8.4-22.5,8.4
			c-4.5,0-7.9-1.1-10.5-3.2c-2.6-2.1-3.9-5-3.9-8.6c0-1.3,0.2-2.8,0.5-4.3c0.2-1.5,0.8-3,1.3-5l26.2-86c0.5-1.9,0.8-3.2,0.8-4.3
			c0.2-0.8,0.2-1.9,0.2-2.6c0-2.1-0.6-3.9-1.9-5.1c-1.3-1.1-3-1.7-5.6-1.7c-3.7,0-9.2,2.1-16.5,6.9c-7.3,4.5-15.6,10.9-25.1,19.5
			c-8.6,7.5-14.8,13.7-18.8,19.1c-4.1,5.3-6.9,10.7-8.6,16.3l-17.4,59.4c-1.9-0.2-9-0.5-10.9-0.6s0.8-0.2-1.1-0.2
			c-2.1,0-4.3,0-6.2,0.2C1124.1,523.7,1121.9,524,1119.9,524.2"/>
		<path class="st1" d="M820.8,572.9v2.4c0,1.3,0.2,2.4,0.5,3.2c0.6,2.8,3,4.3,7.1,4.3c1.5,0,2.8-0.2,4.1-0.6
			c2.8-0.8,4.1-2.8,4.3-5.8c0-2.1-0.8-3.9-2.8-5c-1.3-0.8-2.8-1.5-4.5-2.4l-5.3-2.4c-2.1-0.8-3.9-1.7-5.1-2.8
			c-3-1.9-4.3-4.7-4.3-8.4c0-4.1,1.7-6.9,5-8.6c2.4-1.3,5.6-1.9,9.8-1.9c5.1,0,8.8,0.8,10.9,2.8c1.7,1.5,2.8,4.5,2.8,8.8v0.8h-7.3
			v-1.1l-0.2-2.1c-0.5-3.2-2.6-4.7-6.4-4.7c-5,0-7.3,1.9-7.3,5.6c0,2.4,1.5,4.3,4.5,5.8c1.9,0.8,4.1,1.9,6.4,2.8
			c2.4,0.8,4.3,1.9,5.8,2.8c3.4,2.1,5.1,5.1,5.1,9.2c0,7.5-5.1,11.4-15.4,11.4c-4.3,0-7.7-0.6-10.1-2.1c-2.8-1.7-4.3-4.1-4.5-7.3
			v-3.2v-1.7h7.1L820.8,572.9L820.8,572.9z"/>
		<path class="st1" d="M856,572.4c0,3.4,0.2,5.8,0.8,6.9c0.5,1.1,1.5,1.9,2.8,2.4c1.3,0.6,2.8,0.8,4.3,0.8c1.3,0,2.6-0.2,3.9-0.8
			c2.4-0.8,3.7-2.4,3.9-4.7c0.2-1.3,0.2-2.8,0.2-4.7v-14c0-3-0.2-5.1-1.1-6.2c-1.1-1.9-3.4-3-6.6-3c-1.3,0-2.6,0.2-3.7,0.6
			c-2.4,0.8-3.7,2.4-3.9,4.7c-0.2,1.1-0.2,2.4-0.2,3.9v14.2H856z M848.7,558.7c0-3.4,0.5-5.8,1.1-7.5c1.1-2.6,3-4.3,6.4-5.3
			c2.4-0.8,5-1.1,7.7-1.1c2.8,0,5.3,0.5,7.7,1.1c3.2,1.1,5.3,2.8,6.4,5.3c0.6,1.5,0.8,4.1,1.1,7.5v14c0,2.6-0.2,4.7-0.5,6.4
			c-0.8,5.3-5.6,8.2-14.3,8.2c-6.4,0-10.7-1.3-12.9-3.9c-1.7-1.9-2.6-5.6-2.4-10.9v-13.7L848.7,558.7L848.7,558.7z"/>
		<path class="st1" d="M885.4,545.4h7.3v27.5v3.7c0.2,4.1,2.6,6,7.3,6c4.5,0,7.1-1.9,7.5-5.6c0.2-1.3,0.2-2.6,0.2-4.1v-27.5h7.3
			v27.9c0,2.4,0,4.1-0.2,5.3c-0.2,1.9-1.1,3.4-2.4,4.7c-2.6,2.6-6.6,3.7-12.2,3.7c-5.6,0-9.6-1.3-12.2-3.7c-1.3-1.5-2.1-3-2.4-5
			c-0.2-1.1-0.2-2.8-0.2-5.3L885.4,545.4L885.4,545.4z"/>
		<path class="st1" d="M928.9,550.1v13.3h5.1c1.5,0,2.8,0,4.1-0.2c2.1-0.5,3.7-1.3,4.5-2.6c0.6-0.8,0.8-2.4,0.8-4.5
			c0-2.4-0.8-3.9-2.4-4.7c-1.1-0.6-3.4-1.1-6.6-1.1h-5.6L928.9,550.1L928.9,550.1z M933.6,545.4h4.3c1.7,0,3.2,0.2,4.5,0.5
			c5.3,0.8,7.9,4.1,8.2,9.8c0,3-0.6,5.3-2.1,6.9c-1.3,1.5-4.1,2.6-7.9,3l0,0c2.4,0.2,4.3,0.6,5.3,1.1c1.5,0.6,2.6,1.9,3,3.7
			c0.2,1.1,0.5,2.4,0.5,3.9l0.2,5c0.2,1.9,0.5,3.2,0.6,4.3c0.2,0.8,0.5,1.9,1.1,3.2h-7.5l-0.6-2.6c-0.2-0.6-0.5-1.7-0.5-2.8
			l-0.2-3.7l-0.2-3.9c-0.5-3-1.7-4.7-4.5-5.3c-1.1-0.2-2.4-0.5-3.9-0.5h-5v18.7h-7.3v-41.2h11.9V545.4z"/>
		<path class="st1" d="M977.8,556.3v-1.9c-0.2-3.2-2.1-5-6-5c-3.4,0-5.8,0.8-6.6,2.6c-0.6,0.8-0.8,1.7-0.8,2.6v3.4v16.3
			c0,3,0.5,5,0.8,5.8c1.3,1.7,3.2,2.6,6.2,2.6c3.9,0,6-1.7,6.4-5.3l0.2-2.6v-1.5h7.3v1.5v2.6c-0.2,3-1.3,5.3-3.2,7.1
			c-1.3,1.1-2.6,1.7-4.3,2.1c-1.9,0.5-4.1,0.8-6.2,0.8c-1.9,0-3.9-0.2-5.6-0.5c-6-1.1-9-5-9-11.6v-16.5c0-1.7,0-3.4,0.5-5
			c0.2-1.9,0.8-3.4,1.9-4.7c2.4-2.8,6.4-4.3,12.4-4.3c8.4,0,12.9,2.6,13.5,7.7c0.2,1.1,0.2,2.1,0.2,3.2v1.5h-7.3v-1.1h-0.4V556.3z"
			/>
	</g>
	<polygon class="st1" points="991.3,545.4 1015.1,545.4 1015.1,550.1 998.6,550.1 998.6,563.2 1014.1,563.2 1014.1,567.7 
		998.6,567.7 998.6,582.1 1015.6,582.1 1015.6,586.6 991.3,586.6 	"/>
	<g>
		<path class="st1" d="M1041.5,572.4c0,3.4,0.2,5.8,0.8,6.9c0.5,1.1,1.5,1.9,2.8,2.4c1.3,0.6,2.8,0.8,4.3,0.8c1.3,0,2.6-0.2,3.9-0.8
			c2.4-0.8,3.4-2.4,3.9-4.7c0.2-1.3,0.2-2.8,0.2-4.7v-14c0-3-0.2-5.1-1.1-6.2c-1.1-1.9-3.4-3-6.6-3c-1.3,0-2.6,0.2-3.7,0.6
			c-2.4,0.8-3.7,2.4-3.9,4.7c-0.2,1.1-0.2,2.4-0.2,3.9v14.2H1041.5z M1034.2,558.7c0-3.4,0.5-5.8,0.8-7.5c0.8-2.6,3-4.3,6.4-5.3
			c2.4-0.8,5-1.1,7.7-1.1c2.8,0,5.3,0.5,7.7,1.1c3.2,1.1,5.3,2.8,6.4,5.3c0.6,1.5,0.8,4.1,1.1,7.5v14c0,2.6-0.2,4.7-0.5,6.4
			c-0.8,5.3-5.6,8.2-14.3,8.2c-6.4,0-10.7-1.3-12.9-3.9c-1.7-1.9-2.4-5.6-2.4-10.9v-13.7L1034.2,558.7L1034.2,558.7z"/>
	</g>
	<polygon class="st1" points="1094,545.4 1094,550.1 1078.1,550.1 1078.1,563 1093.4,563 1093.4,567.7 1078.1,567.7 1078.1,586.6 
		1070.9,586.6 1070.9,545.4 	"/>
	<g>
		<path class="st1" d="M1118,572.9v2.4c0,1.3,0,2.4,0.5,3.2c0.6,2.8,3,4.3,7.1,4.3c1.5,0,2.8-0.2,4.1-0.6c2.8-0.8,4.1-2.8,4.3-5.8
			c0-2.1-0.8-3.9-2.8-5c-1.3-0.8-2.8-1.5-4.5-2.4l-5.3-2.4c-2.1-0.8-3.9-1.7-5.1-2.8c-2.8-1.9-4.3-4.7-4.3-8.4c0-4.1,1.7-6.9,5-8.6
			c2.4-1.3,5.6-1.9,9.8-1.9c5.1,0,8.8,0.8,10.9,2.8c1.7,1.5,2.6,4.5,2.6,8.8v0.8h-7.3v-1.1l-0.2-2.1c-0.5-3.2-2.6-4.7-6.4-4.7
			c-5,0-7.3,1.9-7.3,5.6c0,2.4,1.5,4.3,4.5,5.8c1.9,0.8,4.1,1.9,6.4,2.8c2.4,0.8,4.3,1.9,5.8,2.8c3.4,2.1,5.1,5.1,5.1,9.2
			c0,7.5-5.1,11.4-15.4,11.4c-4.5,0-7.7-0.6-10.1-2.1c-2.8-1.7-4.3-4.1-4.5-7.3l-0.2-3.2v-1.7h7.5v0.2H1118z"/>
		<path class="st1" d="M1146.1,545.4h7.3v27.5v3.7c0.2,4.1,2.8,6,7.3,6c4.5,0,7.1-1.9,7.5-5.6c0.2-1.3,0.2-2.6,0.2-4.1v-27.5h7.3
			v27.9c0,2.4-0.2,4.1-0.2,5.3c-0.2,1.9-1.1,3.4-2.4,4.7c-2.6,2.6-6.6,3.7-12.2,3.7c-5.6,0-9.6-1.3-12.2-3.7c-1.3-1.5-2.1-3-2.4-5
			c-0.2-1.1-0.2-2.8-0.2-5.3L1146.1,545.4L1146.1,545.4z"/>
		<path class="st1" d="M1203.8,556.3v-1.9c-0.2-3.2-2.1-5-6.2-5c-3.4,0-5.6,0.8-6.6,2.6c-0.6,0.8-0.8,1.7-0.8,2.6v3.4v16.3
			c0,3,0.5,5,0.8,5.8c1.1,1.7,3.2,2.6,6.2,2.6c3.9,0,6-1.7,6.4-5.3l0.2-2.6v-1.5h7.3v1.5v2.6c-0.2,3-1.3,5.3-3.2,7.1
			c-1.3,1.1-2.6,1.7-4.3,2.1c-1.9,0.5-4.1,0.8-6.2,0.8c-1.9,0-3.9-0.2-5.6-0.5c-6-1.1-9-5-9-11.6v-16.5c0-1.7,0-3.4,0.5-5
			c0.2-1.9,0.8-3.4,1.9-4.7c2.4-2.8,6.4-4.3,12.4-4.3c8.4,0,12.9,2.6,13.5,7.7c0.2,1.1,0.2,2.1,0.2,3.2v1.5h-7.3v-1.1h-0.1V556.3z"
			/>
		<path class="st1" d="M1238.6,556.3v-1.9c-0.2-3.2-2.1-5-6-5c-3.4,0-5.6,0.8-6.6,2.6c-0.6,0.8-0.8,1.7-0.8,2.6v3.4v16.3
			c0,3,0.5,5,0.8,5.8c1.3,1.7,3.2,2.6,6.2,2.6c3.9,0,6-1.7,6.4-5.3l0.2-2.6v-1.5h7.3v1.5v2.6c-0.2,3-1.3,5.3-3.2,7.1
			c-1.3,1.1-2.6,1.7-4.3,2.1c-1.9,0.5-4.1,0.8-6.2,0.8c-1.9,0-3.9-0.2-5.6-0.5c-6-1.1-9-5-9-11.6v-16.5c0-1.7,0-3.4,0.5-5
			c0.2-1.9,0.8-3.4,1.9-4.7c2.4-2.8,6.4-4.3,12.4-4.3c8.4,0,12.9,2.6,13.5,7.7c0.2,1.1,0.2,2.1,0.2,3.2v1.5h-7.2v-1.1h-0.5V556.3z"
			/>
	</g>
	<polygon class="st1" points="1252.1,545.4 1275.9,545.4 1275.9,550.1 1259.3,550.1 1259.3,563.2 1274.8,563.2 1274.8,567.7 
		1259.3,567.7 1259.3,582.1 1276.3,582.1 1276.3,586.6 1252.1,586.6 	"/>
	<g>
		<path class="st1" d="M1286.8,572.9v2.4c0,1.3,0.2,2.4,0.5,3.2c0.6,2.8,3,4.3,7.1,4.3c1.5,0,2.8-0.2,4.1-0.6
			c2.8-0.8,4.1-2.8,4.3-5.8c0-2.1-0.8-3.9-2.8-5c-1.3-0.8-2.8-1.5-4.5-2.4l-5.1-2.4c-2.1-0.8-3.9-1.7-5.1-2.8
			c-2.8-1.9-4.3-4.7-4.3-8.4c0-4.1,1.7-6.9,5-8.6c2.4-1.3,5.6-1.9,9.8-1.9c5.1,0,8.8,0.8,10.9,2.8c1.7,1.5,2.6,4.5,2.6,8.8v0.8h-7.3
			v-1.1l-0.2-2.1c-0.5-3.2-2.6-4.7-6.4-4.7c-5,0-7.3,1.9-7.3,5.6c0,2.4,1.5,4.3,4.5,5.8c1.9,0.8,4.1,1.9,6.4,2.8
			c2.4,0.8,4.3,1.9,5.8,2.8c3.4,2.1,5.1,5.1,5.1,9.2c0,7.5-5.1,11.4-15.4,11.4c-4.5,0-7.7-0.6-10.1-2.1c-2.8-1.7-4.3-4.1-4.5-7.3
			l-0.2-3.2v-1.7h7.3L1286.8,572.9L1286.8,572.9z"/>
		<path class="st1" d="M1320.5,572.9v2.4c0,1.3,0.2,2.4,0.5,3.2c0.6,2.8,3,4.3,7.1,4.3c1.5,0,2.8-0.2,4.1-0.6
			c2.8-0.8,4.1-2.8,4.3-5.8c0-2.1-0.8-3.9-2.8-5c-1.3-0.8-2.8-1.5-4.5-2.4l-5.1-2.4c-2.1-0.8-3.9-1.7-5.1-2.8
			c-3-1.9-4.3-4.7-4.3-8.4c0-4.1,1.7-6.9,5-8.6c2.4-1.3,5.6-1.9,9.8-1.9c5.1,0,8.8,0.8,10.9,2.8c1.7,1.5,2.8,4.5,2.8,8.8v0.8h-7.7
			v-1.1l-0.2-2.1c-0.5-3.2-2.6-4.7-6.4-4.7c-5,0-7.3,1.9-7.3,5.6c0,2.4,1.5,4.3,4.5,5.8c1.9,0.8,4.1,1.9,6.4,2.8s4.3,1.9,5.8,2.8
			c3.4,2.1,5.1,5.1,5.1,9.2c0,7.5-5.1,11.4-15.4,11.4c-4.3,0-7.7-0.6-10.1-2.1c-2.8-1.7-4.3-4.1-4.5-7.3l-0.2-3.2v-1.7h7.5
			L1320.5,572.9L1320.5,572.9z"/>
	</g>
</g>
</svg>
