<svg width="19" height="18" fill="none" xmlns="http://www.w3.org/2000/svg"><path d="M15.688 11.25h-1.165a6.48 6.48 0 0 1-1.3 1.125A6.666 6.666 0 0 1 9.5 13.5a6.665 6.665 0 0 1-3.724-1.125 6.512 6.512 0 0 1-1.3-1.125H3.314c-.929 0-1.688.76-1.688 1.688v2.25c0 .928.76 1.687 1.688 1.687h12.374c.929 0 1.688-.76 1.688-1.688v-2.25c0-.928-.76-1.687-1.688-1.687ZM14 15.188H5a.564.564 0 0 1-.563-.563c0-.31.254-.563.563-.563h9c.31 0 .563.254.563.563 0 .31-.254.563-.563.563ZM9.5 1.124A5.634 5.634 0 0 0 3.875 6.75c0 1.84.889 3.476 2.256 4.5A5.567 5.567 0 0 0 9.5 12.375c1.266 0 2.43-.416 3.37-1.125a5.617 5.617 0 0 0 2.255-4.5c0-3.1-2.526-5.625-5.625-5.625Zm-.281 5.063h.529c.776 0 1.406.63 1.406 1.406 0 .686-.467 1.248-1.091 1.395v.573c0 .31-.254.563-.563.563a.564.564 0 0 1-.563-.563v-.54h-.562a.56.56 0 0 1-.563-.562c0-.31.254-.563.563-.563h1.373a.279.279 0 0 0 .28-.28c0-.18-.123-.304-.28-.304h-.53a1.407 1.407 0 0 1-.28-2.785v-.59c0-.31.253-.563.562-.563.31 0 .563.253.563.563V4.5h.528c.31 0 .563.253.563.563a.564.564 0 0 1-.563.562H9.22a.279.279 0 0 0-.281.281c0 .158.123.282.28.282Z" fill="#06F"/></svg>