<svg width="60" height="40" viewBox="0 0 60 40" fill="none" xmlns="http://www.w3.org/2000/svg">
<path d="M55.593 15.7059C54.912 15.2383 53.88 15 52.524 15H48.978L47.661 22.1976H43.014L43.314 20.5656H46.11L46.443 18.7315L43.647 18.7345L43.947 17.1116H46.83L47.214 15.003H41.358L40.104 21.8296H37.956L39.219 15.003H36.156L34.905 21.8296H32.811L34.074 15.003H31.014L29.694 22.2006H25.014L25.308 20.5686H28.119L28.452 18.7466L25.644 18.7436L25.941 17.1146H28.854L29.235 15.006H10.995L9.957 20.7074L7.89 15.003H4.713L3 24.3122H6.033L7.071 18.451L9.078 24.3122H19.944L21.264 17.1116H22.965L21.645 24.3122H50.241L51.069 19.7692L52.41 24.3122H55.443L54.054 20.5988L54.372 20.5294C55.071 20.3816 55.617 20.0558 55.998 19.5671C56.379 19.0754 56.571 18.448 56.571 17.6908C56.574 16.813 56.256 16.1614 55.593 15.7059ZM17.307 22.1976H12.66L12.963 20.5656H15.873L16.206 18.7255H13.323L13.602 17.1086H18.24L17.307 22.1976ZM53.094 19.0634C52.788 19.2775 52.347 19.3801 51.741 19.3801H51.144L51.606 16.8793H52.044C52.545 16.8793 52.914 16.9608 53.166 17.1267C53.361 17.2564 53.598 17.5128 53.598 17.9955C53.595 18.5898 53.325 18.9005 53.094 19.0634Z" fill="#8CC449"/>
</svg>
