<svg width="60" height="40" viewBox="0 0 60 40" fill="none" xmlns="http://www.w3.org/2000/svg">
<path d="M10.7724 16.8433C10.5504 18.3185 9.42843 18.3185 8.34542 18.3185H7.73042L8.16242 15.5673C8.18942 15.4014 8.33042 15.2777 8.49842 15.2777H8.78042C9.51843 15.2777 10.2144 15.2777 10.5714 15.7001C10.7874 15.9534 10.8534 16.3275 10.7724 16.8433ZM10.3014 13.0002H6.21542C5.93642 13.0002 5.69942 13.2053 5.65442 13.4829L4.00442 24.0108C3.97442 24.1978 4.10042 24.3728 4.28642 24.4029C4.30442 24.4059 4.32242 24.4059 4.34042 24.4059H6.29042C6.56942 24.4059 6.80642 24.2008 6.85142 23.9233L7.29842 21.0817C7.34042 20.8041 7.58042 20.599 7.85942 20.599H9.15243C11.8434 20.599 13.3944 19.2898 13.7994 16.6955C13.9824 15.5613 13.8054 14.6714 13.2774 14.047C12.6954 13.3622 11.6664 12.9972 10.3014 13.0002ZM19.7814 20.6261C19.5924 21.7483 18.7044 22.5055 17.5734 22.5055C17.0064 22.5055 16.5534 22.3215 16.2594 21.9746C15.9684 21.6307 15.8604 21.139 15.9534 20.593C16.1304 19.4798 17.0304 18.7016 18.1434 18.7016C18.6984 18.7016 19.1484 18.8856 19.4484 19.2385C19.7484 19.5884 19.8684 20.0801 19.7814 20.6261ZM22.5054 16.7981H20.5494C20.3814 16.7981 20.2374 16.9218 20.2134 17.0877L20.1294 17.6367L19.9914 17.4376C19.5684 16.8192 18.6234 16.6141 17.6814 16.6141C15.5214 16.6141 13.6764 18.2611 13.3164 20.5688C13.1304 21.7212 13.3944 22.8222 14.0454 23.5915C14.6424 24.2973 15.4944 24.5899 16.5084 24.5899C18.2514 24.5899 19.2144 23.4648 19.2144 23.4648L19.1274 24.0108C19.0974 24.1978 19.2234 24.3728 19.4094 24.4029C19.4274 24.4059 19.4454 24.4059 19.4634 24.4059H21.2244C21.5034 24.4059 21.7404 24.2008 21.7854 23.9233L22.8445 17.1933C22.8745 17.0062 22.7454 16.8313 22.5594 16.8011C22.5414 16.7981 22.5234 16.7981 22.5054 16.7981ZM32.9215 16.7981H30.9565C30.7675 16.7981 30.5935 16.8916 30.4885 17.0485L27.7765 21.0636L26.6275 17.2053C26.5555 16.964 26.3335 16.7981 26.0845 16.7981H24.1525C23.9635 16.7981 23.8105 16.9519 23.8135 17.142C23.8135 17.1782 23.8195 17.2174 23.8315 17.2536L25.9945 23.6427L23.9575 26.5296C23.8495 26.6835 23.8855 26.8976 24.0385 27.0062C24.0955 27.0455 24.1645 27.0696 24.2335 27.0696H26.1985C26.3845 27.0696 26.5585 26.9791 26.6635 26.8252L33.2005 17.3381C33.3085 17.1842 33.2695 16.97 33.1165 16.8614C33.0595 16.8192 32.9905 16.7981 32.9215 16.7981Z" fill="#273D7F"/>
<path d="M39.8995 16.8432C39.6775 18.3183 38.5555 18.3183 37.4755 18.3183H36.8605L37.2925 15.5672C37.3195 15.4013 37.4605 15.2776 37.6285 15.2776H37.9105C38.6485 15.2776 39.3445 15.2776 39.7015 15.6999C39.9145 15.9533 39.9805 16.3274 39.8995 16.8432ZM39.4285 13.0001H35.3455C35.0665 13.0001 34.8295 13.2052 34.7845 13.4827L33.1345 24.0106C33.1045 24.1976 33.2335 24.3726 33.4195 24.4028C33.4375 24.4058 33.4555 24.4058 33.4705 24.4058H35.5675C35.7625 24.4058 35.9305 24.264 35.9605 24.0679L36.4285 21.0815C36.4705 20.804 36.7105 20.5988 36.9895 20.5988H38.2825C40.9735 20.5988 42.5245 19.2896 42.9295 16.6954C43.1125 15.5611 42.9355 14.6712 42.4075 14.0468C41.8225 13.362 40.7935 12.997 39.4285 13.0001ZM48.9085 20.626C48.7195 21.7482 47.8315 22.5053 46.7005 22.5053C46.1335 22.5053 45.6805 22.3213 45.3865 21.9744C45.0955 21.6305 44.9875 21.1388 45.0805 20.5928C45.2575 19.4797 46.1575 18.7014 47.2705 18.7014C47.8255 18.7014 48.2755 18.8854 48.5755 19.2384C48.8755 19.5883 48.9955 20.08 48.9085 20.626ZM51.6325 16.7979H49.6765C49.5085 16.7979 49.3645 16.9216 49.3405 17.0875L49.2565 17.6366L49.1185 17.4375C48.6955 16.8191 47.7505 16.6139 46.8085 16.6139C44.6485 16.6139 42.8035 18.261 42.4435 20.5687C42.2575 21.721 42.5215 22.8221 43.1725 23.5913C43.7695 24.2972 44.6215 24.5898 45.6355 24.5898C47.3785 24.5898 48.3445 23.4646 48.3445 23.4646L48.2575 24.0106C48.2275 24.1976 48.3535 24.3726 48.5365 24.4028C48.5545 24.4058 48.5725 24.4058 48.5905 24.4058H50.3515C50.6305 24.4058 50.8675 24.2007 50.9125 23.9231L51.9685 17.1931C51.9985 17.0061 51.8695 16.8311 51.6835 16.801C51.6685 16.7979 51.6505 16.7979 51.6325 16.7979ZM53.9395 13.2896L52.2625 24.0106C52.2325 24.1976 52.3615 24.3726 52.5475 24.4028C52.5655 24.4058 52.5835 24.4058 52.6015 24.4058H54.2875C54.5665 24.4058 54.8035 24.2007 54.8485 23.9231L56.5015 13.3952C56.5315 13.2082 56.4055 13.0332 56.2195 13.0031C56.2015 13.0001 56.1835 13.0001 56.1655 13.0001H54.2785C54.1075 12.997 53.9635 13.1207 53.9395 13.2896Z" fill="#229AD4"/>
</svg>
