<svg width="60" height="40" viewBox="0 0 60 40" fill="none" xmlns="http://www.w3.org/2000/svg">
<path d="M12.651 19.0724C12.645 18.8854 12.558 18.7889 12.39 18.7828H11.481C11.268 18.7949 11.154 18.9156 11.148 19.1388V20.7828C11.154 21.0151 11.277 21.1297 11.514 21.1388H12.348C12.435 21.1388 12.507 21.1056 12.561 21.0423C12.621 20.994 12.648 20.9306 12.648 20.8522L12.651 19.0724ZM9.98096 18.8432C9.98696 18.4299 10.077 18.1192 10.254 17.905C10.347 17.8175 10.464 17.7421 10.602 17.6788C10.749 17.6154 10.89 17.5822 11.028 17.5822H12.696C13.434 17.5883 13.806 17.9955 13.818 18.7979V21.2715C13.812 21.5581 13.701 21.8055 13.485 22.0136C13.272 22.2308 13.02 22.3424 12.723 22.3484H11.145V24.1313H9.98096V18.8432ZM15.921 20.8975C15.921 20.9668 15.954 21.0211 16.014 21.0604C16.071 21.1086 16.137 21.1358 16.227 21.1358H17.121C17.325 21.1358 17.43 21.0573 17.433 20.8975V20.5596C17.433 20.3756 17.325 20.2821 17.112 20.2821H16.224C16.107 20.2821 16.026 20.3002 15.981 20.3394C15.942 20.3816 15.918 20.4691 15.918 20.5958L15.921 20.8975ZM17.436 19.0453C17.442 18.8643 17.337 18.7798 17.124 18.7828H14.775V17.5792H17.418C18.189 17.5913 18.579 17.9684 18.594 18.7044V21.2263C18.588 21.543 18.489 21.8085 18.303 22.0166C18.105 22.2308 17.853 22.3424 17.541 22.3424H15.942C15.162 22.3364 14.769 21.9774 14.757 21.2685V20.2972C14.763 19.5551 15.141 19.178 15.888 19.1659H17.439L17.436 19.0453ZM21.87 22.9186C21.963 22.9125 22.041 22.8794 22.107 22.819C22.17 22.7617 22.2 22.6984 22.2 22.626V22.3394H20.706C20.511 22.3394 20.355 22.3153 20.241 22.264C20.118 22.2187 19.995 22.1343 19.875 22.0136C19.758 21.8869 19.674 21.7542 19.623 21.6154C19.569 21.4887 19.542 21.3258 19.542 21.1328V17.5792H20.706V20.7557C20.706 21.0091 20.811 21.1388 21.018 21.1388H21.84C21.939 21.1388 22.023 21.1056 22.095 21.0423C22.164 20.9849 22.197 20.9216 22.197 20.8432V17.5852H23.355V22.8311C23.349 23.2202 23.25 23.5309 23.058 23.7662C22.866 24.0046 22.599 24.1222 22.26 24.1313H19.542V22.9276L21.87 22.9186ZM24.273 21.1358H26.352C26.541 21.1297 26.64 21.0513 26.646 20.9065V20.7979C26.646 20.7647 26.634 20.7316 26.619 20.6954C26.574 20.6049 26.514 20.5566 26.448 20.5566H25.416C25.11 20.5506 24.849 20.445 24.63 20.2429C24.408 20.0558 24.294 19.8236 24.288 19.549V18.6501C24.3 17.9503 24.678 17.5913 25.425 17.5822H27.837V18.7858H25.797C25.56 18.7858 25.434 18.8582 25.434 19.0061V19.1207C25.434 19.2745 25.557 19.35 25.803 19.35H26.832C27.105 19.356 27.339 19.4616 27.534 19.6667C27.729 19.8748 27.831 20.1192 27.84 20.4058V21.2836C27.834 21.5309 27.72 21.7753 27.504 22.0227C27.396 22.1433 27.291 22.2278 27.18 22.273C27.069 22.3153 26.916 22.3364 26.718 22.3364H24.282V21.1358H24.273ZM29.832 20.8975C29.832 20.9668 29.865 21.0211 29.925 21.0604C29.979 21.1086 30.048 21.1358 30.138 21.1358H31.035C31.239 21.1358 31.344 21.0573 31.347 20.8975V20.5596C31.347 20.3756 31.239 20.2821 31.026 20.2821H30.141C30.024 20.2821 29.943 20.3002 29.901 20.3394C29.862 20.3816 29.838 20.4691 29.838 20.5958L29.832 20.8975ZM31.347 19.0453C31.353 18.8643 31.248 18.7798 31.032 18.7828H28.683V17.5792H31.329C32.097 17.5913 32.49 17.9684 32.502 18.7044V21.2263C32.496 21.543 32.397 21.8085 32.211 22.0166C32.016 22.2308 31.761 22.3424 31.449 22.3424H29.85C29.073 22.3364 28.677 21.9774 28.665 21.2685V20.2972C28.671 19.5551 29.049 19.178 29.793 19.1659H31.344L31.347 19.0453ZM33.45 16.8975C33.459 16.5717 33.576 16.3092 33.81 16.1162C34.038 15.9171 34.335 15.8145 34.701 15.8085H35.442V16.9729H34.992C34.746 16.9789 34.62 17.0966 34.614 17.3258V17.5822H35.439V18.7889H34.614V22.3454H33.447L33.45 16.8975ZM38.763 19.0211V18.994C38.763 18.9306 38.739 18.8794 38.688 18.8401C38.634 18.8039 38.568 18.7828 38.487 18.7828H37.674C37.569 18.7828 37.488 18.813 37.422 18.8703C37.341 18.9276 37.302 19 37.302 19.0875V19.5732L38.763 19.0211ZM37.317 20.7255V20.8009C37.317 20.8975 37.341 20.9729 37.392 21.0302C37.428 21.0996 37.479 21.1388 37.545 21.1388H39.942V22.3424H37.395C37.161 22.3424 36.984 22.3213 36.855 22.2791C36.717 22.2338 36.591 22.1584 36.48 22.0528C36.351 21.9261 36.267 21.7934 36.219 21.6637C36.171 21.5249 36.147 21.3409 36.147 21.1086L36.135 18.6984C36.147 17.9684 36.525 17.6003 37.272 17.5852H38.844C39.57 17.5973 39.939 17.9804 39.951 18.7376V19.6908L37.317 20.7255ZM42.417 22.3424C42.24 22.3424 42.081 22.3273 41.931 22.2972C41.778 22.273 41.625 22.2006 41.469 22.08C41.307 21.9412 41.199 21.7843 41.136 21.6094C41.073 21.4405 41.043 21.2444 41.043 21.0272V18.7798C41.037 18.5958 41.055 18.4359 41.097 18.2941C41.136 18.1554 41.217 18.0196 41.343 17.8839C41.484 17.7451 41.631 17.6486 41.781 17.6033C41.928 17.5671 42.093 17.546 42.279 17.546H44.067V17.8296H42.321C42.012 17.8296 41.769 17.8929 41.592 18.0196C41.409 18.1584 41.319 18.3997 41.319 18.7346V20.9819C41.319 21.1418 41.343 21.2957 41.391 21.4435C41.439 21.5883 41.523 21.718 41.637 21.8296C41.763 21.9261 41.892 21.9865 42.015 22.0136C42.144 22.0438 42.282 22.0558 42.426 22.0558H44.091V22.3394L42.417 22.3424ZM48.669 19.4224H46.326C46.044 19.4284 45.825 19.5159 45.666 19.6848C45.504 19.8537 45.423 20.089 45.423 20.3877V21.1026C45.423 21.2414 45.435 21.3681 45.465 21.4827C45.495 21.6033 45.567 21.7119 45.684 21.8024C45.888 21.9714 46.11 22.0558 46.356 22.0558H47.775C48.369 22.0498 48.666 21.7361 48.666 21.1116L48.669 19.4224ZM48.948 21.0453C48.948 21.2263 48.936 21.3831 48.912 21.5249C48.876 21.6757 48.798 21.8236 48.678 21.9653C48.435 22.2248 48.129 22.3515 47.766 22.3454H46.374C46.011 22.3454 45.717 22.2368 45.489 22.0196C45.255 21.8055 45.138 21.5068 45.138 21.1267V20.4027C45.15 19.5852 45.555 19.1659 46.353 19.1478H48.675V18.8311C48.675 18.5687 48.6 18.3424 48.45 18.1433C48.357 18.0166 48.243 17.9291 48.114 17.8839C47.985 17.8477 47.841 17.8326 47.676 17.8326H45.141V17.549H47.541C47.76 17.549 47.958 17.5641 48.138 17.5943C48.231 17.6124 48.315 17.6486 48.393 17.7029C48.477 17.7512 48.552 17.8266 48.624 17.9201C48.837 18.2006 48.945 18.5204 48.939 18.8854L48.948 21.0453ZM51.567 17.8296C50.916 17.8417 50.598 18.1976 50.607 18.9005V22.3424H50.328V18.9005C50.316 17.9985 50.742 17.546 51.612 17.546H51.924V17.8296H51.567ZM56.289 17.8326H54.081C53.922 17.8326 53.778 17.8507 53.649 17.8839C53.514 17.9141 53.385 17.9955 53.262 18.1282C53.145 18.2489 53.073 18.3696 53.043 18.4932C53.004 18.6139 52.983 18.7587 52.989 18.9337V21.1297C52.989 21.4947 53.094 21.7451 53.307 21.8748C53.412 21.9382 53.526 21.9834 53.658 22.0136C53.787 22.0498 53.931 22.0649 54.09 22.0649H55.056C55.419 22.0649 55.713 21.9804 55.941 21.8115C56.169 21.6516 56.283 21.3801 56.292 20.994L56.289 17.8326ZM56.568 21.0091C56.544 21.9171 56.064 22.3605 55.134 22.3424H54.096C53.877 22.3424 53.682 22.3243 53.508 22.2851C53.331 22.2398 53.16 22.1282 52.995 21.9593C52.872 21.8055 52.791 21.6516 52.758 21.4947C52.716 21.3349 52.695 21.1599 52.704 20.9699V18.9216C52.716 18.0015 53.178 17.54 54.09 17.549H56.28V15.9955H56.559L56.568 21.0091Z" fill="#108AC8"/>
<path d="M3.501 17.3982C3.591 17.359 3.684 17.3258 3.777 17.3077C3.945 16.4992 4.659 15.8929 5.511 15.8929C6.366 15.8929 7.077 16.4992 7.248 17.3077C7.509 17.359 7.728 17.4646 7.896 17.6214C7.905 17.4646 7.896 17.3167 7.878 17.178C7.77 15.9593 6.75 15 5.511 15C4.233 15 3.192 16.0166 3.138 17.2926C3.129 17.4042 3.126 17.5158 3.132 17.6365C3.234 17.543 3.357 17.4615 3.501 17.3982ZM6.897 17.5792H4.047C3.909 17.5792 3.768 17.6124 3.621 17.6757C3.48 17.7391 3.363 17.8145 3.27 17.902C3.096 18.1161 3.006 18.4299 3 18.8431V21.0814C3.006 21.4947 3.096 21.8054 3.273 22.0196C3.366 22.1101 3.483 22.1855 3.624 22.2489C3.771 22.3122 3.912 22.3454 4.05 22.3454H6.9C7.638 22.3394 8.01 21.9321 8.022 21.1297V18.7979C8.007 17.9894 7.632 17.5882 6.897 17.5792Z" fill="#E1222E"/>
</svg>
