<svg width="45" height="30" viewBox="0 0 45 30" fill="none" xmlns="http://www.w3.org/2000/svg">
<mask id="mask0_1518_513" style="mask-type:luminance" maskUnits="userSpaceOnUse" x="2" y="10" width="36" height="12">
<path d="M37.495 10H2V21.195H37.495V10Z" fill="white"/>
</mask>
<g mask="url(#mask0_1518_513)">
<path d="M7.96685 14.4166V14.2915C7.96685 12.8506 7.34046 12.1615 6.35369 12.1615C5.36691 12.1615 4.72501 12.8975 4.72501 14.2757V14.4007C4.72501 15.7944 5.33556 16.4994 6.35369 16.4994C7.37182 16.4994 7.96685 15.7631 7.96685 14.4163V14.4166ZM7.35597 10.0471C9.26648 10.0471 10.8159 11.4879 10.8159 14.2912V14.4169C10.8159 17.236 9.26547 18.6455 7.33911 18.6455C6.10219 18.6455 5.20913 18.066 4.80222 17.2518V21.1993H2V10.2659H4.80222V11.4873C5.0608 11.0413 5.434 10.6724 5.88305 10.4189C6.33211 10.1657 6.84084 10.0369 7.35631 10.0464L7.35597 10.0471Z" fill="black"/>
<path d="M17.508 14.3556V14.2306C17.508 12.8055 16.9126 12.1164 15.973 12.1164C14.9866 12.1164 14.4071 12.821 14.4071 14.2464V14.3715C14.4071 15.7497 15.0021 16.4543 15.9262 16.4543C16.8502 16.4543 17.508 15.7497 17.508 14.3556ZM11.5566 14.4025V14.2774C11.5566 11.49 13.1543 10.002 14.9866 10.002C16.2235 10.002 16.9601 10.5346 17.4294 11.3646V10.2214H20.2327V18.4123H17.4294V17.0965C17.2019 17.5526 16.8506 17.9353 16.416 18.2013C15.9811 18.4673 15.4805 18.6052 14.9707 18.6001C13.154 18.6001 11.5566 17.2374 11.5566 14.4028V14.4025Z" fill="black"/>
<path d="M25.839 14.6352L27.4049 10.2656H30.0827L25.6967 21.197H23.0199L24.3826 17.6262L21.1094 10.2656H24.1476L25.839 14.6352Z" fill="black"/>
<path d="M30.2285 18.4562V16.5133L33.9565 12.3788H30.6826L30.6671 10.2646H37.2293V12.3319L33.6585 16.3266H37.4953V18.4565H30.2285V18.4562Z" fill="black"/>
</g>
<path d="M41.0565 19.7507C42.1297 19.7507 42.9997 18.8807 42.9997 17.8075C42.9997 16.7343 42.1297 15.8643 41.0565 15.8643C39.9833 15.8643 39.1133 16.7343 39.1133 17.8075C39.1133 18.8807 39.9833 19.7507 41.0565 19.7507Z" fill="#DCFA14"/>
</svg>
