<svg width="21" height="20" fill="none" xmlns="http://www.w3.org/2000/svg"><g clip-path="url(#a)"><path d="m12.334 6.71.091.214.232.02 6.212.536-4.708 4.086-.176.153.053.227 1.407 6.073-5.338-3.222-.2-.121-.2.12-5.337 3.222 1.416-6.072.053-.227-.176-.153L.947 7.481l6.209-.527.232-.02.091-.215L9.907.991l2.427 5.719Z" fill="#FFB600"/><path d="m12.334 6.71.091.214.232.02 6.212.536-4.708 4.086-.176.153.053.227 1.407 6.073-5.338-3.222-.2-.121-.2.12-5.337 3.222 1.416-6.072.053-.227-.176-.153L.947 7.481l6.209-.527.232-.02.091-.215L9.907.991l2.427 5.719Z" fill="url(#b)"/><path d="m12.334 6.71.091.214.232.02 6.212.536-4.708 4.086-.176.153.053.227 1.407 6.073-5.338-3.222-.2-.121-.2.12-5.337 3.222 1.416-6.072.053-.227-.176-.153L.947 7.481l6.209-.527.232-.02.091-.215L9.907.991l2.427 5.719Z" stroke="#FFB600"/><path d="m12.334 6.71.091.214.232.02 6.212.536-4.708 4.086-.176.153.053.227 1.407 6.073-5.338-3.222-.2-.121-.2.12-5.337 3.222 1.416-6.072.053-.227-.176-.153L.947 7.481l6.209-.527.232-.02.091-.215L9.907.991l2.427 5.719Z" stroke="url(#c)"/></g><defs><linearGradient id="b" x1="9.908" y1=".991" x2="9.908" y2="18.019" gradientUnits="userSpaceOnUse"><stop stop-color="#FFCE53"/><stop offset="1" stop-color="#D58000"/></linearGradient><linearGradient id="c" x1="9.908" y1=".991" x2="9.908" y2="18.019" gradientUnits="userSpaceOnUse"><stop stop-color="#FFCE53"/><stop offset="1" stop-color="#DA890A"/></linearGradient><clipPath id="a"><path fill="#fff" d="M0 0h20.123v19.349H0z"/></clipPath></defs></svg>