<svg width="45" height="30" viewBox="0 0 45 30" fill="none" xmlns="http://www.w3.org/2000/svg">
<g clip-path="url(#clip0_1518_576)">
<path fill-rule="evenodd" clip-rule="evenodd" d="M2 11H22.2533L19.8923 19H2V11Z" fill="#E30613"/>
<path fill-rule="evenodd" clip-rule="evenodd" d="M44.0003 11L41.6097 19H19.8926L22.2536 11H44.0003Z" fill="#312783"/>
<path d="M25.2914 14.7988C25.3369 14.5367 25.3551 14.3126 25.3452 14.1264C25.3353 13.941 25.3035 13.787 25.2504 13.6653C25.1973 13.5428 25.1283 13.4469 25.0433 13.3781C24.9599 13.308 24.8659 13.2593 24.7658 13.2306C24.6634 13.202 24.5587 13.1869 24.4495 13.1884C24.2417 13.1869 24.0407 13.2292 23.8473 13.3108C23.6531 13.3917 23.4696 13.5192 23.2989 13.6896C23.126 13.8608 22.9675 14.0813 22.8234 14.352C22.6778 14.6212 22.5534 14.9442 22.4442 15.3201C22.335 15.6975 22.2713 16.0247 22.2561 16.2976C22.2409 16.5733 22.2675 16.7988 22.3365 16.975C22.4032 17.1519 22.5094 17.2843 22.652 17.3674C22.7923 17.4526 22.9652 17.4949 23.1685 17.4949C23.3437 17.4977 23.5151 17.4719 23.6812 17.4211C23.8488 17.3695 24.0096 17.28 24.1673 17.1504C24.3228 17.023 24.473 16.8418 24.6186 16.6105C24.7635 16.3806 24.9 16.087 25.032 15.7326H24.3092C24.2485 15.9016 24.1749 16.0469 24.0892 16.1687C24.0012 16.2911 23.9064 16.3864 23.8048 16.453C23.7032 16.5196 23.6 16.5525 23.4946 16.5532C23.349 16.5532 23.2398 16.5045 23.1662 16.4086C23.0904 16.3133 23.0532 16.1723 23.0524 15.9889C23.0517 15.8063 23.0881 15.5829 23.1632 15.3201C23.2383 15.0573 23.3293 14.8368 23.4339 14.6563C23.5386 14.4752 23.6546 14.337 23.7836 14.2431C23.9102 14.1493 24.046 14.1014 24.1901 14.1014C24.2849 14.0999 24.3645 14.1207 24.429 14.1637C24.4927 14.2081 24.5359 14.2804 24.564 14.3821C24.5898 14.4845 24.5913 14.6227 24.5708 14.7981H25.2906L25.2914 14.7988ZM25.3808 15.3201C25.2762 15.6975 25.2208 16.0247 25.2117 16.2976C25.2019 16.5733 25.2352 16.7988 25.3126 16.975C25.3892 17.1519 25.5007 17.2843 25.6516 17.3674C25.8025 17.4526 25.9846 17.4949 26.1977 17.4949C26.4108 17.4949 26.6156 17.4526 26.8105 17.3674C27.0062 17.2843 27.1912 17.1519 27.3619 16.975C27.5341 16.7995 27.6895 16.5733 27.8283 16.2976C27.9686 16.024 28.0877 15.6975 28.1893 15.3201C28.2872 14.9442 28.3388 14.6212 28.3425 14.352C28.3486 14.0813 28.3122 13.8615 28.2341 13.6889C28.1575 13.5185 28.0445 13.391 27.8958 13.3101C27.7487 13.2292 27.5697 13.1862 27.3611 13.1877C27.1533 13.1862 26.9516 13.2285 26.7589 13.3101C26.5663 13.391 26.3858 13.5185 26.2159 13.6889C26.0452 13.86 25.8898 14.0806 25.7494 14.352C25.6091 14.6212 25.4855 14.9435 25.3816 15.3201H25.3808ZM26.1021 15.3201C26.1742 15.0573 26.2614 14.8368 26.3638 14.6563C26.4662 14.4752 26.5822 14.337 26.7081 14.2431C26.834 14.1493 26.9705 14.1014 27.1146 14.1014C27.2587 14.1014 27.368 14.1493 27.4423 14.2431C27.5196 14.337 27.5576 14.4752 27.5636 14.6563C27.5689 14.8368 27.5363 15.058 27.4666 15.3201C27.3968 15.5822 27.3103 15.8056 27.2072 15.9889C27.104 16.1723 26.9903 16.3133 26.8613 16.4086C26.7347 16.5045 26.5974 16.5532 26.4525 16.5532C26.3077 16.5532 26.1954 16.5045 26.1203 16.4086C26.0452 16.3133 26.0043 16.1723 26.0013 15.9889C25.9982 15.8063 26.0316 15.5829 26.1029 15.3201H26.1021ZM31.374 17.3416H32.0779C32.1901 16.8819 32.3016 16.425 32.4123 15.9696C32.5231 15.5156 32.633 15.0631 32.743 14.6126C32.8067 14.3527 32.8363 14.1336 32.8317 13.9567C32.8295 13.7798 32.8006 13.6373 32.7468 13.5321C32.6952 13.4261 32.6247 13.3495 32.5367 13.3022C32.4487 13.2557 32.3509 13.2321 32.2432 13.2335C32.0505 13.2349 31.8662 13.2994 31.6888 13.4283C31.5113 13.5564 31.3437 13.7397 31.1874 13.9768C31.1912 13.825 31.1746 13.6954 31.1397 13.5829C31.1055 13.4734 31.0479 13.3867 30.9683 13.3266C30.8879 13.265 30.7809 13.2349 30.6474 13.2335C30.5458 13.2349 30.4465 13.2542 30.3456 13.2922C30.2447 13.3323 30.1499 13.3824 30.0574 13.4476C29.9664 13.512 29.8837 13.5851 29.8071 13.6646C29.732 13.7448 29.6668 13.8264 29.6129 13.9102H29.6053C29.6546 13.719 29.7047 13.5271 29.754 13.3366H29.0843C28.9121 13.9947 28.7385 14.657 28.564 15.3216C28.3888 15.9904 28.2121 16.6656 28.0346 17.343H28.7407C28.8355 16.9757 28.9303 16.6091 29.0251 16.2446C29.1192 15.8808 29.2132 15.5185 29.3065 15.1569C29.3467 15.0008 29.3968 14.864 29.4521 14.7487C29.5113 14.6341 29.5727 14.5375 29.641 14.4616C29.71 14.3849 29.7805 14.3291 29.8549 14.2904C29.9284 14.2532 30.002 14.2353 30.0771 14.2353C30.1264 14.2338 30.1727 14.2453 30.2166 14.2661C30.2599 14.2883 30.2948 14.3248 30.3236 14.3763C30.3509 14.4272 30.3653 14.4974 30.3691 14.5854C30.3721 14.6749 30.3547 14.7845 30.3228 14.9184C30.2212 15.3187 30.118 15.7218 30.0157 16.125C29.9125 16.5296 29.8094 16.9356 29.7055 17.343H30.4093C30.5018 16.9757 30.5936 16.6091 30.6854 16.2446C30.7771 15.8808 30.8681 15.5185 30.9584 15.1569C30.9978 15.0008 31.0464 14.864 31.1033 14.7487C31.1594 14.6341 31.2223 14.5375 31.2883 14.4616C31.3551 14.3849 31.4256 14.3291 31.4984 14.2904C31.5697 14.2532 31.6418 14.2353 31.7146 14.2353C31.7661 14.2338 31.8139 14.2453 31.8602 14.2661C31.9034 14.289 31.9406 14.3248 31.9694 14.3763C31.9967 14.4272 32.0141 14.4974 32.0164 14.5854C32.0202 14.6749 32.0058 14.7845 31.9724 14.9184C31.8738 15.3187 31.7737 15.7218 31.6744 16.1243C31.5742 16.5289 31.4741 16.9356 31.3733 17.3423L31.374 17.3416ZM33.7176 15.343C33.7631 15.1518 33.8215 14.985 33.8905 14.8418C33.9595 14.6979 34.0361 14.5768 34.1188 14.4809C34.2022 14.3842 34.2879 14.3126 34.3782 14.2632C34.4677 14.2152 34.5557 14.1902 34.6429 14.1902C34.7301 14.1902 34.8105 14.2152 34.8772 14.2632C34.944 14.3126 34.9963 14.3842 35.0342 14.4809C35.0737 14.5768 35.0934 14.6979 35.0942 14.8418C35.0957 14.9857 35.0729 15.1526 35.0304 15.343C34.9842 15.5342 34.9288 15.7025 34.8598 15.8472C34.7908 15.9918 34.7149 16.1135 34.6292 16.2131C34.5458 16.3105 34.4586 16.3842 34.3676 16.4343C34.2766 16.4838 34.1863 16.5088 34.0961 16.5088C34.0058 16.5088 33.9307 16.4838 33.8632 16.4343C33.7957 16.3842 33.7434 16.3112 33.7062 16.2131C33.6691 16.1135 33.6501 15.9918 33.6501 15.8472C33.6501 15.7032 33.6713 15.5342 33.7168 15.343H33.7176ZM32.1901 18.8669H32.9008C32.9804 18.5353 33.0593 18.203 33.1381 17.8729C33.217 17.5435 33.2951 17.2149 33.3733 16.8862H33.3808C33.3975 17.0086 33.4332 17.1153 33.4916 17.2056C33.5477 17.2965 33.6251 17.3674 33.7199 17.4182C33.8154 17.4676 33.93 17.4934 34.0604 17.4941C34.2311 17.4927 34.4017 17.4404 34.5701 17.338C34.7385 17.2342 34.9 17.0867 35.0509 16.8948C35.2034 16.7043 35.3414 16.4752 35.4612 16.2088C35.5826 15.9445 35.6819 15.6474 35.757 15.3201C35.8374 14.97 35.8746 14.6635 35.8723 14.4028C35.8685 14.1408 35.8329 13.9245 35.7616 13.7512C35.6888 13.5786 35.5902 13.4483 35.4628 13.3624C35.3346 13.275 35.1844 13.2321 35.0122 13.2321C34.9167 13.2299 34.8219 13.2471 34.7271 13.28C34.6315 13.3144 34.5314 13.3781 34.426 13.4712C34.3206 13.5629 34.2038 13.6968 34.0741 13.8715H34.0665C34.1089 13.6925 34.1522 13.5135 34.1947 13.3352H33.525C33.3073 14.2374 33.0866 15.1476 32.8651 16.0656C32.6414 16.9914 32.4161 17.9245 32.1886 18.8661L32.1901 18.8669ZM35.6744 17.3416H36.3782C36.4434 17.0495 36.5094 16.7566 36.5746 16.4666C36.6399 16.1766 36.7051 15.8865 36.7695 15.5972C36.8279 15.3366 36.9038 15.1153 36.9956 14.9327C37.0866 14.7508 37.1958 14.6112 37.3209 14.5138C37.4446 14.4179 37.5864 14.3699 37.7457 14.3677C37.8094 14.3677 37.8723 14.3799 37.9292 14.4021C37.9884 14.4229 38.046 14.4522 38.1021 14.4859C38.1916 14.0785 38.2804 13.6732 38.3691 13.2679C38.3327 13.2535 38.2925 13.2428 38.2485 13.2385C38.206 13.2342 38.1651 13.2313 38.1249 13.2313C38.027 13.2313 37.936 13.2485 37.8526 13.2829C37.7669 13.318 37.6842 13.371 37.6046 13.4419C37.525 13.5142 37.443 13.6051 37.3581 13.7154C37.2731 13.8264 37.1844 13.9567 37.0866 14.1078H37.079C37.1366 13.8493 37.195 13.5922 37.2527 13.3344H36.5852C36.4358 13.9925 36.2849 14.6542 36.134 15.3194C35.9815 15.9889 35.8283 16.6628 35.6744 17.3402V17.3416ZM39.9178 15.7025C39.8898 15.8379 39.8496 15.9596 39.7972 16.0656C39.7472 16.1737 39.6865 16.2675 39.6205 16.347C39.5538 16.4272 39.4825 16.4931 39.4074 16.546C39.3331 16.599 39.2572 16.6377 39.1799 16.6649C39.1025 16.6907 39.0297 16.7043 38.9576 16.7043C38.8689 16.7043 38.7969 16.6807 38.74 16.637C38.6831 16.5933 38.6452 16.5296 38.6262 16.4458C38.6072 16.362 38.6095 16.2582 38.6353 16.1372C38.6611 16.0176 38.6975 15.9223 38.7392 15.8493C38.7809 15.777 38.8348 15.7218 38.8977 15.6839C38.9607 15.6474 39.0335 15.623 39.1184 15.6116C39.2572 15.5894 39.3975 15.5665 39.5378 15.5443C39.6099 15.5342 39.6827 15.5178 39.757 15.4941C39.8314 15.4705 39.908 15.4304 39.9861 15.3717C39.9633 15.482 39.9398 15.5915 39.9171 15.7011L39.9178 15.7025ZM39.0418 14.546C39.0949 14.4107 39.1472 14.3019 39.1973 14.2231C39.2474 14.1429 39.2982 14.0842 39.3505 14.0441C39.4021 14.0061 39.459 13.9811 39.5174 13.9689C39.5758 13.9582 39.6425 13.9531 39.7168 13.9539C39.8496 13.9539 39.9535 13.9718 40.0263 14.0061C40.0976 14.0398 40.1446 14.0928 40.1643 14.1637C40.1863 14.2324 40.184 14.3219 40.162 14.4272C40.14 14.5324 40.1135 14.6126 40.0839 14.6699C40.0551 14.7265 40.0157 14.7673 39.9686 14.7938C39.9231 14.8189 39.8632 14.8339 39.7904 14.8432C39.5371 14.8762 39.283 14.9077 39.0297 14.9399C38.9417 14.9499 38.8537 14.9671 38.7635 14.9943C38.6732 15.0215 38.5837 15.0631 38.4973 15.1168C38.4108 15.1698 38.3289 15.2435 38.2508 15.3344C38.1742 15.4254 38.1036 15.5392 38.0399 15.6774C37.977 15.8149 37.9224 15.9818 37.8799 16.1758C37.8283 16.4114 37.8086 16.6126 37.8177 16.7802C37.8276 16.9471 37.8625 17.0838 37.9239 17.1884C37.9861 17.2936 38.0687 17.371 38.1749 17.4204C38.2804 17.4698 38.4032 17.4934 38.5435 17.4934C38.6247 17.4934 38.7119 17.4848 38.8067 17.4662C38.903 17.4483 39.0001 17.4168 39.1025 17.3717C39.2026 17.3273 39.302 17.2679 39.4013 17.192C39.4984 17.116 39.5887 17.0222 39.6728 16.9084C39.6615 16.98 39.6509 17.0523 39.644 17.1246C39.6372 17.197 39.6342 17.2693 39.6304 17.3409H40.338C40.3312 17.2399 40.3372 17.1225 40.3501 16.9879C40.3645 16.854 40.3896 16.6979 40.4245 16.5217C40.4935 16.1873 40.5625 15.8543 40.6315 15.5213C40.6998 15.1905 40.768 14.8604 40.8363 14.531C40.8689 14.3814 40.8871 14.2403 40.8947 14.1064C40.9008 13.9725 40.8917 13.8493 40.8621 13.7369C40.834 13.6259 40.7817 13.5285 40.7096 13.4476C40.6338 13.366 40.5337 13.3015 40.4032 13.2564C40.2728 13.2113 40.1089 13.1877 39.9118 13.1877C39.798 13.1862 39.6835 13.1948 39.5689 13.2127C39.4506 13.2299 39.3384 13.2643 39.2261 13.3144C39.1131 13.366 39.0069 13.4397 38.9015 13.5407C38.7984 13.6402 38.7005 13.7713 38.6103 13.9352C38.5215 14.0985 38.4411 14.3019 38.3714 14.5453H39.0426L39.0418 14.546Z" fill="white"/>
<path d="M10.5901 12.9431C10.986 12.9431 11.3826 12.9438 11.7801 12.9431C11.8385 12.9431 11.8915 12.9509 11.9439 12.9724C11.9947 12.9932 12.0364 13.029 12.069 13.0791C12.1016 13.13 12.1176 13.1987 12.1191 13.2875C12.1206 13.3756 12.1001 13.4873 12.0561 13.6219C12.0144 13.7494 11.9644 13.8575 11.9097 13.9463C11.8544 14.0351 11.7952 14.1067 11.7338 14.1611C11.6724 14.2155 11.6117 14.2549 11.551 14.28C11.4903 14.3043 11.4342 14.3158 11.3811 14.3158H10.1411C10.2905 13.8582 10.4399 13.4006 10.5893 12.9438L10.5901 12.9431ZM9.45847 13.5489H2V14.2098H9.24232L9.12249 14.5764L2 14.5728V15.2366H8.90557L8.78574 15.6033H2V16.2635H8.56883L8.42472 16.7039H2.00228V17.3641H9.146L9.84528 15.3548C10.2184 15.3548 10.5916 15.3555 10.9655 15.3548C11.0391 15.3548 11.1005 15.3684 11.1528 15.3978C11.2036 15.4264 11.24 15.4751 11.2613 15.5467C11.2825 15.6169 11.2848 15.715 11.2681 15.8403C11.2522 15.9642 11.2135 16.1224 11.1521 16.3129C11.1058 16.4561 11.0664 16.5786 11.0337 16.6838C11.0011 16.7884 10.9761 16.8815 10.9564 16.9595C10.9367 17.039 10.9223 17.1106 10.9139 17.1743C10.9056 17.2395 10.901 17.3025 10.9025 17.3648H11.9287C11.9113 17.2932 11.9075 17.2051 11.9173 17.0999C11.9272 16.9946 11.9461 16.8829 11.9719 16.7669C11.9977 16.6509 12.0265 16.5392 12.0569 16.4339C12.0865 16.3308 12.1122 16.2442 12.135 16.1747C12.1706 16.0659 12.2055 15.9506 12.2389 15.826C12.2723 15.7021 12.2981 15.5796 12.3193 15.4579C12.3405 15.3347 12.3504 15.2202 12.3496 15.1156C12.3489 15.0111 12.3307 14.9237 12.2973 14.8521C12.2647 14.7812 12.2108 14.7347 12.1365 14.7132C12.138 14.7082 12.1396 14.7032 12.1418 14.6982C12.3716 14.5872 12.5666 14.4239 12.7273 14.2062C12.8874 13.99 13.0193 13.715 13.1263 13.3849C13.1627 13.2717 13.1953 13.15 13.2211 13.0182C13.2469 12.8858 13.2575 12.7554 13.2552 12.6244C13.2522 12.4941 13.2279 12.3759 13.1794 12.2671C13.1316 12.1604 13.0512 12.0745 12.9412 12.0093C12.8312 11.9448 12.6826 11.909 12.493 11.909C11.6602 11.9076 10.8282 11.909 9.99697 11.909L9.45999 13.5496L9.45847 13.5489ZM14.9609 16.1375C14.8434 16.3136 14.7107 16.4482 14.562 16.5385C14.4141 16.628 14.2541 16.6752 14.0827 16.6745C13.9378 16.6738 13.824 16.6387 13.7399 16.575C13.6557 16.5113 13.595 16.4282 13.5609 16.3272C13.5252 16.2248 13.5108 16.1189 13.5146 16.005C13.5191 15.8911 13.5374 15.7844 13.5692 15.6849C13.5707 15.6799 13.5722 15.6749 13.5745 15.6699H16.0675C16.0804 15.6291 16.0933 15.589 16.1069 15.5481C16.2723 15.0311 16.3512 14.5922 16.3466 14.2291C16.3413 13.8668 16.2472 13.5904 16.0629 13.4006C15.8779 13.2102 15.6011 13.1135 15.2287 13.112C14.9723 13.1113 14.7258 13.1543 14.4899 13.2388C14.2548 13.3233 14.0319 13.4543 13.8256 13.6312C13.617 13.8095 13.4281 14.0372 13.2567 14.3158C13.0861 14.5936 12.9367 14.9252 12.8115 15.3118C12.6871 15.6964 12.6212 16.0308 12.6128 16.3093C12.6037 16.5886 12.6469 16.8177 12.7395 16.996C12.8328 17.1751 12.97 17.3083 13.1513 17.3927C13.3341 17.478 13.5533 17.5202 13.8111 17.5202C14.0713 17.5202 14.3231 17.4737 14.5666 17.3784C14.81 17.2832 15.0413 17.135 15.2598 16.9309C15.4797 16.7261 15.683 16.4626 15.8695 16.1389H14.9609V16.1375ZM13.8309 14.8743C13.8324 14.8693 13.8347 14.8643 13.8354 14.8586C13.8415 14.8371 13.8627 14.7927 13.8976 14.7261C13.934 14.6581 13.9826 14.5814 14.044 14.4948C14.1054 14.4081 14.1828 14.3236 14.27 14.2413C14.358 14.1582 14.4573 14.0895 14.5696 14.0351C14.6811 13.9806 14.8039 13.9499 14.9382 13.9499C15.0611 13.9499 15.1619 13.9749 15.2378 14.0222C15.3136 14.0694 15.369 14.1303 15.4069 14.2055C15.4448 14.2807 15.4683 14.3595 15.4782 14.4425C15.4881 14.527 15.4888 14.6058 15.482 14.6795C15.4744 14.7533 15.463 14.8127 15.4471 14.8593C15.4456 14.8643 15.4441 14.8693 15.4418 14.875H13.8301L13.8309 14.8743ZM17.3675 15.3326C17.4297 15.1378 17.5063 14.9653 17.5958 14.8177C17.6852 14.6702 17.7831 14.5463 17.8885 14.4468C17.9939 14.3473 18.1024 14.2735 18.2146 14.2227C18.3269 14.1726 18.4369 14.1475 18.5446 14.1475C18.6523 14.1475 18.7455 14.1726 18.8252 14.2227C18.9048 14.2728 18.9647 14.3473 19.0072 14.4468C19.0497 14.5463 19.0686 14.6702 19.0641 14.8177C19.0595 14.9653 19.0269 15.1378 18.9655 15.3326C18.9033 15.5281 18.8275 15.6999 18.738 15.8467C18.6485 15.995 18.5514 16.1196 18.4452 16.2198C18.3398 16.3194 18.2321 16.3938 18.1206 16.4447C18.0091 16.4955 17.8991 16.5206 17.7914 16.5206C17.6837 16.5206 17.5897 16.4955 17.5085 16.4447C17.4281 16.3945 17.3659 16.3201 17.3242 16.2198C17.2825 16.1196 17.2636 15.995 17.2681 15.8467C17.2727 15.6999 17.3053 15.5281 17.3675 15.3326ZM18.3216 17.3655H19.146C19.4395 16.4368 19.7323 15.5088 20.0243 14.5843C20.3155 13.6606 20.6067 12.7383 20.8972 11.8174H20.0493C19.9469 12.1425 19.8438 12.4676 19.7414 12.7912C19.639 13.1156 19.5358 13.4422 19.4327 13.7665H19.4228C19.4069 13.6434 19.3667 13.5367 19.3 13.4457C19.234 13.3555 19.1452 13.2839 19.0315 13.2338C18.9177 13.1837 18.7819 13.1572 18.6227 13.1572C18.4179 13.1572 18.2116 13.2109 18.0045 13.3133C17.7975 13.4164 17.598 13.5653 17.4069 13.7572C17.2143 13.9506 17.0391 14.1819 16.8805 14.4511C16.7213 14.7211 16.5863 15.0225 16.4801 15.3569C16.3663 15.715 16.3041 16.0286 16.292 16.3C16.2791 16.57 16.3102 16.7948 16.3845 16.9767C16.4581 17.1572 16.5681 17.2932 16.7144 17.3842C16.8608 17.4751 17.0353 17.5202 17.2378 17.5209C17.3675 17.5209 17.4979 17.5045 17.6329 17.4665C17.7664 17.4286 17.9044 17.3591 18.0447 17.2617C18.1851 17.1643 18.3284 17.0283 18.4763 16.8528H18.4862C18.4315 17.0254 18.3777 17.1965 18.3231 17.3677L18.3216 17.3655Z" fill="white"/>
</g>
<defs>
<clipPath id="clip0_1518_576">
<rect width="42" height="8" fill="white" transform="translate(2 11)"/>
</clipPath>
</defs>
</svg>
