<svg width="19" height="18" fill="none" xmlns="http://www.w3.org/2000/svg"><g clip-path="url(#a)" fill="#06F"><path d="M8.5 5c-2.206 0-4 1.794-4 4s1.794 4 4 4 4-1.794 4-4-1.794-4-4-4Zm0 3.636a1.09 1.09 0 0 1 .364 2.115v.794h-.728v-.794a1.09 1.09 0 0 1-.727-1.024h.727a.364.364 0 1 0 .364-.363 1.09 1.09 0 0 1-.364-2.115v-.794h.728v.794c.422.15.727.55.727 1.024h-.727a.364.364 0 1 0-.364.363Zm6.052-2.83.981-.572A8.06 8.06 0 0 0 5.043 2.04V.644H3.906V4.05h3.406V2.915h-1.45a6.925 6.925 0 0 1 8.69 2.891ZM4.19 14.652a6.912 6.912 0 0 1-1.635-8.81l-.984-.567a8.06 8.06 0 0 0 1.737 10.128H1.92v1.136h3.406v-3.406H4.191v1.519Zm11.901-6.874-2.408 2.409.803.803.965-.965a6.939 6.939 0 0 1-6.88 6.196v1.135a8.07 8.07 0 0 0 8.026-7.466l1.1 1.1.803-.803-2.409-2.409Z"/></g><defs><clipPath id="a"><path fill="#fff" transform="translate(.5)" d="M0 0h18v18H0z"/></clipPath></defs></svg>