<svg width="60" height="40" viewBox="0 0 60 40" fill="none" xmlns="http://www.w3.org/2000/svg">
<path d="M40.7402 11.0009C41.8392 11.0009 42.7296 10.1056 42.7296 9.00043C42.7296 7.8953 41.8392 7 40.7402 7C39.6439 7 38.7508 7.8953 38.7508 9.00043C38.7508 10.1056 39.6411 11.0009 40.7402 11.0009ZM25.4954 12.0808C25.4063 12.3074 24.758 14.1428 23.1943 16.0481V7.90928L19.0318 8.73743V23.4846H23.1971V18.927C24.4047 20.7456 25.0001 23.4846 25.0001 23.4846H29.989C29.4965 21.4227 27.3373 17.6176 27.3373 17.6176C29.2739 15.1472 30.1253 12.5145 30.2616 12.078L25.4954 12.0808ZM36.4469 11.9269C32.7157 12.0472 30.8209 13.7315 30.8209 17.0777V23.4874H34.8916V18.2583C34.8916 16.2551 35.1531 15.3962 37.5154 15.3151V11.9857C37.1203 11.9017 36.4469 11.9269 36.4469 11.9269ZM12.0452 13.7063C11.536 13.6728 10.3535 13.5972 10.3535 12.5257C10.3535 11.2359 12.0535 11.2359 12.6907 11.2359C13.812 11.2359 15.2644 11.5688 16.3023 11.8822C16.3023 11.8822 16.881 12.0864 17.3735 12.2962L17.418 12.3074V12.2599V8.7738L17.354 8.75422C16.1298 8.32336 14.7052 7.90928 12.0675 7.90928C7.51822 7.90928 5.90442 10.5756 5.90442 12.8586C5.90442 14.1736 6.46647 17.2735 11.6779 17.6316C12.1203 17.6596 13.2917 17.7268 13.2917 18.8319C13.2917 19.744 12.3318 20.2812 10.718 20.2812C8.94838 20.2812 7.23163 19.8279 6.19101 19.3971V23.037C7.75194 23.4483 9.51042 23.6525 11.5722 23.6525C16.0213 23.6525 18.0135 21.1317 18.0135 18.6305C18.0162 15.7991 15.7848 13.9581 12.0452 13.7063ZM38.7229 23.4874H42.7602V12.0948H38.7229V23.4874ZM50.3618 8.63671V23.4874H54.399V7.90928L50.3618 8.63671ZM44.4686 8.63671L48.5031 7.91208V23.4874H44.4686V8.63671Z" fill="#862565"/>
<path d="M10.5261 31.1478V28.7417C10.5261 28.4675 10.4259 28.28 10.1532 28.28C9.94175 28.28 9.74142 28.4115 9.52995 28.6158V31.1478H8.35299V28.7417C8.35299 28.4675 8.25283 28.28 7.98015 28.28C7.76312 28.28 7.56835 28.4115 7.35689 28.6158V31.1478H6.17993V27.3092H7.21777L7.30402 27.8352C7.64626 27.4827 7.99684 27.2309 8.48933 27.2309C9.00964 27.2309 9.29901 27.4883 9.43813 27.8352C9.78037 27.4911 10.156 27.2309 10.629 27.2309C11.3385 27.2309 11.7114 27.6785 11.7114 28.4227V31.1506H10.5261V31.1478V31.1478ZM14.1404 28.2017C13.6897 28.2017 13.4476 28.6018 13.4476 29.2285C13.4476 29.8468 13.6952 30.2693 14.1404 30.2693C14.5912 30.2693 14.8416 29.8552 14.8416 29.2341C14.8416 28.6158 14.5939 28.2017 14.1404 28.2017ZM14.1321 31.2261C13.0803 31.2261 12.3096 30.4651 12.3096 29.2369C12.3096 28.0059 13.0887 27.2309 14.1404 27.2309C15.2005 27.2309 15.9796 27.9975 15.9796 29.2285C15.9796 30.4567 15.1922 31.2261 14.1321 31.2261ZM18.8149 31.1478V28.7417C18.8149 28.4675 18.7063 28.28 18.4253 28.28C18.1999 28.28 17.9885 28.4115 17.7798 28.6242V31.1478H16.6028V27.3092H17.6407L17.7269 27.8352C18.0692 27.4994 18.4364 27.2309 18.9178 27.2309C19.6273 27.2309 20.0002 27.6785 20.0002 28.4227V31.1506H18.8149V31.1478V31.1478ZM22.368 27.9975C22.0397 27.9975 21.8059 28.2884 21.767 28.876H22.9662C22.9273 28.2968 22.7269 27.9975 22.368 27.9975ZM24.0653 29.5251H21.7753C21.8365 30.1294 22.1955 30.3644 22.7102 30.3644C23.1304 30.3644 23.5449 30.2077 23.9651 29.9643L24.082 30.7953C23.6702 31.061 23.1638 31.2261 22.5628 31.2261C21.4164 31.2261 20.5984 30.6162 20.5984 29.2453C20.5984 27.9919 21.3635 27.2309 22.3986 27.2309C23.5672 27.2309 24.0903 28.1094 24.0903 29.2201C24.0903 29.3376 24.082 29.4635 24.0653 29.5251ZM26.7753 31.2261C26.4331 32.2305 25.9656 32.5747 25.1309 32.5747C24.8972 32.5747 24.797 32.5523 24.6857 32.5271L24.5383 31.5786C24.6635 31.6178 24.7803 31.6402 25.0057 31.6402C25.27 31.6402 25.5038 31.5395 25.629 31.2709L25.6763 31.1534L24.2879 27.4015L25.5511 27.2532L26.2912 29.6733L26.9924 27.3092H28.1304L26.7753 31.2261ZM30.4203 28.2884C30.1726 28.2884 29.9695 28.4367 29.772 28.6577V30.1769C29.9278 30.2245 30.0224 30.2469 30.2005 30.2469C30.6596 30.2469 30.9879 29.9643 30.9879 29.2033C30.9879 28.5626 30.757 28.2884 30.4203 28.2884ZM30.2339 31.1925C29.6189 31.1925 29.0402 31.0918 28.5978 30.9184V25.6781L29.7748 25.4906V27.7317C30.0168 27.4827 30.3452 27.2309 30.7959 27.2309C31.575 27.2309 32.1676 27.8268 32.1676 29.1278C32.1649 30.5518 31.4108 31.1925 30.2339 31.1925ZM34.4548 28.2017C34.004 28.2017 33.762 28.6018 33.762 29.2285C33.762 29.8468 34.0096 30.2693 34.4548 30.2693C34.9055 30.2693 35.1559 29.8552 35.1559 29.2341C35.1559 28.6158 34.9083 28.2017 34.4548 28.2017ZM34.4464 31.2261C33.3947 31.2261 32.6239 30.4651 32.6239 29.2369C32.6239 28.0059 33.403 27.2309 34.4548 27.2309C35.5149 27.2309 36.2939 27.9975 36.2939 29.2285C36.2939 30.4567 35.5065 31.2261 34.4464 31.2261ZM38.5616 28.2017C38.1081 28.2017 37.8688 28.6018 37.8688 29.2285C37.8688 29.8468 38.1192 30.2693 38.5616 30.2693C39.0124 30.2693 39.2628 29.8552 39.2628 29.2341C39.2628 28.6158 39.0124 28.2017 38.5616 28.2017ZM38.5533 31.2261C37.5015 31.2261 36.7308 30.4651 36.7308 29.2369C36.7308 28.0059 37.5099 27.2309 38.5616 27.2309C39.6217 27.2309 40.4008 27.9975 40.4008 29.2285C40.398 30.4567 39.6134 31.2261 38.5533 31.2261ZM43.3056 31.2009L42.1982 29.36V31.145H41.0213V25.6781L42.1982 25.4906V28.8844L43.2194 27.3092H44.4826L43.2834 29.055L44.5299 31.0303L43.3056 31.2009ZM46.383 27.9975C46.0546 27.9975 45.8209 28.2884 45.782 28.876H46.9812C46.9422 28.2968 46.7391 27.9975 46.383 27.9975ZM48.0802 29.5251H45.7903C45.8543 30.1294 46.2105 30.3644 46.7252 30.3644C47.1481 30.3644 47.5599 30.2077 47.9801 29.9643L48.0969 30.7953C47.6851 31.061 47.1787 31.2261 46.5777 31.2261C45.4314 31.2261 44.6134 30.6162 44.6134 29.2453C44.6134 27.9919 45.3757 27.2309 46.4136 27.2309C47.5822 27.2309 48.1053 28.1094 48.1053 29.2201C48.1025 29.3376 48.0941 29.4635 48.0802 29.5251ZM49.9111 29.0159V31.1478H48.7341V27.3092H49.7636L49.8888 28.0674C50.1225 27.6281 50.4425 27.27 51.0018 27.2281L51.1965 28.4339C50.6261 28.4759 50.1976 28.7025 49.9111 29.0159ZM53.0496 31.2093C52.4431 31.2093 51.8727 31.0359 51.4748 30.826L51.6139 29.9251C52.0674 30.2077 52.6183 30.3784 53.0552 30.3784C53.3835 30.3784 53.5365 30.2693 53.5365 30.0874C53.5365 29.8916 53.428 29.8076 52.8882 29.6733C51.9311 29.4215 51.5249 29.1641 51.5249 28.4423C51.5249 27.7289 52.0563 27.2504 52.9884 27.2504C53.5031 27.2504 54.0012 27.354 54.3991 27.533L54.2516 28.4339C53.837 28.2073 53.364 28.073 52.9967 28.073C52.7157 28.073 52.5905 28.1737 52.5905 28.3248C52.5905 28.4815 52.699 28.5682 53.2388 28.7165C54.2516 28.9907 54.6105 29.2509 54.6105 29.9615C54.6161 30.7701 54.0624 31.2093 53.0496 31.2093Z" fill="#010101"/>
</svg>
