<svg width="40" height="40" fill="none" xmlns="http://www.w3.org/2000/svg"><path d="M38.85 24.245c.29-1.303.44-2.652.44-4.038 0-10.387-8.54-18.81-19.078-18.81-1.11 0-2.2.095-3.262.276A11.133 11.133 0 0 0 11.065 0C4.953 0 0 4.883 0 10.91c0 2.012.555 3.895 1.52 5.517a18.641 18.641 0 0 0-.387 3.78c0 10.39 8.542 18.813 19.077 18.813a19.6 19.6 0 0 0 3.495-.315A11.16 11.16 0 0 0 28.938 40C35.047 40 40 35.115 40 29.093c0-1.743-.415-3.386-1.15-4.848Zm-8.853 4.953c-.882 1.232-2.184 2.207-3.877 2.897-1.672.688-3.675 1.038-5.96 1.038-2.74 0-5.037-.476-6.832-1.416-1.283-.682-2.338-1.604-3.14-2.75-.813-1.15-1.22-2.292-1.22-3.397 0-.688.267-1.285.794-1.773.523-.487 1.193-.73 1.993-.73.655 0 1.22.193 1.68.575.438.368.815.913 1.117 1.61.338.765.706 1.41 1.093 1.913.378.492.915.902 1.602 1.225.693.32 1.625.488 2.77.488 1.578 0 2.873-.333 3.843-.988.953-.637 1.413-1.407 1.413-2.348 0-.74-.243-1.325-.735-1.782-.52-.48-1.206-.853-2.035-1.11-.868-.265-2.046-.555-3.5-.855-1.983-.418-3.665-.913-5-1.475-1.368-.575-2.473-1.37-3.278-2.365-.82-1.012-1.235-2.28-1.235-3.77 0-1.42.435-2.7 1.295-3.805.852-1.098 2.098-1.955 3.705-2.538 1.583-.577 3.465-.87 5.597-.87 1.703 0 3.2.196 4.453.58 1.258.386 2.318.905 3.15 1.548.84.65 1.465 1.338 1.855 2.058.395.725.597 1.447.597 2.145 0 .672-.262 1.284-.782 1.814-.525.538-1.185.808-1.96.808-.705 0-1.26-.173-1.642-.505-.358-.313-.73-.8-1.14-1.495-.476-.89-1.053-1.593-1.713-2.09-.643-.483-1.713-.723-3.188-.723-1.364 0-2.48.27-3.304.806-.796.512-1.183 1.102-1.183 1.802 0 .428.125.785.383 1.092.27.33.652.613 1.137.853.5.248 1.017.448 1.535.588.53.145 1.418.362 2.64.64 1.545.325 2.962.692 4.217 1.09 1.273.397 2.368.89 3.268 1.467a6.473 6.473 0 0 1 2.15 2.238c.515.907.775 2.02.775 3.315-.003 1.547-.453 2.96-1.338 4.195Z" fill="url(#a)"/><defs><radialGradient id="a" cx="0" cy="0" r="1" gradientUnits="userSpaceOnUse" gradientTransform="matrix(-24.74902 32.20348 -68.81697 -52.88722 24.75 7.797)"><stop stop-color="#656565"/><stop offset="1" stop-color="#393939"/></radialGradient></defs></svg>