<svg xmlns="http://www.w3.org/2000/svg" width="24" height="24"><path d="M20.908 13.22c.054-.4.092-.805.092-1.22a9 9 0 0 0-9-9c-.415 0-.82.038-1.22.092A5.47 5.47 0 0 0 7.5 2 5.5 5.5 0 0 0 2 7.5a5.47 5.47 0 0 0 1.092 3.28C3.038 11.18 3 11.585 3 12a9 9 0 0 0 9 9c.415 0 .82-.038 1.22-.092A5.47 5.47 0 0 0 16.5 22a5.5 5.5 0 0 0 5.5-5.5 5.47 5.47 0 0 0-1.092-3.28zM11.979 17c-2.782 0-4.381-1.458-4.381-2.89 0-.73.764-.963 1.07-.963.707 0 .942.577 1.07.841.717 1.476 1.407 1.282 2.087 1.346.601.057 2.011-.208 2.011-1.238 0-.098.155-.768-1.062-1.101-.778-.212-2.149-.473-3.278-.907-1.062-.408-1.684-1.25-1.684-2.334 0-.545.277-2.754 4.037-2.754 2.508 0 3.846 1.285 3.846 2.416 0 .26-.099.489-.298.696s-.761.508-1.376.115c-.155-.099-.282-.306-.436-.573-.184-.337-.486-.987-1.873-.987-1.347 0-1.72.643-1.72.91 0 .9 1.718 1.089 2.179 1.208 1.684.434 3.976.833 3.976 3.104C16.145 16.497 13.433 17 11.979 17z"/></svg>