<svg width="18" height="19" fill="none" xmlns="http://www.w3.org/2000/svg"><g clip-path="url(#a)" fill="#06F"><path d="M6.755.5v1.502h1.501v.75a5.034 5.034 0 0 1 1.502 0v-.75h1.501V.5H6.755Z"/><path d="m14.112 5.455.526-.525.6.6 1.051-1.05-2.252-2.253-1.051 1.05.6.601-.675.676C9.307 2.377 4.652 3.503 2.55 7.107c-2.103 3.603-.977 8.108 2.552 10.285 3.529 2.178 8.183 1.051 10.285-2.552 1.877-3.079 1.352-6.982-1.276-9.385ZM9.007 16.191a5.223 5.223 0 0 1-5.255-5.255A5.223 5.223 0 0 1 9.007 5.68v5.256h5.255a5.223 5.223 0 0 1-5.255 5.255Z"/></g><defs><clipPath id="a"><path fill="#fff" transform="translate(0 .5)" d="M0 0h18v18H0z"/></clipPath></defs></svg>