<svg xmlns="http://www.w3.org/2000/svg" viewBox="5 5 40 40" width="24" height="24" baseProfile="basic"><path d="M25 8c9.389 0 17 7.611 17 17s-7.611 17-17 17S8 34.389 8 25 15.611 8 25 8zm5.864 23.93c.312-.959 1.778-10.521 1.958-12.405.055-.571-.126-.95-.478-1.119-.427-.205-1.06-.103-1.794.162-1.007.363-13.876 5.827-14.62 6.144-.704.3-1.372.626-1.372 1.1 0 .333.198.52.742.714.566.202 1.992.634 2.834.866.811.224 1.734.03 2.251-.292.548-.341 6.878-4.576 7.332-4.947.454-.371.816.104.445.476-.371.371-4.715 4.588-5.289 5.172-.696.709-.202 1.443.265 1.738a304.2 304.2 0 0 1 4.943 3.319c.578.412 1.162.599 1.699.599.536-.001.817-.708 1.084-1.527z"/></svg>