<svg width="40" height="40" fill="none" xmlns="http://www.w3.org/2000/svg"><path d="M20 40c11.048 0 20-8.952 20-20S31.048 0 20 0 0 8.952 0 20s8.952 20 20 20ZM9.152 19.567l19.283-7.435c.895-.324 1.677.218 1.387 1.571l.001-.001L26.54 29.17c-.243 1.097-.895 1.363-1.807.847l-5-3.685-2.411 2.323c-.267.267-.492.492-1.009.492l.355-5.089 9.267-8.371c.403-.355-.09-.555-.622-.202l-11.451 7.21-4.937-1.54c-1.072-.34-1.095-1.072.227-1.588Z" fill="url(#a)"/><defs><radialGradient id="a" cx="0" cy="0" r="1" gradientUnits="userSpaceOnUse" gradientTransform="matrix(-24.74902 32.20348 -68.81697 -52.88722 24.75 7.797)"><stop stop-color="#656565"/><stop offset="1" stop-color="#393939"/></radialGradient></defs></svg>