<svg width="60" height="40" viewBox="0 0 60 40" fill="none" xmlns="http://www.w3.org/2000/svg">
<path d="M4 11.6448C4.084 11.5392 4.012 11.3492 4.129 11.2979C4.252 11.2466 4.414 11.2798 4.558 11.2798C6.796 11.2798 9.034 11.2798 11.272 11.2798C12.364 11.2798 13.147 11.9374 13.351 13.0174C13.93 16.1245 14.509 19.2315 15.091 22.3386C15.103 22.3899 15.118 22.4442 15.142 22.5317C15.361 21.9827 15.565 21.4638 15.769 20.942C17.008 17.7866 18.247 14.6312 19.483 11.4729C19.543 11.319 19.609 11.2677 19.777 11.2677C21.136 11.2768 22.495 11.2738 23.854 11.2738C23.914 11.2738 23.974 11.2738 24.061 11.2738C23.887 11.6991 23.719 12.1033 23.551 12.5076C21.442 17.5664 19.333 22.6222 17.23 27.681C17.167 27.8349 17.098 27.8831 16.933 27.8801C15.568 27.8711 14.2 27.8711 12.835 27.8801C12.664 27.8801 12.607 27.8288 12.565 27.669C11.446 23.2919 10.315 18.9118 9.199 14.5317C9.028 13.856 8.665 13.3824 8.035 13.0837C6.793 12.4985 5.488 12.1154 4.162 11.8047C4.111 11.7926 4.054 11.7775 4.003 11.7625C4 11.7263 4 11.684 4 11.6448ZM40.162 11.0928C40.915 11.2165 41.65 11.4065 42.373 11.6509C42.493 11.6901 42.529 11.7383 42.496 11.8741C42.265 12.9359 42.037 14.0008 41.818 15.0686C41.788 15.2104 41.758 15.2406 41.611 15.1772C40.453 14.6674 39.238 14.414 37.972 14.4683C37.426 14.4895 36.892 14.589 36.418 14.8816C36.085 15.0867 35.836 15.3673 35.77 15.7685C35.716 16.1094 35.854 16.3899 36.079 16.6312C36.427 17.0023 36.868 17.2466 37.306 17.488C38.107 17.9254 38.932 18.3205 39.679 18.8515C40.501 19.4337 41.224 20.1214 41.518 21.1169C42.043 22.9027 41.656 24.5196 40.441 25.9103C39.571 26.9088 38.428 27.4578 37.171 27.7926C35.788 28.1607 34.381 28.2089 32.965 28.0671C31.906 27.9616 30.862 27.7715 29.86 27.3944C29.545 27.2738 29.545 27.2738 29.617 26.9359C29.839 25.8831 30.061 24.8334 30.286 23.7806C30.298 23.7293 30.316 23.675 30.337 23.6147C31.084 23.9766 31.84 24.3055 32.653 24.4653C33.73 24.6795 34.81 24.7851 35.893 24.4834C36.253 24.3839 36.586 24.224 36.859 23.9555C37.387 23.4397 37.405 22.7006 36.901 22.1637C36.625 21.8711 36.289 21.6569 35.944 21.4548C35.317 21.0898 34.642 20.8092 34.021 20.4291C33.445 20.0762 32.899 19.6871 32.434 19.1893C31.255 17.9344 31.048 16.4774 31.585 14.8907C32.053 13.5 33.043 12.5649 34.309 11.9042C35.287 11.3914 36.343 11.141 37.435 11.0204C37.477 11.0204 39.229 10.942 40.162 11.0928ZM22.351 27.8801C22.477 27.2858 22.6 26.7067 22.72 26.1305C23.347 23.1863 23.974 20.2451 24.598 17.3009C25.015 15.3492 25.429 13.3944 25.843 11.4427C25.87 11.316 25.921 11.2708 26.059 11.2708C27.37 11.2768 28.681 11.2768 29.992 11.2708C30.124 11.2708 30.163 11.2889 30.13 11.4367C29.662 13.6086 29.203 15.7866 28.738 17.9585C28.102 20.954 27.463 23.9525 26.824 26.948C26.767 27.2165 26.707 27.4849 26.656 27.7564C26.638 27.8349 26.614 27.8771 26.524 27.8771C25.141 27.8801 23.755 27.8801 22.351 27.8801ZM56.77 27.5664C56.455 26.0702 56.14 24.5769 55.831 23.0777C55.027 19.2074 54.226 15.3371 53.428 11.4668C53.398 11.322 53.341 11.2738 53.188 11.2738C52.069 11.2828 50.947 11.2798 49.831 11.2798C48.883 11.2798 48.238 11.7112 47.869 12.6011C45.913 17.2949 43.954 21.9917 42.001 26.6825C41.839 27.0747 41.677 27.4668 41.515 27.862C41.554 27.8741 41.566 27.8801 41.578 27.8801C43.012 27.8831 44.446 27.8801 45.883 27.8861C46.006 27.8861 46.03 27.8137 46.06 27.7293C46.318 27.0113 46.579 26.2964 46.831 25.5724C46.879 25.4427 46.936 25.3975 47.077 25.3975C48.772 25.4065 50.467 25.4065 52.162 25.3975C52.336 25.3975 52.381 25.4638 52.408 25.6116C52.543 26.3085 52.693 27.0023 52.828 27.6991C52.855 27.8499 52.918 27.8892 53.068 27.8892C54.316 27.8831 55.564 27.8861 56.815 27.8861C56.815 27.8168 56.815 27.7504 56.821 27.678C56.764 27.6509 56.779 27.6026 56.77 27.5664ZM51.439 21.9947C50.344 21.9857 49.246 21.9917 48.121 21.9917C48.865 19.9284 49.6 17.8952 50.332 15.859C50.347 15.859 50.356 15.862 50.371 15.862C50.485 16.408 50.599 16.951 50.713 17.5C51.007 18.9299 51.304 20.3567 51.604 21.7836C51.634 21.9435 51.619 21.9947 51.439 21.9947Z" fill="#292C67"/>
</svg>
