<svg width="45" height="30" viewBox="0 0 45 30" fill="none" xmlns="http://www.w3.org/2000/svg">
<g clip-path="url(#clip0_1518_593)">
<path d="M3 6.85449H4.90009L6.42336 12.5719L7.89051 7.12336H9.43784L10.929 12.5719L12.4203 6.85449H14.3203L11.859 15.0708H10.1434L8.63612 9.51945L7.16896 15.0708H5.45327L3 6.85449Z" fill="black"/>
<path d="M15.227 11.6152C15.3152 12.9279 16.5017 13.6633 17.6402 13.6475C18.6102 13.6475 19.2596 13.2126 19.6445 12.5404H21.6889C21.296 13.4498 20.7027 14.1378 20.0052 14.6044C19.3077 15.0867 18.49 15.324 17.6241 15.324C15.0586 15.324 13.2227 13.2758 13.2227 10.9825C13.2227 8.64971 15.0746 6.60156 17.5921 6.60156C18.8347 6.60156 19.9251 7.06813 20.7027 7.85892C21.7209 8.89485 22.0977 10.1759 21.9294 11.6152H15.227ZM19.9732 10.1206C19.901 9.3456 19.0592 8.25431 17.6081 8.26222C16.1329 8.26222 15.3312 9.30606 15.259 10.1206H19.9732Z" fill="black"/>
<path d="M21.6406 4H23.6289V7.87487C24.4467 6.87057 25.6492 6.6017 26.4029 6.6017C28.3751 6.6017 30.5558 8.02512 30.5558 10.9273C30.5558 13.7109 28.5836 15.3241 26.3067 15.3241C24.9998 15.3241 23.9897 14.6994 23.5487 13.8849V15.0711H21.6406V4ZM28.5755 10.9431C28.5755 9.59879 27.5253 8.42842 26.0742 8.42842C24.5268 8.42842 23.5567 9.62252 23.5567 10.959C23.5567 12.3349 24.5268 13.5053 26.0261 13.5053C27.6455 13.5053 28.5755 12.2321 28.5755 10.959V10.9431Z" fill="black"/>
<path d="M5.45312 14.9133H7.32114V16.1074C7.91442 15.285 8.8845 14.6523 10.2635 14.6523C13.1737 14.6523 14.4004 17.088 14.4004 19.0808C14.4004 21.4136 12.7167 23.3748 10.2715 23.3748C8.652 23.3748 7.77011 22.5523 7.43338 22.0304V25.9923H5.45312V14.9133ZM12.4121 19.0096C12.4121 17.8313 11.5462 16.4791 9.86261 16.4791C9.13304 16.4791 8.51571 16.7638 8.05873 17.2303C7.61778 17.6811 7.34519 18.3216 7.34519 19.0412C7.34519 19.745 7.61778 20.3698 8.07476 20.8205C8.53174 21.2713 9.16511 21.5559 9.87864 21.5559C11.3939 21.5559 12.4121 20.3777 12.4121 19.0254V19.0096Z" fill="#FFA817"/>
<path d="M22.9864 23.1294H20.9981V21.9511C20.469 22.908 19.3626 23.3904 18.1921 23.3904C15.5223 23.3904 13.959 21.3422 13.959 19.0252C13.959 16.4393 15.8511 14.668 18.1921 14.668C19.7073 14.668 20.6373 15.4588 20.9981 16.123V14.9131H22.9864V23.1294ZM15.9473 19.0569C15.9473 20.077 16.6929 21.5558 18.4807 21.5558C19.5871 21.5558 20.3167 20.9864 20.6935 20.243C20.8939 19.8872 20.9821 19.4918 21.0142 19.0885C21.0302 18.701 20.95 18.2977 20.7897 17.9339C20.4369 17.159 19.6673 16.4789 18.4727 16.4789C16.8612 16.4789 15.9553 17.7679 15.9553 19.041L15.9473 19.0569Z" fill="#FFA817"/>
<path d="M25.4006 22.8131L22.2578 14.9131H24.3824L26.4107 20.3774L28.4151 14.9131H30.5396L26.1542 26H24.0296L25.4006 22.8131Z" fill="#FFA817"/>
<path d="M37.1619 9.89911C36.9775 9.71722 36.6648 9.71722 36.4804 9.89911L31.6941 14.6201L31.3574 14.9523V15.4267V20.7725C31.3574 21.0334 31.5739 21.2469 31.8385 21.2469H37.2581C37.5227 21.2469 37.8915 21.0967 38.0759 20.9148L42.8622 16.1938C43.0466 16.0119 43.0466 15.7035 42.8622 15.5216L37.1619 9.89911Z" fill="#FF0005"/>
<path d="M32.1738 15.4033H32.6629V15.8699C32.8633 15.5536 33.2161 15.3242 33.6891 15.3242C34.6111 15.3242 35.052 16.0834 35.052 16.7477C35.052 17.4989 34.4989 18.1395 33.6971 18.1395C33.1359 18.1395 32.8072 17.839 32.6869 17.6254V19.0252H32.1738V15.4033ZM34.5389 16.7239C34.5389 16.289 34.2263 15.7987 33.6009 15.7987C33.3363 15.7987 33.1038 15.9015 32.9355 16.0755C32.7751 16.2415 32.6709 16.4788 32.6709 16.7397C32.6709 17.0007 32.7671 17.23 32.9355 17.3961C33.1038 17.5622 33.3444 17.665 33.6009 17.665C34.1461 17.6571 34.5389 17.2459 34.5389 16.7239Z" fill="white"/>
<path d="M35.2129 14.4463H35.726V18.0602H35.2129V14.4463Z" fill="white"/>
<path d="M38.5071 18.0526H38.018V17.6414C37.8897 17.9182 37.5851 18.1317 37.104 18.1317C36.2382 18.1238 36.0137 17.5069 36.0137 16.9534V15.3955H36.5268V16.8348C36.5268 17.3092 36.7112 17.6572 37.2483 17.6572C37.7534 17.6493 37.9859 17.333 37.9859 16.8822V15.3955H38.499L38.5071 18.0526Z" fill="white"/>
<path d="M39.9995 16.0914C39.9995 15.8858 39.8712 15.7276 39.6066 15.7355C39.3581 15.7355 39.2138 15.9016 39.2218 16.0756C39.2298 16.2891 39.4222 16.384 39.7108 16.4631C40.1197 16.5738 40.5687 16.6924 40.5847 17.2618C40.5927 17.7758 40.1598 18.1316 39.6226 18.1316C39.1977 18.1316 38.6686 17.8944 38.6445 17.2855H39.1576C39.1737 17.6097 39.4382 17.7125 39.6307 17.7125C39.8792 17.7125 40.0716 17.5385 40.0716 17.3171C40.0636 17.0562 39.8632 16.9692 39.3821 16.811C39.0053 16.7003 38.7087 16.5263 38.7007 16.123C38.7007 15.6169 39.1176 15.3164 39.6066 15.3164C39.9754 15.3164 40.4645 15.4983 40.5045 16.0914H39.9995Z" fill="white"/>
</g>
<defs>
<clipPath id="clip0_1518_593">
<rect width="40" height="22" fill="white" transform="translate(3 4)"/>
</clipPath>
</defs>
</svg>
