<svg width="40" height="40" fill="none" xmlns="http://www.w3.org/2000/svg"><path d="M20.005 0h-.01C8.967 0 0 8.97 0 20c0 4.375 1.41 8.43 3.808 11.723l-2.493 7.43 7.688-2.458A19.827 19.827 0 0 0 20.005 40C31.032 40 40 31.027 40 20S31.032 0 20.005 0Zm11.637 28.242c-.482 1.363-2.397 2.493-3.924 2.823-1.046.223-2.41.4-7.006-1.505-5.877-2.435-9.662-8.407-9.957-8.795-.283-.387-2.375-3.163-2.375-6.033 0-2.87 1.457-4.267 2.045-4.867.482-.492 1.28-.717 2.045-.717.247 0 .47.012.67.022.587.025.883.06 1.27.988.482 1.162 1.657 4.032 1.797 4.327.143.295.285.695.085 1.083-.187.4-.352.577-.647.917-.295.34-.575.6-.87.965-.27.317-.575.658-.235 1.245.34.575 1.515 2.492 3.245 4.032 2.232 1.988 4.043 2.623 4.69 2.893.482.2 1.057.152 1.41-.223.447-.482 1-1.282 1.563-2.07.4-.565.904-.635 1.434-.435.54.188 3.398 1.6 3.985 1.893.588.295.976.435 1.118.683.14.247.14 1.41-.343 2.774Z" fill="url(#a)"/><defs><radialGradient id="a" cx="0" cy="0" r="1" gradientUnits="userSpaceOnUse" gradientTransform="matrix(-24.74902 32.20348 -68.81697 -52.88722 24.75 7.797)"><stop stop-color="#656565"/><stop offset="1" stop-color="#393939"/></radialGradient></defs></svg>