<svg width="27" height="27" fill="none" xmlns="http://www.w3.org/2000/svg"><g clip-path="url(#a)"><path d="m22.701 1.62 3.688 19.468a1.375 1.375 0 0 1-1.095 1.607L5.825 26.383a1.376 1.376 0 0 1-1.613-1.095L.524 5.82a1.377 1.377 0 0 1 1.102-1.608L21.094.524a1.375 1.375 0 0 1 1.607 1.095Z" fill="#DEDEDE"/><path d="M24.743 3.547V23.36a1.376 1.376 0 0 1-1.377 1.377H3.553A1.374 1.374 0 0 1 2.17 23.36V3.547c0-.761.615-1.377 1.382-1.377h19.813c.761 0 1.377.616 1.377 1.377Z" fill="#ECECEC"/><path d="M24.743 3.547V23.36a1.375 1.375 0 0 1-1.377 1.377H3.553a1.385 1.385 0 0 1-1.35-1.068c.103.02.206.031.313.031H22.33a1.375 1.375 0 0 0 1.376-1.375V2.51c0-.103-.01-.205-.038-.302a1.367 1.367 0 0 1 1.075 1.339Z" fill="#C4C4C4"/><path d="M20.79 4.475v2.602a.664.664 0 0 1-.663.664H5.121a.663.663 0 0 1-.664-.664V4.475c0-.367.297-.664.664-.664h15.005c.367 0 .664.297.664.664Z" fill="#DEDEDE"/><path d="M20.79 4.475v2.602a.664.664 0 0 1-.663.664H5.121a.663.663 0 0 1-.664-.664v-.345h14.659a.663.663 0 0 0 .664-.664V3.813h.346c.367 0 .664.295.664.662Zm-.71 5.066a.435.435 0 0 1-.436.437h-8.107a.435.435 0 0 1 0-.87h8.107c.243 0 .437.195.437.433Zm0 2.488a.435.435 0 0 1-.436.437h-8.107a.435.435 0 0 1 0-.869h8.107c.243 0 .437.195.437.432Zm-5.936 2.489a.435.435 0 0 1-.437.437H5.6a.435.435 0 0 1 0-.87h8.107c.242 0 .437.195.437.432Zm0 2.488a.436.436 0 0 1-.437.437H5.6a.435.435 0 0 1 0-.87h8.107c.242 0 .437.195.437.433Zm0 2.64a.435.435 0 0 1-.437.436H5.6a.434.434 0 1 1 0-.868h8.107c.242 0 .437.194.437.431Zm0 2.487a.435.435 0 0 1-.437.438H5.6a.434.434 0 0 1 0-.87h8.107c.242 0 .437.195.437.432Z" fill="#C4C4C4"/><path d="M21.332 14.709v7.243c0 .34-.282.62-.62.62h-4.497a.62.62 0 0 1-.62-.62V14.71c0-.346.274-.62.62-.62h4.496c.34 0 .62.274.62.62Z" fill="#F9A810"/><path d="M21.332 14.709v7.243c0 .34-.282.62-.62.62h-4.497a.62.62 0 0 1-.62-.62v-.054h4.441c.34 0 .621-.281.621-.621v-7.189h.054c.34 0 .62.275.62.62Z" fill="#EC931F"/><path d="M9.074 9.824v2.477a.716.716 0 0 1-.718.713H5.884a.716.716 0 0 1-.717-.713V9.825c0-.394.323-.713.717-.713h2.472c.394 0 .718.319.718.713Z" fill="#F9A810"/><path d="M9.074 9.824v2.477a.717.717 0 0 1-.718.713H5.884a.71.71 0 0 1-.712-.685c.01.004.02.006.032.005h2.472a.717.717 0 0 0 .718-.712V9.143c0-.01 0-.016-.005-.026.378.01.685.323.685.706v.001Z" fill="#EC931F"/><path opacity=".3" d="M5.172 5.057c0-.2.162-.363.362-.363h3.92a.362.362 0 1 1 0 .725h-3.92a.362.362 0 0 1-.362-.362Zm5.157 0c0-.2.163-.363.363-.363h.652a.363.363 0 0 1 0 .725h-.652a.362.362 0 0 1-.363-.362Z" fill="#F9A810"/></g><defs><clipPath id="a"><path fill="#fff" transform="translate(.5 .5)" d="M0 0h26v26H0z"/></clipPath></defs></svg>